M48
; DRILL file {KiCad 7.0.10} date Tue Jan 30 21:33:04 2024
; FORMAT={-:-/ absolute / inch / decimal}
; #@! TF.CreationDate,2024-01-30T21:33:04-08:00
; #@! TF.GenerationSoftware,Kicad,Pcbnew,7.0.10
; #@! TF.FileFunction,Plated,1,2,PTH
FMAT,2
INCH
; #@! TA.AperFunction,Plated,PTH,ViaDrill
T1C0.0157
; #@! TA.AperFunction,Plated,PTH,ComponentDrill
T2C0.0315
; #@! TA.AperFunction,Plated,PTH,ComponentDrill
T3C0.0374
%
G90
G05
T1
X3.94Y-3.42
X4.04Y-3.35
X4.12Y-3.78
X4.17Y-4.18
X4.18Y-3.88
X4.49Y-3.57
T2
X2.85Y-2.67
X2.85Y-2.77
X2.85Y-2.87
X2.85Y-2.97
X2.85Y-3.07
X2.85Y-3.17
X2.85Y-3.27
X2.85Y-3.37
X2.85Y-3.47
X2.85Y-3.57
X2.85Y-3.67
X2.85Y-3.77
X2.85Y-3.87
X2.85Y-3.97
X2.85Y-4.07
X2.85Y-4.17
X2.85Y-4.27
X2.85Y-4.37
X2.85Y-4.47
X3.8499Y-4.3699
X3.8499Y-4.4699
X3.85Y-2.67
X3.85Y-2.77
X3.85Y-2.87
X3.85Y-2.97
X3.85Y-3.07
X3.85Y-3.17
X3.85Y-3.27
X3.85Y-3.37
X3.85Y-3.47
X3.85Y-3.57
X3.85Y-3.67
X3.85Y-3.77
X3.85Y-3.87
X3.85Y-3.97
X3.85Y-4.07
X3.85Y-4.17
X3.85Y-4.27
X4.0213Y-4.34
X4.0313Y-3.63
X4.0313Y-3.98
X4.1Y-4.34
X4.11Y-3.63
X4.11Y-3.98
X4.27Y-2.65
X4.27Y-2.75
X4.27Y-2.85
X4.27Y-2.95
X4.27Y-3.05
X4.27Y-3.15
X4.27Y-3.25
X4.27Y-3.35
X4.77Y-2.65
X4.77Y-2.75
X4.77Y-2.85
X4.77Y-2.95
X4.77Y-3.05
X4.77Y-3.15
X4.77Y-3.25
X4.77Y-3.35
T3
X4.73Y-3.7231
X4.73Y-3.8216
X4.73Y-3.92
X4.73Y-4.1631
X4.73Y-4.2616
X4.73Y-4.36
X5.1013Y-3.0533
X5.1013Y-3.1517
X5.1013Y-3.2502
X5.1013Y-3.3486
X5.1013Y-3.447
X5.1093Y-2.5024
X5.1093Y-2.6008
X5.1093Y-2.6992
X5.1093Y-2.7976
M30
