%TF.GenerationSoftware,KiCad,Pcbnew,7.0.10*%
%TF.CreationDate,2024-01-30T21:32:49-08:00*%
%TF.ProjectId,pcb,7063622e-6b69-4636-9164-5f7063625858,rev?*%
%TF.SameCoordinates,Original*%
%TF.FileFunction,Legend,Top*%
%TF.FilePolarity,Positive*%
%FSLAX46Y46*%
G04 Gerber Fmt 4.6, Leading zero omitted, Abs format (unit mm)*
G04 Created by KiCad (PCBNEW 7.0.10) date 2024-01-30 21:32:49*
%MOMM*%
%LPD*%
G01*
G04 APERTURE LIST*
%ADD10C,0.150000*%
%ADD11C,0.100000*%
%ADD12C,0.120000*%
G04 APERTURE END LIST*
D10*
X124796779Y-78101819D02*
X124796779Y-77101819D01*
X124796779Y-77101819D02*
X125034874Y-77101819D01*
X125034874Y-77101819D02*
X125177731Y-77149438D01*
X125177731Y-77149438D02*
X125272969Y-77244676D01*
X125272969Y-77244676D02*
X125320588Y-77339914D01*
X125320588Y-77339914D02*
X125368207Y-77530390D01*
X125368207Y-77530390D02*
X125368207Y-77673247D01*
X125368207Y-77673247D02*
X125320588Y-77863723D01*
X125320588Y-77863723D02*
X125272969Y-77958961D01*
X125272969Y-77958961D02*
X125177731Y-78054200D01*
X125177731Y-78054200D02*
X125034874Y-78101819D01*
X125034874Y-78101819D02*
X124796779Y-78101819D01*
X125796779Y-78101819D02*
X125796779Y-77101819D01*
X126844397Y-78101819D02*
X126511064Y-77625628D01*
X126272969Y-78101819D02*
X126272969Y-77101819D01*
X126272969Y-77101819D02*
X126653921Y-77101819D01*
X126653921Y-77101819D02*
X126749159Y-77149438D01*
X126749159Y-77149438D02*
X126796778Y-77197057D01*
X126796778Y-77197057D02*
X126844397Y-77292295D01*
X126844397Y-77292295D02*
X126844397Y-77435152D01*
X126844397Y-77435152D02*
X126796778Y-77530390D01*
X126796778Y-77530390D02*
X126749159Y-77578009D01*
X126749159Y-77578009D02*
X126653921Y-77625628D01*
X126653921Y-77625628D02*
X126272969Y-77625628D01*
X124495160Y-80594200D02*
X124638017Y-80641819D01*
X124638017Y-80641819D02*
X124876112Y-80641819D01*
X124876112Y-80641819D02*
X124971350Y-80594200D01*
X124971350Y-80594200D02*
X125018969Y-80546580D01*
X125018969Y-80546580D02*
X125066588Y-80451342D01*
X125066588Y-80451342D02*
X125066588Y-80356104D01*
X125066588Y-80356104D02*
X125018969Y-80260866D01*
X125018969Y-80260866D02*
X124971350Y-80213247D01*
X124971350Y-80213247D02*
X124876112Y-80165628D01*
X124876112Y-80165628D02*
X124685636Y-80118009D01*
X124685636Y-80118009D02*
X124590398Y-80070390D01*
X124590398Y-80070390D02*
X124542779Y-80022771D01*
X124542779Y-80022771D02*
X124495160Y-79927533D01*
X124495160Y-79927533D02*
X124495160Y-79832295D01*
X124495160Y-79832295D02*
X124542779Y-79737057D01*
X124542779Y-79737057D02*
X124590398Y-79689438D01*
X124590398Y-79689438D02*
X124685636Y-79641819D01*
X124685636Y-79641819D02*
X124923731Y-79641819D01*
X124923731Y-79641819D02*
X125066588Y-79689438D01*
X126066588Y-80546580D02*
X126018969Y-80594200D01*
X126018969Y-80594200D02*
X125876112Y-80641819D01*
X125876112Y-80641819D02*
X125780874Y-80641819D01*
X125780874Y-80641819D02*
X125638017Y-80594200D01*
X125638017Y-80594200D02*
X125542779Y-80498961D01*
X125542779Y-80498961D02*
X125495160Y-80403723D01*
X125495160Y-80403723D02*
X125447541Y-80213247D01*
X125447541Y-80213247D02*
X125447541Y-80070390D01*
X125447541Y-80070390D02*
X125495160Y-79879914D01*
X125495160Y-79879914D02*
X125542779Y-79784676D01*
X125542779Y-79784676D02*
X125638017Y-79689438D01*
X125638017Y-79689438D02*
X125780874Y-79641819D01*
X125780874Y-79641819D02*
X125876112Y-79641819D01*
X125876112Y-79641819D02*
X126018969Y-79689438D01*
X126018969Y-79689438D02*
X126066588Y-79737057D01*
X126971350Y-80641819D02*
X126495160Y-80641819D01*
X126495160Y-80641819D02*
X126495160Y-79641819D01*
X121551819Y-111518458D02*
X121551819Y-110851792D01*
X121551819Y-110851792D02*
X122551819Y-111280363D01*
X122456580Y-110470839D02*
X122504200Y-110423220D01*
X122504200Y-110423220D02*
X122551819Y-110470839D01*
X122551819Y-110470839D02*
X122504200Y-110518458D01*
X122504200Y-110518458D02*
X122456580Y-110470839D01*
X122456580Y-110470839D02*
X122551819Y-110470839D01*
X121551819Y-109518459D02*
X121551819Y-109994649D01*
X121551819Y-109994649D02*
X122028009Y-110042268D01*
X122028009Y-110042268D02*
X121980390Y-109994649D01*
X121980390Y-109994649D02*
X121932771Y-109899411D01*
X121932771Y-109899411D02*
X121932771Y-109661316D01*
X121932771Y-109661316D02*
X121980390Y-109566078D01*
X121980390Y-109566078D02*
X122028009Y-109518459D01*
X122028009Y-109518459D02*
X122123247Y-109470840D01*
X122123247Y-109470840D02*
X122361342Y-109470840D01*
X122361342Y-109470840D02*
X122456580Y-109518459D01*
X122456580Y-109518459D02*
X122504200Y-109566078D01*
X122504200Y-109566078D02*
X122551819Y-109661316D01*
X122551819Y-109661316D02*
X122551819Y-109899411D01*
X122551819Y-109899411D02*
X122504200Y-109994649D01*
X122504200Y-109994649D02*
X122456580Y-110042268D01*
X121551819Y-109185125D02*
X122551819Y-108851792D01*
X122551819Y-108851792D02*
X121551819Y-108518459D01*
X121599438Y-95151411D02*
X121551819Y-95246649D01*
X121551819Y-95246649D02*
X121551819Y-95389506D01*
X121551819Y-95389506D02*
X121599438Y-95532363D01*
X121599438Y-95532363D02*
X121694676Y-95627601D01*
X121694676Y-95627601D02*
X121789914Y-95675220D01*
X121789914Y-95675220D02*
X121980390Y-95722839D01*
X121980390Y-95722839D02*
X122123247Y-95722839D01*
X122123247Y-95722839D02*
X122313723Y-95675220D01*
X122313723Y-95675220D02*
X122408961Y-95627601D01*
X122408961Y-95627601D02*
X122504200Y-95532363D01*
X122504200Y-95532363D02*
X122551819Y-95389506D01*
X122551819Y-95389506D02*
X122551819Y-95294268D01*
X122551819Y-95294268D02*
X122504200Y-95151411D01*
X122504200Y-95151411D02*
X122456580Y-95103792D01*
X122456580Y-95103792D02*
X122123247Y-95103792D01*
X122123247Y-95103792D02*
X122123247Y-95294268D01*
X122551819Y-94675220D02*
X121551819Y-94675220D01*
X121551819Y-94675220D02*
X122551819Y-94103792D01*
X122551819Y-94103792D02*
X121551819Y-94103792D01*
X122551819Y-93627601D02*
X121551819Y-93627601D01*
X121551819Y-93627601D02*
X121551819Y-93389506D01*
X121551819Y-93389506D02*
X121599438Y-93246649D01*
X121599438Y-93246649D02*
X121694676Y-93151411D01*
X121694676Y-93151411D02*
X121789914Y-93103792D01*
X121789914Y-93103792D02*
X121980390Y-93056173D01*
X121980390Y-93056173D02*
X122123247Y-93056173D01*
X122123247Y-93056173D02*
X122313723Y-93103792D01*
X122313723Y-93103792D02*
X122408961Y-93151411D01*
X122408961Y-93151411D02*
X122504200Y-93246649D01*
X122504200Y-93246649D02*
X122551819Y-93389506D01*
X122551819Y-93389506D02*
X122551819Y-93627601D01*
X125828588Y-66417819D02*
X125257160Y-66417819D01*
X125542874Y-66417819D02*
X125542874Y-65417819D01*
X125542874Y-65417819D02*
X125447636Y-65560676D01*
X125447636Y-65560676D02*
X125352398Y-65655914D01*
X125352398Y-65655914D02*
X125257160Y-65703533D01*
X126209541Y-66132104D02*
X126685731Y-66132104D01*
X126114303Y-66417819D02*
X126447636Y-65417819D01*
X126447636Y-65417819D02*
X126780969Y-66417819D01*
X125828588Y-63877819D02*
X125257160Y-63877819D01*
X125542874Y-63877819D02*
X125542874Y-62877819D01*
X125542874Y-62877819D02*
X125447636Y-63020676D01*
X125447636Y-63020676D02*
X125352398Y-63115914D01*
X125352398Y-63115914D02*
X125257160Y-63163533D01*
X126590493Y-63354009D02*
X126733350Y-63401628D01*
X126733350Y-63401628D02*
X126780969Y-63449247D01*
X126780969Y-63449247D02*
X126828588Y-63544485D01*
X126828588Y-63544485D02*
X126828588Y-63687342D01*
X126828588Y-63687342D02*
X126780969Y-63782580D01*
X126780969Y-63782580D02*
X126733350Y-63830200D01*
X126733350Y-63830200D02*
X126638112Y-63877819D01*
X126638112Y-63877819D02*
X126257160Y-63877819D01*
X126257160Y-63877819D02*
X126257160Y-62877819D01*
X126257160Y-62877819D02*
X126590493Y-62877819D01*
X126590493Y-62877819D02*
X126685731Y-62925438D01*
X126685731Y-62925438D02*
X126733350Y-62973057D01*
X126733350Y-62973057D02*
X126780969Y-63068295D01*
X126780969Y-63068295D02*
X126780969Y-63163533D01*
X126780969Y-63163533D02*
X126733350Y-63258771D01*
X126733350Y-63258771D02*
X126685731Y-63306390D01*
X126685731Y-63306390D02*
X126590493Y-63354009D01*
X126590493Y-63354009D02*
X126257160Y-63354009D01*
X129813255Y-102501819D02*
X130003731Y-102501819D01*
X130003731Y-102501819D02*
X130098969Y-102549438D01*
X130098969Y-102549438D02*
X130194207Y-102644676D01*
X130194207Y-102644676D02*
X130241826Y-102835152D01*
X130241826Y-102835152D02*
X130241826Y-103168485D01*
X130241826Y-103168485D02*
X130194207Y-103358961D01*
X130194207Y-103358961D02*
X130098969Y-103454200D01*
X130098969Y-103454200D02*
X130003731Y-103501819D01*
X130003731Y-103501819D02*
X129813255Y-103501819D01*
X129813255Y-103501819D02*
X129718017Y-103454200D01*
X129718017Y-103454200D02*
X129622779Y-103358961D01*
X129622779Y-103358961D02*
X129575160Y-103168485D01*
X129575160Y-103168485D02*
X129575160Y-102835152D01*
X129575160Y-102835152D02*
X129622779Y-102644676D01*
X129622779Y-102644676D02*
X129718017Y-102549438D01*
X129718017Y-102549438D02*
X129813255Y-102501819D01*
X130527541Y-102835152D02*
X130908493Y-102835152D01*
X130670398Y-103501819D02*
X130670398Y-102644676D01*
X130670398Y-102644676D02*
X130718017Y-102549438D01*
X130718017Y-102549438D02*
X130813255Y-102501819D01*
X130813255Y-102501819D02*
X130908493Y-102501819D01*
X131098970Y-102835152D02*
X131479922Y-102835152D01*
X131241827Y-103501819D02*
X131241827Y-102644676D01*
X131241827Y-102644676D02*
X131289446Y-102549438D01*
X131289446Y-102549438D02*
X131384684Y-102501819D01*
X131384684Y-102501819D02*
X131479922Y-102501819D01*
X125780969Y-87261819D02*
X125304779Y-87261819D01*
X125304779Y-87261819D02*
X125257160Y-87738009D01*
X125257160Y-87738009D02*
X125304779Y-87690390D01*
X125304779Y-87690390D02*
X125400017Y-87642771D01*
X125400017Y-87642771D02*
X125638112Y-87642771D01*
X125638112Y-87642771D02*
X125733350Y-87690390D01*
X125733350Y-87690390D02*
X125780969Y-87738009D01*
X125780969Y-87738009D02*
X125828588Y-87833247D01*
X125828588Y-87833247D02*
X125828588Y-88071342D01*
X125828588Y-88071342D02*
X125780969Y-88166580D01*
X125780969Y-88166580D02*
X125733350Y-88214200D01*
X125733350Y-88214200D02*
X125638112Y-88261819D01*
X125638112Y-88261819D02*
X125400017Y-88261819D01*
X125400017Y-88261819D02*
X125304779Y-88214200D01*
X125304779Y-88214200D02*
X125257160Y-88166580D01*
X126114303Y-87261819D02*
X126447636Y-88261819D01*
X126447636Y-88261819D02*
X126780969Y-87261819D01*
X124812588Y-84769438D02*
X124717350Y-84721819D01*
X124717350Y-84721819D02*
X124574493Y-84721819D01*
X124574493Y-84721819D02*
X124431636Y-84769438D01*
X124431636Y-84769438D02*
X124336398Y-84864676D01*
X124336398Y-84864676D02*
X124288779Y-84959914D01*
X124288779Y-84959914D02*
X124241160Y-85150390D01*
X124241160Y-85150390D02*
X124241160Y-85293247D01*
X124241160Y-85293247D02*
X124288779Y-85483723D01*
X124288779Y-85483723D02*
X124336398Y-85578961D01*
X124336398Y-85578961D02*
X124431636Y-85674200D01*
X124431636Y-85674200D02*
X124574493Y-85721819D01*
X124574493Y-85721819D02*
X124669731Y-85721819D01*
X124669731Y-85721819D02*
X124812588Y-85674200D01*
X124812588Y-85674200D02*
X124860207Y-85626580D01*
X124860207Y-85626580D02*
X124860207Y-85293247D01*
X124860207Y-85293247D02*
X124669731Y-85293247D01*
X125288779Y-85721819D02*
X125288779Y-84721819D01*
X125288779Y-84721819D02*
X125860207Y-85721819D01*
X125860207Y-85721819D02*
X125860207Y-84721819D01*
X126336398Y-85721819D02*
X126336398Y-84721819D01*
X126336398Y-84721819D02*
X126574493Y-84721819D01*
X126574493Y-84721819D02*
X126717350Y-84769438D01*
X126717350Y-84769438D02*
X126812588Y-84864676D01*
X126812588Y-84864676D02*
X126860207Y-84959914D01*
X126860207Y-84959914D02*
X126907826Y-85150390D01*
X126907826Y-85150390D02*
X126907826Y-85293247D01*
X126907826Y-85293247D02*
X126860207Y-85483723D01*
X126860207Y-85483723D02*
X126812588Y-85578961D01*
X126812588Y-85578961D02*
X126717350Y-85674200D01*
X126717350Y-85674200D02*
X126574493Y-85721819D01*
X126574493Y-85721819D02*
X126336398Y-85721819D01*
X125257160Y-70593057D02*
X125304779Y-70545438D01*
X125304779Y-70545438D02*
X125400017Y-70497819D01*
X125400017Y-70497819D02*
X125638112Y-70497819D01*
X125638112Y-70497819D02*
X125733350Y-70545438D01*
X125733350Y-70545438D02*
X125780969Y-70593057D01*
X125780969Y-70593057D02*
X125828588Y-70688295D01*
X125828588Y-70688295D02*
X125828588Y-70783533D01*
X125828588Y-70783533D02*
X125780969Y-70926390D01*
X125780969Y-70926390D02*
X125209541Y-71497819D01*
X125209541Y-71497819D02*
X125828588Y-71497819D01*
X126590493Y-70974009D02*
X126733350Y-71021628D01*
X126733350Y-71021628D02*
X126780969Y-71069247D01*
X126780969Y-71069247D02*
X126828588Y-71164485D01*
X126828588Y-71164485D02*
X126828588Y-71307342D01*
X126828588Y-71307342D02*
X126780969Y-71402580D01*
X126780969Y-71402580D02*
X126733350Y-71450200D01*
X126733350Y-71450200D02*
X126638112Y-71497819D01*
X126638112Y-71497819D02*
X126257160Y-71497819D01*
X126257160Y-71497819D02*
X126257160Y-70497819D01*
X126257160Y-70497819D02*
X126590493Y-70497819D01*
X126590493Y-70497819D02*
X126685731Y-70545438D01*
X126685731Y-70545438D02*
X126733350Y-70593057D01*
X126733350Y-70593057D02*
X126780969Y-70688295D01*
X126780969Y-70688295D02*
X126780969Y-70783533D01*
X126780969Y-70783533D02*
X126733350Y-70878771D01*
X126733350Y-70878771D02*
X126685731Y-70926390D01*
X126685731Y-70926390D02*
X126590493Y-70974009D01*
X126590493Y-70974009D02*
X126257160Y-70974009D01*
X118716588Y-77847819D02*
X118145160Y-77847819D01*
X118430874Y-77847819D02*
X118430874Y-76847819D01*
X118430874Y-76847819D02*
X118335636Y-76990676D01*
X118335636Y-76990676D02*
X118240398Y-77085914D01*
X118240398Y-77085914D02*
X118145160Y-77133533D01*
X119097541Y-77562104D02*
X119573731Y-77562104D01*
X119002303Y-77847819D02*
X119335636Y-76847819D01*
X119335636Y-76847819D02*
X119668969Y-77847819D01*
X116017922Y-66941819D02*
X116351255Y-67941819D01*
X116351255Y-67941819D02*
X116684588Y-66941819D01*
X117017922Y-67941819D02*
X117017922Y-66941819D01*
X117017922Y-66941819D02*
X117351255Y-67656104D01*
X117351255Y-67656104D02*
X117684588Y-66941819D01*
X117684588Y-66941819D02*
X117684588Y-67941819D01*
X118351255Y-66941819D02*
X118541731Y-66941819D01*
X118541731Y-66941819D02*
X118636969Y-66989438D01*
X118636969Y-66989438D02*
X118732207Y-67084676D01*
X118732207Y-67084676D02*
X118779826Y-67275152D01*
X118779826Y-67275152D02*
X118779826Y-67608485D01*
X118779826Y-67608485D02*
X118732207Y-67798961D01*
X118732207Y-67798961D02*
X118636969Y-67894200D01*
X118636969Y-67894200D02*
X118541731Y-67941819D01*
X118541731Y-67941819D02*
X118351255Y-67941819D01*
X118351255Y-67941819D02*
X118256017Y-67894200D01*
X118256017Y-67894200D02*
X118160779Y-67798961D01*
X118160779Y-67798961D02*
X118113160Y-67608485D01*
X118113160Y-67608485D02*
X118113160Y-67275152D01*
X118113160Y-67275152D02*
X118160779Y-67084676D01*
X118160779Y-67084676D02*
X118256017Y-66989438D01*
X118256017Y-66989438D02*
X118351255Y-66941819D01*
X119065541Y-66941819D02*
X119636969Y-66941819D01*
X119351255Y-67941819D02*
X119351255Y-66941819D01*
X110017160Y-82880200D02*
X110160017Y-82927819D01*
X110160017Y-82927819D02*
X110398112Y-82927819D01*
X110398112Y-82927819D02*
X110493350Y-82880200D01*
X110493350Y-82880200D02*
X110540969Y-82832580D01*
X110540969Y-82832580D02*
X110588588Y-82737342D01*
X110588588Y-82737342D02*
X110588588Y-82642104D01*
X110588588Y-82642104D02*
X110540969Y-82546866D01*
X110540969Y-82546866D02*
X110493350Y-82499247D01*
X110493350Y-82499247D02*
X110398112Y-82451628D01*
X110398112Y-82451628D02*
X110207636Y-82404009D01*
X110207636Y-82404009D02*
X110112398Y-82356390D01*
X110112398Y-82356390D02*
X110064779Y-82308771D01*
X110064779Y-82308771D02*
X110017160Y-82213533D01*
X110017160Y-82213533D02*
X110017160Y-82118295D01*
X110017160Y-82118295D02*
X110064779Y-82023057D01*
X110064779Y-82023057D02*
X110112398Y-81975438D01*
X110112398Y-81975438D02*
X110207636Y-81927819D01*
X110207636Y-81927819D02*
X110445731Y-81927819D01*
X110445731Y-81927819D02*
X110588588Y-81975438D01*
X110874303Y-82261152D02*
X111255255Y-82261152D01*
X111017160Y-81927819D02*
X111017160Y-82784961D01*
X111017160Y-82784961D02*
X111064779Y-82880200D01*
X111064779Y-82880200D02*
X111160017Y-82927819D01*
X111160017Y-82927819D02*
X111255255Y-82927819D01*
X111969541Y-82880200D02*
X111874303Y-82927819D01*
X111874303Y-82927819D02*
X111683827Y-82927819D01*
X111683827Y-82927819D02*
X111588589Y-82880200D01*
X111588589Y-82880200D02*
X111540970Y-82784961D01*
X111540970Y-82784961D02*
X111540970Y-82404009D01*
X111540970Y-82404009D02*
X111588589Y-82308771D01*
X111588589Y-82308771D02*
X111683827Y-82261152D01*
X111683827Y-82261152D02*
X111874303Y-82261152D01*
X111874303Y-82261152D02*
X111969541Y-82308771D01*
X111969541Y-82308771D02*
X112017160Y-82404009D01*
X112017160Y-82404009D02*
X112017160Y-82499247D01*
X112017160Y-82499247D02*
X111540970Y-82594485D01*
X112445732Y-82261152D02*
X112445732Y-83261152D01*
X112445732Y-82308771D02*
X112540970Y-82261152D01*
X112540970Y-82261152D02*
X112731446Y-82261152D01*
X112731446Y-82261152D02*
X112826684Y-82308771D01*
X112826684Y-82308771D02*
X112874303Y-82356390D01*
X112874303Y-82356390D02*
X112921922Y-82451628D01*
X112921922Y-82451628D02*
X112921922Y-82737342D01*
X112921922Y-82737342D02*
X112874303Y-82832580D01*
X112874303Y-82832580D02*
X112826684Y-82880200D01*
X112826684Y-82880200D02*
X112731446Y-82927819D01*
X112731446Y-82927819D02*
X112540970Y-82927819D01*
X112540970Y-82927819D02*
X112445732Y-82880200D01*
X110636207Y-78101819D02*
X110302874Y-77625628D01*
X110064779Y-78101819D02*
X110064779Y-77101819D01*
X110064779Y-77101819D02*
X110445731Y-77101819D01*
X110445731Y-77101819D02*
X110540969Y-77149438D01*
X110540969Y-77149438D02*
X110588588Y-77197057D01*
X110588588Y-77197057D02*
X110636207Y-77292295D01*
X110636207Y-77292295D02*
X110636207Y-77435152D01*
X110636207Y-77435152D02*
X110588588Y-77530390D01*
X110588588Y-77530390D02*
X110540969Y-77578009D01*
X110540969Y-77578009D02*
X110445731Y-77625628D01*
X110445731Y-77625628D02*
X110064779Y-77625628D01*
X111017160Y-78054200D02*
X111160017Y-78101819D01*
X111160017Y-78101819D02*
X111398112Y-78101819D01*
X111398112Y-78101819D02*
X111493350Y-78054200D01*
X111493350Y-78054200D02*
X111540969Y-78006580D01*
X111540969Y-78006580D02*
X111588588Y-77911342D01*
X111588588Y-77911342D02*
X111588588Y-77816104D01*
X111588588Y-77816104D02*
X111540969Y-77720866D01*
X111540969Y-77720866D02*
X111493350Y-77673247D01*
X111493350Y-77673247D02*
X111398112Y-77625628D01*
X111398112Y-77625628D02*
X111207636Y-77578009D01*
X111207636Y-77578009D02*
X111112398Y-77530390D01*
X111112398Y-77530390D02*
X111064779Y-77482771D01*
X111064779Y-77482771D02*
X111017160Y-77387533D01*
X111017160Y-77387533D02*
X111017160Y-77292295D01*
X111017160Y-77292295D02*
X111064779Y-77197057D01*
X111064779Y-77197057D02*
X111112398Y-77149438D01*
X111112398Y-77149438D02*
X111207636Y-77101819D01*
X111207636Y-77101819D02*
X111445731Y-77101819D01*
X111445731Y-77101819D02*
X111588588Y-77149438D01*
X111874303Y-77101819D02*
X112445731Y-77101819D01*
X112160017Y-78101819D02*
X112160017Y-77101819D01*
X117891160Y-72117057D02*
X117938779Y-72069438D01*
X117938779Y-72069438D02*
X118034017Y-72021819D01*
X118034017Y-72021819D02*
X118272112Y-72021819D01*
X118272112Y-72021819D02*
X118367350Y-72069438D01*
X118367350Y-72069438D02*
X118414969Y-72117057D01*
X118414969Y-72117057D02*
X118462588Y-72212295D01*
X118462588Y-72212295D02*
X118462588Y-72307533D01*
X118462588Y-72307533D02*
X118414969Y-72450390D01*
X118414969Y-72450390D02*
X117843541Y-73021819D01*
X117843541Y-73021819D02*
X118462588Y-73021819D01*
X119224493Y-72498009D02*
X119367350Y-72545628D01*
X119367350Y-72545628D02*
X119414969Y-72593247D01*
X119414969Y-72593247D02*
X119462588Y-72688485D01*
X119462588Y-72688485D02*
X119462588Y-72831342D01*
X119462588Y-72831342D02*
X119414969Y-72926580D01*
X119414969Y-72926580D02*
X119367350Y-72974200D01*
X119367350Y-72974200D02*
X119272112Y-73021819D01*
X119272112Y-73021819D02*
X118891160Y-73021819D01*
X118891160Y-73021819D02*
X118891160Y-72021819D01*
X118891160Y-72021819D02*
X119224493Y-72021819D01*
X119224493Y-72021819D02*
X119319731Y-72069438D01*
X119319731Y-72069438D02*
X119367350Y-72117057D01*
X119367350Y-72117057D02*
X119414969Y-72212295D01*
X119414969Y-72212295D02*
X119414969Y-72307533D01*
X119414969Y-72307533D02*
X119367350Y-72402771D01*
X119367350Y-72402771D02*
X119319731Y-72450390D01*
X119319731Y-72450390D02*
X119224493Y-72498009D01*
X119224493Y-72498009D02*
X118891160Y-72498009D01*
X121599438Y-106327411D02*
X121551819Y-106422649D01*
X121551819Y-106422649D02*
X121551819Y-106565506D01*
X121551819Y-106565506D02*
X121599438Y-106708363D01*
X121599438Y-106708363D02*
X121694676Y-106803601D01*
X121694676Y-106803601D02*
X121789914Y-106851220D01*
X121789914Y-106851220D02*
X121980390Y-106898839D01*
X121980390Y-106898839D02*
X122123247Y-106898839D01*
X122123247Y-106898839D02*
X122313723Y-106851220D01*
X122313723Y-106851220D02*
X122408961Y-106803601D01*
X122408961Y-106803601D02*
X122504200Y-106708363D01*
X122504200Y-106708363D02*
X122551819Y-106565506D01*
X122551819Y-106565506D02*
X122551819Y-106470268D01*
X122551819Y-106470268D02*
X122504200Y-106327411D01*
X122504200Y-106327411D02*
X122456580Y-106279792D01*
X122456580Y-106279792D02*
X122123247Y-106279792D01*
X122123247Y-106279792D02*
X122123247Y-106470268D01*
X122551819Y-105851220D02*
X121551819Y-105851220D01*
X121551819Y-105851220D02*
X122551819Y-105279792D01*
X122551819Y-105279792D02*
X121551819Y-105279792D01*
X122551819Y-104803601D02*
X121551819Y-104803601D01*
X121551819Y-104803601D02*
X121551819Y-104565506D01*
X121551819Y-104565506D02*
X121599438Y-104422649D01*
X121599438Y-104422649D02*
X121694676Y-104327411D01*
X121694676Y-104327411D02*
X121789914Y-104279792D01*
X121789914Y-104279792D02*
X121980390Y-104232173D01*
X121980390Y-104232173D02*
X122123247Y-104232173D01*
X122123247Y-104232173D02*
X122313723Y-104279792D01*
X122313723Y-104279792D02*
X122408961Y-104327411D01*
X122408961Y-104327411D02*
X122504200Y-104422649D01*
X122504200Y-104422649D02*
X122551819Y-104565506D01*
X122551819Y-104565506D02*
X122551819Y-104803601D01*
X125257160Y-68307057D02*
X125304779Y-68259438D01*
X125304779Y-68259438D02*
X125400017Y-68211819D01*
X125400017Y-68211819D02*
X125638112Y-68211819D01*
X125638112Y-68211819D02*
X125733350Y-68259438D01*
X125733350Y-68259438D02*
X125780969Y-68307057D01*
X125780969Y-68307057D02*
X125828588Y-68402295D01*
X125828588Y-68402295D02*
X125828588Y-68497533D01*
X125828588Y-68497533D02*
X125780969Y-68640390D01*
X125780969Y-68640390D02*
X125209541Y-69211819D01*
X125209541Y-69211819D02*
X125828588Y-69211819D01*
X126209541Y-68926104D02*
X126685731Y-68926104D01*
X126114303Y-69211819D02*
X126447636Y-68211819D01*
X126447636Y-68211819D02*
X126780969Y-69211819D01*
X121551819Y-100342458D02*
X121551819Y-99675792D01*
X121551819Y-99675792D02*
X122551819Y-100104363D01*
X122456580Y-99294839D02*
X122504200Y-99247220D01*
X122504200Y-99247220D02*
X122551819Y-99294839D01*
X122551819Y-99294839D02*
X122504200Y-99342458D01*
X122504200Y-99342458D02*
X122456580Y-99294839D01*
X122456580Y-99294839D02*
X122551819Y-99294839D01*
X121551819Y-98342459D02*
X121551819Y-98818649D01*
X121551819Y-98818649D02*
X122028009Y-98866268D01*
X122028009Y-98866268D02*
X121980390Y-98818649D01*
X121980390Y-98818649D02*
X121932771Y-98723411D01*
X121932771Y-98723411D02*
X121932771Y-98485316D01*
X121932771Y-98485316D02*
X121980390Y-98390078D01*
X121980390Y-98390078D02*
X122028009Y-98342459D01*
X122028009Y-98342459D02*
X122123247Y-98294840D01*
X122123247Y-98294840D02*
X122361342Y-98294840D01*
X122361342Y-98294840D02*
X122456580Y-98342459D01*
X122456580Y-98342459D02*
X122504200Y-98390078D01*
X122504200Y-98390078D02*
X122551819Y-98485316D01*
X122551819Y-98485316D02*
X122551819Y-98723411D01*
X122551819Y-98723411D02*
X122504200Y-98818649D01*
X122504200Y-98818649D02*
X122456580Y-98866268D01*
X121551819Y-98009125D02*
X122551819Y-97675792D01*
X122551819Y-97675792D02*
X121551819Y-97342459D01*
X124241160Y-82880200D02*
X124384017Y-82927819D01*
X124384017Y-82927819D02*
X124622112Y-82927819D01*
X124622112Y-82927819D02*
X124717350Y-82880200D01*
X124717350Y-82880200D02*
X124764969Y-82832580D01*
X124764969Y-82832580D02*
X124812588Y-82737342D01*
X124812588Y-82737342D02*
X124812588Y-82642104D01*
X124812588Y-82642104D02*
X124764969Y-82546866D01*
X124764969Y-82546866D02*
X124717350Y-82499247D01*
X124717350Y-82499247D02*
X124622112Y-82451628D01*
X124622112Y-82451628D02*
X124431636Y-82404009D01*
X124431636Y-82404009D02*
X124336398Y-82356390D01*
X124336398Y-82356390D02*
X124288779Y-82308771D01*
X124288779Y-82308771D02*
X124241160Y-82213533D01*
X124241160Y-82213533D02*
X124241160Y-82118295D01*
X124241160Y-82118295D02*
X124288779Y-82023057D01*
X124288779Y-82023057D02*
X124336398Y-81975438D01*
X124336398Y-81975438D02*
X124431636Y-81927819D01*
X124431636Y-81927819D02*
X124669731Y-81927819D01*
X124669731Y-81927819D02*
X124812588Y-81975438D01*
X125241160Y-82927819D02*
X125241160Y-81927819D01*
X125241160Y-81927819D02*
X125479255Y-81927819D01*
X125479255Y-81927819D02*
X125622112Y-81975438D01*
X125622112Y-81975438D02*
X125717350Y-82070676D01*
X125717350Y-82070676D02*
X125764969Y-82165914D01*
X125764969Y-82165914D02*
X125812588Y-82356390D01*
X125812588Y-82356390D02*
X125812588Y-82499247D01*
X125812588Y-82499247D02*
X125764969Y-82689723D01*
X125764969Y-82689723D02*
X125717350Y-82784961D01*
X125717350Y-82784961D02*
X125622112Y-82880200D01*
X125622112Y-82880200D02*
X125479255Y-82927819D01*
X125479255Y-82927819D02*
X125241160Y-82927819D01*
X126193541Y-82642104D02*
X126669731Y-82642104D01*
X126098303Y-82927819D02*
X126431636Y-81927819D01*
X126431636Y-81927819D02*
X126764969Y-82927819D01*
X118716588Y-80387819D02*
X118145160Y-80387819D01*
X118430874Y-80387819D02*
X118430874Y-79387819D01*
X118430874Y-79387819D02*
X118335636Y-79530676D01*
X118335636Y-79530676D02*
X118240398Y-79625914D01*
X118240398Y-79625914D02*
X118145160Y-79673533D01*
X119478493Y-79864009D02*
X119621350Y-79911628D01*
X119621350Y-79911628D02*
X119668969Y-79959247D01*
X119668969Y-79959247D02*
X119716588Y-80054485D01*
X119716588Y-80054485D02*
X119716588Y-80197342D01*
X119716588Y-80197342D02*
X119668969Y-80292580D01*
X119668969Y-80292580D02*
X119621350Y-80340200D01*
X119621350Y-80340200D02*
X119526112Y-80387819D01*
X119526112Y-80387819D02*
X119145160Y-80387819D01*
X119145160Y-80387819D02*
X119145160Y-79387819D01*
X119145160Y-79387819D02*
X119478493Y-79387819D01*
X119478493Y-79387819D02*
X119573731Y-79435438D01*
X119573731Y-79435438D02*
X119621350Y-79483057D01*
X119621350Y-79483057D02*
X119668969Y-79578295D01*
X119668969Y-79578295D02*
X119668969Y-79673533D01*
X119668969Y-79673533D02*
X119621350Y-79768771D01*
X119621350Y-79768771D02*
X119573731Y-79816390D01*
X119573731Y-79816390D02*
X119478493Y-79864009D01*
X119478493Y-79864009D02*
X119145160Y-79864009D01*
X118145160Y-74403057D02*
X118192779Y-74355438D01*
X118192779Y-74355438D02*
X118288017Y-74307819D01*
X118288017Y-74307819D02*
X118526112Y-74307819D01*
X118526112Y-74307819D02*
X118621350Y-74355438D01*
X118621350Y-74355438D02*
X118668969Y-74403057D01*
X118668969Y-74403057D02*
X118716588Y-74498295D01*
X118716588Y-74498295D02*
X118716588Y-74593533D01*
X118716588Y-74593533D02*
X118668969Y-74736390D01*
X118668969Y-74736390D02*
X118097541Y-75307819D01*
X118097541Y-75307819D02*
X118716588Y-75307819D01*
X119097541Y-75022104D02*
X119573731Y-75022104D01*
X119002303Y-75307819D02*
X119335636Y-74307819D01*
X119335636Y-74307819D02*
X119668969Y-75307819D01*
X110064779Y-85467819D02*
X110064779Y-84467819D01*
X110064779Y-84467819D02*
X110302874Y-84467819D01*
X110302874Y-84467819D02*
X110445731Y-84515438D01*
X110445731Y-84515438D02*
X110540969Y-84610676D01*
X110540969Y-84610676D02*
X110588588Y-84705914D01*
X110588588Y-84705914D02*
X110636207Y-84896390D01*
X110636207Y-84896390D02*
X110636207Y-85039247D01*
X110636207Y-85039247D02*
X110588588Y-85229723D01*
X110588588Y-85229723D02*
X110540969Y-85324961D01*
X110540969Y-85324961D02*
X110445731Y-85420200D01*
X110445731Y-85420200D02*
X110302874Y-85467819D01*
X110302874Y-85467819D02*
X110064779Y-85467819D01*
X111064779Y-85467819D02*
X111064779Y-84801152D01*
X111064779Y-84467819D02*
X111017160Y-84515438D01*
X111017160Y-84515438D02*
X111064779Y-84563057D01*
X111064779Y-84563057D02*
X111112398Y-84515438D01*
X111112398Y-84515438D02*
X111064779Y-84467819D01*
X111064779Y-84467819D02*
X111064779Y-84563057D01*
X111540969Y-85467819D02*
X111540969Y-84801152D01*
X111540969Y-84991628D02*
X111588588Y-84896390D01*
X111588588Y-84896390D02*
X111636207Y-84848771D01*
X111636207Y-84848771D02*
X111731445Y-84801152D01*
X111731445Y-84801152D02*
X111826683Y-84801152D01*
X117192588Y-69275438D02*
X117097350Y-69227819D01*
X117097350Y-69227819D02*
X116954493Y-69227819D01*
X116954493Y-69227819D02*
X116811636Y-69275438D01*
X116811636Y-69275438D02*
X116716398Y-69370676D01*
X116716398Y-69370676D02*
X116668779Y-69465914D01*
X116668779Y-69465914D02*
X116621160Y-69656390D01*
X116621160Y-69656390D02*
X116621160Y-69799247D01*
X116621160Y-69799247D02*
X116668779Y-69989723D01*
X116668779Y-69989723D02*
X116716398Y-70084961D01*
X116716398Y-70084961D02*
X116811636Y-70180200D01*
X116811636Y-70180200D02*
X116954493Y-70227819D01*
X116954493Y-70227819D02*
X117049731Y-70227819D01*
X117049731Y-70227819D02*
X117192588Y-70180200D01*
X117192588Y-70180200D02*
X117240207Y-70132580D01*
X117240207Y-70132580D02*
X117240207Y-69799247D01*
X117240207Y-69799247D02*
X117049731Y-69799247D01*
X117668779Y-70227819D02*
X117668779Y-69227819D01*
X117668779Y-69227819D02*
X118240207Y-70227819D01*
X118240207Y-70227819D02*
X118240207Y-69227819D01*
X118716398Y-70227819D02*
X118716398Y-69227819D01*
X118716398Y-69227819D02*
X118954493Y-69227819D01*
X118954493Y-69227819D02*
X119097350Y-69275438D01*
X119097350Y-69275438D02*
X119192588Y-69370676D01*
X119192588Y-69370676D02*
X119240207Y-69465914D01*
X119240207Y-69465914D02*
X119287826Y-69656390D01*
X119287826Y-69656390D02*
X119287826Y-69799247D01*
X119287826Y-69799247D02*
X119240207Y-69989723D01*
X119240207Y-69989723D02*
X119192588Y-70084961D01*
X119192588Y-70084961D02*
X119097350Y-70180200D01*
X119097350Y-70180200D02*
X118954493Y-70227819D01*
X118954493Y-70227819D02*
X118716398Y-70227819D01*
X84328095Y-65172819D02*
X84328095Y-65982342D01*
X84328095Y-65982342D02*
X84375714Y-66077580D01*
X84375714Y-66077580D02*
X84423333Y-66125200D01*
X84423333Y-66125200D02*
X84518571Y-66172819D01*
X84518571Y-66172819D02*
X84709047Y-66172819D01*
X84709047Y-66172819D02*
X84804285Y-66125200D01*
X84804285Y-66125200D02*
X84851904Y-66077580D01*
X84851904Y-66077580D02*
X84899523Y-65982342D01*
X84899523Y-65982342D02*
X84899523Y-65172819D01*
X85899523Y-66172819D02*
X85328095Y-66172819D01*
X85613809Y-66172819D02*
X85613809Y-65172819D01*
X85613809Y-65172819D02*
X85518571Y-65315676D01*
X85518571Y-65315676D02*
X85423333Y-65410914D01*
X85423333Y-65410914D02*
X85328095Y-65458533D01*
X85021009Y-97543237D02*
X85021009Y-97209904D01*
X85544819Y-97067047D02*
X85544819Y-97543237D01*
X85544819Y-97543237D02*
X84544819Y-97543237D01*
X84544819Y-97543237D02*
X84544819Y-97067047D01*
X85497200Y-96686094D02*
X85544819Y-96543237D01*
X85544819Y-96543237D02*
X85544819Y-96305142D01*
X85544819Y-96305142D02*
X85497200Y-96209904D01*
X85497200Y-96209904D02*
X85449580Y-96162285D01*
X85449580Y-96162285D02*
X85354342Y-96114666D01*
X85354342Y-96114666D02*
X85259104Y-96114666D01*
X85259104Y-96114666D02*
X85163866Y-96162285D01*
X85163866Y-96162285D02*
X85116247Y-96209904D01*
X85116247Y-96209904D02*
X85068628Y-96305142D01*
X85068628Y-96305142D02*
X85021009Y-96495618D01*
X85021009Y-96495618D02*
X84973390Y-96590856D01*
X84973390Y-96590856D02*
X84925771Y-96638475D01*
X84925771Y-96638475D02*
X84830533Y-96686094D01*
X84830533Y-96686094D02*
X84735295Y-96686094D01*
X84735295Y-96686094D02*
X84640057Y-96638475D01*
X84640057Y-96638475D02*
X84592438Y-96590856D01*
X84592438Y-96590856D02*
X84544819Y-96495618D01*
X84544819Y-96495618D02*
X84544819Y-96257523D01*
X84544819Y-96257523D02*
X84592438Y-96114666D01*
X85544819Y-95686094D02*
X84544819Y-95686094D01*
X84544819Y-95686094D02*
X84544819Y-95305142D01*
X84544819Y-95305142D02*
X84592438Y-95209904D01*
X84592438Y-95209904D02*
X84640057Y-95162285D01*
X84640057Y-95162285D02*
X84735295Y-95114666D01*
X84735295Y-95114666D02*
X84878152Y-95114666D01*
X84878152Y-95114666D02*
X84973390Y-95162285D01*
X84973390Y-95162285D02*
X85021009Y-95209904D01*
X85021009Y-95209904D02*
X85068628Y-95305142D01*
X85068628Y-95305142D02*
X85068628Y-95686094D01*
X84544819Y-94781332D02*
X84544819Y-94162285D01*
X84544819Y-94162285D02*
X84925771Y-94495618D01*
X84925771Y-94495618D02*
X84925771Y-94352761D01*
X84925771Y-94352761D02*
X84973390Y-94257523D01*
X84973390Y-94257523D02*
X85021009Y-94209904D01*
X85021009Y-94209904D02*
X85116247Y-94162285D01*
X85116247Y-94162285D02*
X85354342Y-94162285D01*
X85354342Y-94162285D02*
X85449580Y-94209904D01*
X85449580Y-94209904D02*
X85497200Y-94257523D01*
X85497200Y-94257523D02*
X85544819Y-94352761D01*
X85544819Y-94352761D02*
X85544819Y-94638475D01*
X85544819Y-94638475D02*
X85497200Y-94733713D01*
X85497200Y-94733713D02*
X85449580Y-94781332D01*
X84640057Y-93781332D02*
X84592438Y-93733713D01*
X84592438Y-93733713D02*
X84544819Y-93638475D01*
X84544819Y-93638475D02*
X84544819Y-93400380D01*
X84544819Y-93400380D02*
X84592438Y-93305142D01*
X84592438Y-93305142D02*
X84640057Y-93257523D01*
X84640057Y-93257523D02*
X84735295Y-93209904D01*
X84735295Y-93209904D02*
X84830533Y-93209904D01*
X84830533Y-93209904D02*
X84973390Y-93257523D01*
X84973390Y-93257523D02*
X85544819Y-93828951D01*
X85544819Y-93828951D02*
X85544819Y-93209904D01*
X85163866Y-92781332D02*
X85163866Y-92019428D01*
X85544819Y-91543237D02*
X84544819Y-91543237D01*
X84544819Y-91543237D02*
X84544819Y-91305142D01*
X84544819Y-91305142D02*
X84592438Y-91162285D01*
X84592438Y-91162285D02*
X84687676Y-91067047D01*
X84687676Y-91067047D02*
X84782914Y-91019428D01*
X84782914Y-91019428D02*
X84973390Y-90971809D01*
X84973390Y-90971809D02*
X85116247Y-90971809D01*
X85116247Y-90971809D02*
X85306723Y-91019428D01*
X85306723Y-91019428D02*
X85401961Y-91067047D01*
X85401961Y-91067047D02*
X85497200Y-91162285D01*
X85497200Y-91162285D02*
X85544819Y-91305142D01*
X85544819Y-91305142D02*
X85544819Y-91543237D01*
X85497200Y-90162285D02*
X85544819Y-90257523D01*
X85544819Y-90257523D02*
X85544819Y-90447999D01*
X85544819Y-90447999D02*
X85497200Y-90543237D01*
X85497200Y-90543237D02*
X85401961Y-90590856D01*
X85401961Y-90590856D02*
X85021009Y-90590856D01*
X85021009Y-90590856D02*
X84925771Y-90543237D01*
X84925771Y-90543237D02*
X84878152Y-90447999D01*
X84878152Y-90447999D02*
X84878152Y-90257523D01*
X84878152Y-90257523D02*
X84925771Y-90162285D01*
X84925771Y-90162285D02*
X85021009Y-90114666D01*
X85021009Y-90114666D02*
X85116247Y-90114666D01*
X85116247Y-90114666D02*
X85211485Y-90590856D01*
X84878152Y-89781332D02*
X85544819Y-89543237D01*
X85544819Y-89543237D02*
X84878152Y-89305142D01*
X85544819Y-88924189D02*
X84544819Y-88924189D01*
X85544819Y-88352761D02*
X84973390Y-88781332D01*
X84544819Y-88352761D02*
X85116247Y-88924189D01*
X85544819Y-87924189D02*
X84878152Y-87924189D01*
X84544819Y-87924189D02*
X84592438Y-87971808D01*
X84592438Y-87971808D02*
X84640057Y-87924189D01*
X84640057Y-87924189D02*
X84592438Y-87876570D01*
X84592438Y-87876570D02*
X84544819Y-87924189D01*
X84544819Y-87924189D02*
X84640057Y-87924189D01*
X84878152Y-87590856D02*
X84878152Y-87209904D01*
X84544819Y-87447999D02*
X85401961Y-87447999D01*
X85401961Y-87447999D02*
X85497200Y-87400380D01*
X85497200Y-87400380D02*
X85544819Y-87305142D01*
X85544819Y-87305142D02*
X85544819Y-87209904D01*
X85449580Y-86305142D02*
X85497200Y-86352761D01*
X85497200Y-86352761D02*
X85544819Y-86495618D01*
X85544819Y-86495618D02*
X85544819Y-86590856D01*
X85544819Y-86590856D02*
X85497200Y-86733713D01*
X85497200Y-86733713D02*
X85401961Y-86828951D01*
X85401961Y-86828951D02*
X85306723Y-86876570D01*
X85306723Y-86876570D02*
X85116247Y-86924189D01*
X85116247Y-86924189D02*
X84973390Y-86924189D01*
X84973390Y-86924189D02*
X84782914Y-86876570D01*
X84782914Y-86876570D02*
X84687676Y-86828951D01*
X84687676Y-86828951D02*
X84592438Y-86733713D01*
X84592438Y-86733713D02*
X84544819Y-86590856D01*
X84544819Y-86590856D02*
X84544819Y-86495618D01*
X84544819Y-86495618D02*
X84592438Y-86352761D01*
X84592438Y-86352761D02*
X84640057Y-86305142D01*
X93821316Y-103027366D02*
X93754649Y-102994033D01*
X93754649Y-102994033D02*
X93654649Y-102994033D01*
X93654649Y-102994033D02*
X93554649Y-103027366D01*
X93554649Y-103027366D02*
X93487983Y-103094033D01*
X93487983Y-103094033D02*
X93454649Y-103160700D01*
X93454649Y-103160700D02*
X93421316Y-103294033D01*
X93421316Y-103294033D02*
X93421316Y-103394033D01*
X93421316Y-103394033D02*
X93454649Y-103527366D01*
X93454649Y-103527366D02*
X93487983Y-103594033D01*
X93487983Y-103594033D02*
X93554649Y-103660700D01*
X93554649Y-103660700D02*
X93654649Y-103694033D01*
X93654649Y-103694033D02*
X93721316Y-103694033D01*
X93721316Y-103694033D02*
X93821316Y-103660700D01*
X93821316Y-103660700D02*
X93854649Y-103627366D01*
X93854649Y-103627366D02*
X93854649Y-103394033D01*
X93854649Y-103394033D02*
X93721316Y-103394033D01*
X94154649Y-103694033D02*
X94154649Y-102994033D01*
X94154649Y-102994033D02*
X94421316Y-102994033D01*
X94421316Y-102994033D02*
X94487983Y-103027366D01*
X94487983Y-103027366D02*
X94521316Y-103060700D01*
X94521316Y-103060700D02*
X94554649Y-103127366D01*
X94554649Y-103127366D02*
X94554649Y-103227366D01*
X94554649Y-103227366D02*
X94521316Y-103294033D01*
X94521316Y-103294033D02*
X94487983Y-103327366D01*
X94487983Y-103327366D02*
X94421316Y-103360700D01*
X94421316Y-103360700D02*
X94154649Y-103360700D01*
X94854649Y-103694033D02*
X94854649Y-102994033D01*
X95321316Y-102994033D02*
X95454649Y-102994033D01*
X95454649Y-102994033D02*
X95521316Y-103027366D01*
X95521316Y-103027366D02*
X95587982Y-103094033D01*
X95587982Y-103094033D02*
X95621316Y-103227366D01*
X95621316Y-103227366D02*
X95621316Y-103460700D01*
X95621316Y-103460700D02*
X95587982Y-103594033D01*
X95587982Y-103594033D02*
X95521316Y-103660700D01*
X95521316Y-103660700D02*
X95454649Y-103694033D01*
X95454649Y-103694033D02*
X95321316Y-103694033D01*
X95321316Y-103694033D02*
X95254649Y-103660700D01*
X95254649Y-103660700D02*
X95187982Y-103594033D01*
X95187982Y-103594033D02*
X95154649Y-103460700D01*
X95154649Y-103460700D02*
X95154649Y-103227366D01*
X95154649Y-103227366D02*
X95187982Y-103094033D01*
X95187982Y-103094033D02*
X95254649Y-103027366D01*
X95254649Y-103027366D02*
X95321316Y-102994033D01*
X95887982Y-103060700D02*
X95921315Y-103027366D01*
X95921315Y-103027366D02*
X95987982Y-102994033D01*
X95987982Y-102994033D02*
X96154649Y-102994033D01*
X96154649Y-102994033D02*
X96221315Y-103027366D01*
X96221315Y-103027366D02*
X96254649Y-103060700D01*
X96254649Y-103060700D02*
X96287982Y-103127366D01*
X96287982Y-103127366D02*
X96287982Y-103194033D01*
X96287982Y-103194033D02*
X96254649Y-103294033D01*
X96254649Y-103294033D02*
X95854649Y-103694033D01*
X95854649Y-103694033D02*
X96287982Y-103694033D01*
X95221315Y-108774033D02*
X95221315Y-108074033D01*
X95221315Y-108074033D02*
X95387982Y-108074033D01*
X95387982Y-108074033D02*
X95487982Y-108107366D01*
X95487982Y-108107366D02*
X95554649Y-108174033D01*
X95554649Y-108174033D02*
X95587982Y-108240700D01*
X95587982Y-108240700D02*
X95621315Y-108374033D01*
X95621315Y-108374033D02*
X95621315Y-108474033D01*
X95621315Y-108474033D02*
X95587982Y-108607366D01*
X95587982Y-108607366D02*
X95554649Y-108674033D01*
X95554649Y-108674033D02*
X95487982Y-108740700D01*
X95487982Y-108740700D02*
X95387982Y-108774033D01*
X95387982Y-108774033D02*
X95221315Y-108774033D01*
X96287982Y-108774033D02*
X95887982Y-108774033D01*
X96087982Y-108774033D02*
X96087982Y-108074033D01*
X96087982Y-108074033D02*
X96021315Y-108174033D01*
X96021315Y-108174033D02*
X95954649Y-108240700D01*
X95954649Y-108240700D02*
X95887982Y-108274033D01*
X74292017Y-103027366D02*
X74225350Y-102994033D01*
X74225350Y-102994033D02*
X74125350Y-102994033D01*
X74125350Y-102994033D02*
X74025350Y-103027366D01*
X74025350Y-103027366D02*
X73958684Y-103094033D01*
X73958684Y-103094033D02*
X73925350Y-103160700D01*
X73925350Y-103160700D02*
X73892017Y-103294033D01*
X73892017Y-103294033D02*
X73892017Y-103394033D01*
X73892017Y-103394033D02*
X73925350Y-103527366D01*
X73925350Y-103527366D02*
X73958684Y-103594033D01*
X73958684Y-103594033D02*
X74025350Y-103660700D01*
X74025350Y-103660700D02*
X74125350Y-103694033D01*
X74125350Y-103694033D02*
X74192017Y-103694033D01*
X74192017Y-103694033D02*
X74292017Y-103660700D01*
X74292017Y-103660700D02*
X74325350Y-103627366D01*
X74325350Y-103627366D02*
X74325350Y-103394033D01*
X74325350Y-103394033D02*
X74192017Y-103394033D01*
X74625350Y-103694033D02*
X74625350Y-102994033D01*
X74625350Y-102994033D02*
X74892017Y-102994033D01*
X74892017Y-102994033D02*
X74958684Y-103027366D01*
X74958684Y-103027366D02*
X74992017Y-103060700D01*
X74992017Y-103060700D02*
X75025350Y-103127366D01*
X75025350Y-103127366D02*
X75025350Y-103227366D01*
X75025350Y-103227366D02*
X74992017Y-103294033D01*
X74992017Y-103294033D02*
X74958684Y-103327366D01*
X74958684Y-103327366D02*
X74892017Y-103360700D01*
X74892017Y-103360700D02*
X74625350Y-103360700D01*
X75325350Y-103694033D02*
X75325350Y-102994033D01*
X75792017Y-102994033D02*
X75925350Y-102994033D01*
X75925350Y-102994033D02*
X75992017Y-103027366D01*
X75992017Y-103027366D02*
X76058683Y-103094033D01*
X76058683Y-103094033D02*
X76092017Y-103227366D01*
X76092017Y-103227366D02*
X76092017Y-103460700D01*
X76092017Y-103460700D02*
X76058683Y-103594033D01*
X76058683Y-103594033D02*
X75992017Y-103660700D01*
X75992017Y-103660700D02*
X75925350Y-103694033D01*
X75925350Y-103694033D02*
X75792017Y-103694033D01*
X75792017Y-103694033D02*
X75725350Y-103660700D01*
X75725350Y-103660700D02*
X75658683Y-103594033D01*
X75658683Y-103594033D02*
X75625350Y-103460700D01*
X75625350Y-103460700D02*
X75625350Y-103227366D01*
X75625350Y-103227366D02*
X75658683Y-103094033D01*
X75658683Y-103094033D02*
X75725350Y-103027366D01*
X75725350Y-103027366D02*
X75792017Y-102994033D01*
X76758683Y-103694033D02*
X76358683Y-103694033D01*
X76558683Y-103694033D02*
X76558683Y-102994033D01*
X76558683Y-102994033D02*
X76492016Y-103094033D01*
X76492016Y-103094033D02*
X76425350Y-103160700D01*
X76425350Y-103160700D02*
X76358683Y-103194033D01*
X76992017Y-102994033D02*
X77425350Y-102994033D01*
X77425350Y-102994033D02*
X77192017Y-103260700D01*
X77192017Y-103260700D02*
X77292017Y-103260700D01*
X77292017Y-103260700D02*
X77358683Y-103294033D01*
X77358683Y-103294033D02*
X77392017Y-103327366D01*
X77392017Y-103327366D02*
X77425350Y-103394033D01*
X77425350Y-103394033D02*
X77425350Y-103560700D01*
X77425350Y-103560700D02*
X77392017Y-103627366D01*
X77392017Y-103627366D02*
X77358683Y-103660700D01*
X77358683Y-103660700D02*
X77292017Y-103694033D01*
X77292017Y-103694033D02*
X77092017Y-103694033D01*
X77092017Y-103694033D02*
X77025350Y-103660700D01*
X77025350Y-103660700D02*
X76992017Y-103627366D01*
X78225350Y-102960700D02*
X77625350Y-103860700D01*
X78458683Y-103694033D02*
X78458683Y-102994033D01*
X78458683Y-102994033D02*
X78692017Y-103494033D01*
X78692017Y-103494033D02*
X78925350Y-102994033D01*
X78925350Y-102994033D02*
X78925350Y-103694033D01*
X79158683Y-102994033D02*
X79558683Y-102994033D01*
X79358683Y-103694033D02*
X79358683Y-102994033D01*
X80192016Y-103627366D02*
X80158683Y-103660700D01*
X80158683Y-103660700D02*
X80058683Y-103694033D01*
X80058683Y-103694033D02*
X79992016Y-103694033D01*
X79992016Y-103694033D02*
X79892016Y-103660700D01*
X79892016Y-103660700D02*
X79825350Y-103594033D01*
X79825350Y-103594033D02*
X79792016Y-103527366D01*
X79792016Y-103527366D02*
X79758683Y-103394033D01*
X79758683Y-103394033D02*
X79758683Y-103294033D01*
X79758683Y-103294033D02*
X79792016Y-103160700D01*
X79792016Y-103160700D02*
X79825350Y-103094033D01*
X79825350Y-103094033D02*
X79892016Y-103027366D01*
X79892016Y-103027366D02*
X79992016Y-102994033D01*
X79992016Y-102994033D02*
X80058683Y-102994033D01*
X80058683Y-102994033D02*
X80158683Y-103027366D01*
X80158683Y-103027366D02*
X80192016Y-103060700D01*
X80492016Y-103694033D02*
X80492016Y-102994033D01*
X80892016Y-103694033D02*
X80592016Y-103294033D01*
X80892016Y-102994033D02*
X80492016Y-103394033D01*
X93821316Y-100487366D02*
X93754649Y-100454033D01*
X93754649Y-100454033D02*
X93654649Y-100454033D01*
X93654649Y-100454033D02*
X93554649Y-100487366D01*
X93554649Y-100487366D02*
X93487983Y-100554033D01*
X93487983Y-100554033D02*
X93454649Y-100620700D01*
X93454649Y-100620700D02*
X93421316Y-100754033D01*
X93421316Y-100754033D02*
X93421316Y-100854033D01*
X93421316Y-100854033D02*
X93454649Y-100987366D01*
X93454649Y-100987366D02*
X93487983Y-101054033D01*
X93487983Y-101054033D02*
X93554649Y-101120700D01*
X93554649Y-101120700D02*
X93654649Y-101154033D01*
X93654649Y-101154033D02*
X93721316Y-101154033D01*
X93721316Y-101154033D02*
X93821316Y-101120700D01*
X93821316Y-101120700D02*
X93854649Y-101087366D01*
X93854649Y-101087366D02*
X93854649Y-100854033D01*
X93854649Y-100854033D02*
X93721316Y-100854033D01*
X94154649Y-101154033D02*
X94154649Y-100454033D01*
X94154649Y-100454033D02*
X94421316Y-100454033D01*
X94421316Y-100454033D02*
X94487983Y-100487366D01*
X94487983Y-100487366D02*
X94521316Y-100520700D01*
X94521316Y-100520700D02*
X94554649Y-100587366D01*
X94554649Y-100587366D02*
X94554649Y-100687366D01*
X94554649Y-100687366D02*
X94521316Y-100754033D01*
X94521316Y-100754033D02*
X94487983Y-100787366D01*
X94487983Y-100787366D02*
X94421316Y-100820700D01*
X94421316Y-100820700D02*
X94154649Y-100820700D01*
X94854649Y-101154033D02*
X94854649Y-100454033D01*
X95321316Y-100454033D02*
X95454649Y-100454033D01*
X95454649Y-100454033D02*
X95521316Y-100487366D01*
X95521316Y-100487366D02*
X95587982Y-100554033D01*
X95587982Y-100554033D02*
X95621316Y-100687366D01*
X95621316Y-100687366D02*
X95621316Y-100920700D01*
X95621316Y-100920700D02*
X95587982Y-101054033D01*
X95587982Y-101054033D02*
X95521316Y-101120700D01*
X95521316Y-101120700D02*
X95454649Y-101154033D01*
X95454649Y-101154033D02*
X95321316Y-101154033D01*
X95321316Y-101154033D02*
X95254649Y-101120700D01*
X95254649Y-101120700D02*
X95187982Y-101054033D01*
X95187982Y-101054033D02*
X95154649Y-100920700D01*
X95154649Y-100920700D02*
X95154649Y-100687366D01*
X95154649Y-100687366D02*
X95187982Y-100554033D01*
X95187982Y-100554033D02*
X95254649Y-100487366D01*
X95254649Y-100487366D02*
X95321316Y-100454033D01*
X96054649Y-100454033D02*
X96121315Y-100454033D01*
X96121315Y-100454033D02*
X96187982Y-100487366D01*
X96187982Y-100487366D02*
X96221315Y-100520700D01*
X96221315Y-100520700D02*
X96254649Y-100587366D01*
X96254649Y-100587366D02*
X96287982Y-100720700D01*
X96287982Y-100720700D02*
X96287982Y-100887366D01*
X96287982Y-100887366D02*
X96254649Y-101020700D01*
X96254649Y-101020700D02*
X96221315Y-101087366D01*
X96221315Y-101087366D02*
X96187982Y-101120700D01*
X96187982Y-101120700D02*
X96121315Y-101154033D01*
X96121315Y-101154033D02*
X96054649Y-101154033D01*
X96054649Y-101154033D02*
X95987982Y-101120700D01*
X95987982Y-101120700D02*
X95954649Y-101087366D01*
X95954649Y-101087366D02*
X95921315Y-101020700D01*
X95921315Y-101020700D02*
X95887982Y-100887366D01*
X95887982Y-100887366D02*
X95887982Y-100720700D01*
X95887982Y-100720700D02*
X95921315Y-100587366D01*
X95921315Y-100587366D02*
X95954649Y-100520700D01*
X95954649Y-100520700D02*
X95987982Y-100487366D01*
X95987982Y-100487366D02*
X96054649Y-100454033D01*
X93154649Y-80167366D02*
X93087982Y-80134033D01*
X93087982Y-80134033D02*
X92987982Y-80134033D01*
X92987982Y-80134033D02*
X92887982Y-80167366D01*
X92887982Y-80167366D02*
X92821316Y-80234033D01*
X92821316Y-80234033D02*
X92787982Y-80300700D01*
X92787982Y-80300700D02*
X92754649Y-80434033D01*
X92754649Y-80434033D02*
X92754649Y-80534033D01*
X92754649Y-80534033D02*
X92787982Y-80667366D01*
X92787982Y-80667366D02*
X92821316Y-80734033D01*
X92821316Y-80734033D02*
X92887982Y-80800700D01*
X92887982Y-80800700D02*
X92987982Y-80834033D01*
X92987982Y-80834033D02*
X93054649Y-80834033D01*
X93054649Y-80834033D02*
X93154649Y-80800700D01*
X93154649Y-80800700D02*
X93187982Y-80767366D01*
X93187982Y-80767366D02*
X93187982Y-80534033D01*
X93187982Y-80534033D02*
X93054649Y-80534033D01*
X93487982Y-80834033D02*
X93487982Y-80134033D01*
X93487982Y-80134033D02*
X93754649Y-80134033D01*
X93754649Y-80134033D02*
X93821316Y-80167366D01*
X93821316Y-80167366D02*
X93854649Y-80200700D01*
X93854649Y-80200700D02*
X93887982Y-80267366D01*
X93887982Y-80267366D02*
X93887982Y-80367366D01*
X93887982Y-80367366D02*
X93854649Y-80434033D01*
X93854649Y-80434033D02*
X93821316Y-80467366D01*
X93821316Y-80467366D02*
X93754649Y-80500700D01*
X93754649Y-80500700D02*
X93487982Y-80500700D01*
X94187982Y-80834033D02*
X94187982Y-80134033D01*
X94654649Y-80134033D02*
X94787982Y-80134033D01*
X94787982Y-80134033D02*
X94854649Y-80167366D01*
X94854649Y-80167366D02*
X94921315Y-80234033D01*
X94921315Y-80234033D02*
X94954649Y-80367366D01*
X94954649Y-80367366D02*
X94954649Y-80600700D01*
X94954649Y-80600700D02*
X94921315Y-80734033D01*
X94921315Y-80734033D02*
X94854649Y-80800700D01*
X94854649Y-80800700D02*
X94787982Y-80834033D01*
X94787982Y-80834033D02*
X94654649Y-80834033D01*
X94654649Y-80834033D02*
X94587982Y-80800700D01*
X94587982Y-80800700D02*
X94521315Y-80734033D01*
X94521315Y-80734033D02*
X94487982Y-80600700D01*
X94487982Y-80600700D02*
X94487982Y-80367366D01*
X94487982Y-80367366D02*
X94521315Y-80234033D01*
X94521315Y-80234033D02*
X94587982Y-80167366D01*
X94587982Y-80167366D02*
X94654649Y-80134033D01*
X95221315Y-80200700D02*
X95254648Y-80167366D01*
X95254648Y-80167366D02*
X95321315Y-80134033D01*
X95321315Y-80134033D02*
X95487982Y-80134033D01*
X95487982Y-80134033D02*
X95554648Y-80167366D01*
X95554648Y-80167366D02*
X95587982Y-80200700D01*
X95587982Y-80200700D02*
X95621315Y-80267366D01*
X95621315Y-80267366D02*
X95621315Y-80334033D01*
X95621315Y-80334033D02*
X95587982Y-80434033D01*
X95587982Y-80434033D02*
X95187982Y-80834033D01*
X95187982Y-80834033D02*
X95621315Y-80834033D01*
X96287982Y-80834033D02*
X95887982Y-80834033D01*
X96087982Y-80834033D02*
X96087982Y-80134033D01*
X96087982Y-80134033D02*
X96021315Y-80234033D01*
X96021315Y-80234033D02*
X95954649Y-80300700D01*
X95954649Y-80300700D02*
X95887982Y-80334033D01*
X95021315Y-113787366D02*
X94987982Y-113820700D01*
X94987982Y-113820700D02*
X94887982Y-113854033D01*
X94887982Y-113854033D02*
X94821315Y-113854033D01*
X94821315Y-113854033D02*
X94721315Y-113820700D01*
X94721315Y-113820700D02*
X94654649Y-113754033D01*
X94654649Y-113754033D02*
X94621315Y-113687366D01*
X94621315Y-113687366D02*
X94587982Y-113554033D01*
X94587982Y-113554033D02*
X94587982Y-113454033D01*
X94587982Y-113454033D02*
X94621315Y-113320700D01*
X94621315Y-113320700D02*
X94654649Y-113254033D01*
X94654649Y-113254033D02*
X94721315Y-113187366D01*
X94721315Y-113187366D02*
X94821315Y-113154033D01*
X94821315Y-113154033D02*
X94887982Y-113154033D01*
X94887982Y-113154033D02*
X94987982Y-113187366D01*
X94987982Y-113187366D02*
X95021315Y-113220700D01*
X95654649Y-113854033D02*
X95321315Y-113854033D01*
X95321315Y-113854033D02*
X95321315Y-113154033D01*
X95887982Y-113854033D02*
X95887982Y-113154033D01*
X96287982Y-113854033D02*
X95987982Y-113454033D01*
X96287982Y-113154033D02*
X95887982Y-113554033D01*
X74292017Y-95407366D02*
X74225350Y-95374033D01*
X74225350Y-95374033D02*
X74125350Y-95374033D01*
X74125350Y-95374033D02*
X74025350Y-95407366D01*
X74025350Y-95407366D02*
X73958684Y-95474033D01*
X73958684Y-95474033D02*
X73925350Y-95540700D01*
X73925350Y-95540700D02*
X73892017Y-95674033D01*
X73892017Y-95674033D02*
X73892017Y-95774033D01*
X73892017Y-95774033D02*
X73925350Y-95907366D01*
X73925350Y-95907366D02*
X73958684Y-95974033D01*
X73958684Y-95974033D02*
X74025350Y-96040700D01*
X74025350Y-96040700D02*
X74125350Y-96074033D01*
X74125350Y-96074033D02*
X74192017Y-96074033D01*
X74192017Y-96074033D02*
X74292017Y-96040700D01*
X74292017Y-96040700D02*
X74325350Y-96007366D01*
X74325350Y-96007366D02*
X74325350Y-95774033D01*
X74325350Y-95774033D02*
X74192017Y-95774033D01*
X74625350Y-96074033D02*
X74625350Y-95374033D01*
X74625350Y-95374033D02*
X74892017Y-95374033D01*
X74892017Y-95374033D02*
X74958684Y-95407366D01*
X74958684Y-95407366D02*
X74992017Y-95440700D01*
X74992017Y-95440700D02*
X75025350Y-95507366D01*
X75025350Y-95507366D02*
X75025350Y-95607366D01*
X75025350Y-95607366D02*
X74992017Y-95674033D01*
X74992017Y-95674033D02*
X74958684Y-95707366D01*
X74958684Y-95707366D02*
X74892017Y-95740700D01*
X74892017Y-95740700D02*
X74625350Y-95740700D01*
X75325350Y-96074033D02*
X75325350Y-95374033D01*
X75792017Y-95374033D02*
X75925350Y-95374033D01*
X75925350Y-95374033D02*
X75992017Y-95407366D01*
X75992017Y-95407366D02*
X76058683Y-95474033D01*
X76058683Y-95474033D02*
X76092017Y-95607366D01*
X76092017Y-95607366D02*
X76092017Y-95840700D01*
X76092017Y-95840700D02*
X76058683Y-95974033D01*
X76058683Y-95974033D02*
X75992017Y-96040700D01*
X75992017Y-96040700D02*
X75925350Y-96074033D01*
X75925350Y-96074033D02*
X75792017Y-96074033D01*
X75792017Y-96074033D02*
X75725350Y-96040700D01*
X75725350Y-96040700D02*
X75658683Y-95974033D01*
X75658683Y-95974033D02*
X75625350Y-95840700D01*
X75625350Y-95840700D02*
X75625350Y-95607366D01*
X75625350Y-95607366D02*
X75658683Y-95474033D01*
X75658683Y-95474033D02*
X75725350Y-95407366D01*
X75725350Y-95407366D02*
X75792017Y-95374033D01*
X76758683Y-96074033D02*
X76358683Y-96074033D01*
X76558683Y-96074033D02*
X76558683Y-95374033D01*
X76558683Y-95374033D02*
X76492016Y-95474033D01*
X76492016Y-95474033D02*
X76425350Y-95540700D01*
X76425350Y-95540700D02*
X76358683Y-95574033D01*
X77358683Y-95607366D02*
X77358683Y-96074033D01*
X77192017Y-95340700D02*
X77025350Y-95840700D01*
X77025350Y-95840700D02*
X77458683Y-95840700D01*
X78225350Y-95340700D02*
X77625350Y-96240700D01*
X78458683Y-96074033D02*
X78458683Y-95374033D01*
X78458683Y-95374033D02*
X78692017Y-95874033D01*
X78692017Y-95874033D02*
X78925350Y-95374033D01*
X78925350Y-95374033D02*
X78925350Y-96074033D01*
X79158683Y-95374033D02*
X79558683Y-95374033D01*
X79358683Y-96074033D02*
X79358683Y-95374033D01*
X79792016Y-96074033D02*
X79792016Y-95374033D01*
X79792016Y-95374033D02*
X80025350Y-95874033D01*
X80025350Y-95874033D02*
X80258683Y-95374033D01*
X80258683Y-95374033D02*
X80258683Y-96074033D01*
X80558683Y-96040700D02*
X80658683Y-96074033D01*
X80658683Y-96074033D02*
X80825350Y-96074033D01*
X80825350Y-96074033D02*
X80892016Y-96040700D01*
X80892016Y-96040700D02*
X80925350Y-96007366D01*
X80925350Y-96007366D02*
X80958683Y-95940700D01*
X80958683Y-95940700D02*
X80958683Y-95874033D01*
X80958683Y-95874033D02*
X80925350Y-95807366D01*
X80925350Y-95807366D02*
X80892016Y-95774033D01*
X80892016Y-95774033D02*
X80825350Y-95740700D01*
X80825350Y-95740700D02*
X80692016Y-95707366D01*
X80692016Y-95707366D02*
X80625350Y-95674033D01*
X80625350Y-95674033D02*
X80592016Y-95640700D01*
X80592016Y-95640700D02*
X80558683Y-95574033D01*
X80558683Y-95574033D02*
X80558683Y-95507366D01*
X80558683Y-95507366D02*
X80592016Y-95440700D01*
X80592016Y-95440700D02*
X80625350Y-95407366D01*
X80625350Y-95407366D02*
X80692016Y-95374033D01*
X80692016Y-95374033D02*
X80858683Y-95374033D01*
X80858683Y-95374033D02*
X80958683Y-95407366D01*
X93154649Y-87787366D02*
X93087982Y-87754033D01*
X93087982Y-87754033D02*
X92987982Y-87754033D01*
X92987982Y-87754033D02*
X92887982Y-87787366D01*
X92887982Y-87787366D02*
X92821316Y-87854033D01*
X92821316Y-87854033D02*
X92787982Y-87920700D01*
X92787982Y-87920700D02*
X92754649Y-88054033D01*
X92754649Y-88054033D02*
X92754649Y-88154033D01*
X92754649Y-88154033D02*
X92787982Y-88287366D01*
X92787982Y-88287366D02*
X92821316Y-88354033D01*
X92821316Y-88354033D02*
X92887982Y-88420700D01*
X92887982Y-88420700D02*
X92987982Y-88454033D01*
X92987982Y-88454033D02*
X93054649Y-88454033D01*
X93054649Y-88454033D02*
X93154649Y-88420700D01*
X93154649Y-88420700D02*
X93187982Y-88387366D01*
X93187982Y-88387366D02*
X93187982Y-88154033D01*
X93187982Y-88154033D02*
X93054649Y-88154033D01*
X93487982Y-88454033D02*
X93487982Y-87754033D01*
X93487982Y-87754033D02*
X93754649Y-87754033D01*
X93754649Y-87754033D02*
X93821316Y-87787366D01*
X93821316Y-87787366D02*
X93854649Y-87820700D01*
X93854649Y-87820700D02*
X93887982Y-87887366D01*
X93887982Y-87887366D02*
X93887982Y-87987366D01*
X93887982Y-87987366D02*
X93854649Y-88054033D01*
X93854649Y-88054033D02*
X93821316Y-88087366D01*
X93821316Y-88087366D02*
X93754649Y-88120700D01*
X93754649Y-88120700D02*
X93487982Y-88120700D01*
X94187982Y-88454033D02*
X94187982Y-87754033D01*
X94654649Y-87754033D02*
X94787982Y-87754033D01*
X94787982Y-87754033D02*
X94854649Y-87787366D01*
X94854649Y-87787366D02*
X94921315Y-87854033D01*
X94921315Y-87854033D02*
X94954649Y-87987366D01*
X94954649Y-87987366D02*
X94954649Y-88220700D01*
X94954649Y-88220700D02*
X94921315Y-88354033D01*
X94921315Y-88354033D02*
X94854649Y-88420700D01*
X94854649Y-88420700D02*
X94787982Y-88454033D01*
X94787982Y-88454033D02*
X94654649Y-88454033D01*
X94654649Y-88454033D02*
X94587982Y-88420700D01*
X94587982Y-88420700D02*
X94521315Y-88354033D01*
X94521315Y-88354033D02*
X94487982Y-88220700D01*
X94487982Y-88220700D02*
X94487982Y-87987366D01*
X94487982Y-87987366D02*
X94521315Y-87854033D01*
X94521315Y-87854033D02*
X94587982Y-87787366D01*
X94587982Y-87787366D02*
X94654649Y-87754033D01*
X95621315Y-88454033D02*
X95221315Y-88454033D01*
X95421315Y-88454033D02*
X95421315Y-87754033D01*
X95421315Y-87754033D02*
X95354648Y-87854033D01*
X95354648Y-87854033D02*
X95287982Y-87920700D01*
X95287982Y-87920700D02*
X95221315Y-87954033D01*
X96021315Y-88054033D02*
X95954649Y-88020700D01*
X95954649Y-88020700D02*
X95921315Y-87987366D01*
X95921315Y-87987366D02*
X95887982Y-87920700D01*
X95887982Y-87920700D02*
X95887982Y-87887366D01*
X95887982Y-87887366D02*
X95921315Y-87820700D01*
X95921315Y-87820700D02*
X95954649Y-87787366D01*
X95954649Y-87787366D02*
X96021315Y-87754033D01*
X96021315Y-87754033D02*
X96154649Y-87754033D01*
X96154649Y-87754033D02*
X96221315Y-87787366D01*
X96221315Y-87787366D02*
X96254649Y-87820700D01*
X96254649Y-87820700D02*
X96287982Y-87887366D01*
X96287982Y-87887366D02*
X96287982Y-87920700D01*
X96287982Y-87920700D02*
X96254649Y-87987366D01*
X96254649Y-87987366D02*
X96221315Y-88020700D01*
X96221315Y-88020700D02*
X96154649Y-88054033D01*
X96154649Y-88054033D02*
X96021315Y-88054033D01*
X96021315Y-88054033D02*
X95954649Y-88087366D01*
X95954649Y-88087366D02*
X95921315Y-88120700D01*
X95921315Y-88120700D02*
X95887982Y-88187366D01*
X95887982Y-88187366D02*
X95887982Y-88320700D01*
X95887982Y-88320700D02*
X95921315Y-88387366D01*
X95921315Y-88387366D02*
X95954649Y-88420700D01*
X95954649Y-88420700D02*
X96021315Y-88454033D01*
X96021315Y-88454033D02*
X96154649Y-88454033D01*
X96154649Y-88454033D02*
X96221315Y-88420700D01*
X96221315Y-88420700D02*
X96254649Y-88387366D01*
X96254649Y-88387366D02*
X96287982Y-88320700D01*
X96287982Y-88320700D02*
X96287982Y-88187366D01*
X96287982Y-88187366D02*
X96254649Y-88120700D01*
X96254649Y-88120700D02*
X96221315Y-88087366D01*
X96221315Y-88087366D02*
X96154649Y-88054033D01*
X74292017Y-90327366D02*
X74225350Y-90294033D01*
X74225350Y-90294033D02*
X74125350Y-90294033D01*
X74125350Y-90294033D02*
X74025350Y-90327366D01*
X74025350Y-90327366D02*
X73958684Y-90394033D01*
X73958684Y-90394033D02*
X73925350Y-90460700D01*
X73925350Y-90460700D02*
X73892017Y-90594033D01*
X73892017Y-90594033D02*
X73892017Y-90694033D01*
X73892017Y-90694033D02*
X73925350Y-90827366D01*
X73925350Y-90827366D02*
X73958684Y-90894033D01*
X73958684Y-90894033D02*
X74025350Y-90960700D01*
X74025350Y-90960700D02*
X74125350Y-90994033D01*
X74125350Y-90994033D02*
X74192017Y-90994033D01*
X74192017Y-90994033D02*
X74292017Y-90960700D01*
X74292017Y-90960700D02*
X74325350Y-90927366D01*
X74325350Y-90927366D02*
X74325350Y-90694033D01*
X74325350Y-90694033D02*
X74192017Y-90694033D01*
X74625350Y-90994033D02*
X74625350Y-90294033D01*
X74625350Y-90294033D02*
X74892017Y-90294033D01*
X74892017Y-90294033D02*
X74958684Y-90327366D01*
X74958684Y-90327366D02*
X74992017Y-90360700D01*
X74992017Y-90360700D02*
X75025350Y-90427366D01*
X75025350Y-90427366D02*
X75025350Y-90527366D01*
X75025350Y-90527366D02*
X74992017Y-90594033D01*
X74992017Y-90594033D02*
X74958684Y-90627366D01*
X74958684Y-90627366D02*
X74892017Y-90660700D01*
X74892017Y-90660700D02*
X74625350Y-90660700D01*
X75325350Y-90994033D02*
X75325350Y-90294033D01*
X75792017Y-90294033D02*
X75925350Y-90294033D01*
X75925350Y-90294033D02*
X75992017Y-90327366D01*
X75992017Y-90327366D02*
X76058683Y-90394033D01*
X76058683Y-90394033D02*
X76092017Y-90527366D01*
X76092017Y-90527366D02*
X76092017Y-90760700D01*
X76092017Y-90760700D02*
X76058683Y-90894033D01*
X76058683Y-90894033D02*
X75992017Y-90960700D01*
X75992017Y-90960700D02*
X75925350Y-90994033D01*
X75925350Y-90994033D02*
X75792017Y-90994033D01*
X75792017Y-90994033D02*
X75725350Y-90960700D01*
X75725350Y-90960700D02*
X75658683Y-90894033D01*
X75658683Y-90894033D02*
X75625350Y-90760700D01*
X75625350Y-90760700D02*
X75625350Y-90527366D01*
X75625350Y-90527366D02*
X75658683Y-90394033D01*
X75658683Y-90394033D02*
X75725350Y-90327366D01*
X75725350Y-90327366D02*
X75792017Y-90294033D01*
X76358683Y-90360700D02*
X76392016Y-90327366D01*
X76392016Y-90327366D02*
X76458683Y-90294033D01*
X76458683Y-90294033D02*
X76625350Y-90294033D01*
X76625350Y-90294033D02*
X76692016Y-90327366D01*
X76692016Y-90327366D02*
X76725350Y-90360700D01*
X76725350Y-90360700D02*
X76758683Y-90427366D01*
X76758683Y-90427366D02*
X76758683Y-90494033D01*
X76758683Y-90494033D02*
X76725350Y-90594033D01*
X76725350Y-90594033D02*
X76325350Y-90994033D01*
X76325350Y-90994033D02*
X76758683Y-90994033D01*
X77358683Y-90294033D02*
X77225350Y-90294033D01*
X77225350Y-90294033D02*
X77158683Y-90327366D01*
X77158683Y-90327366D02*
X77125350Y-90360700D01*
X77125350Y-90360700D02*
X77058683Y-90460700D01*
X77058683Y-90460700D02*
X77025350Y-90594033D01*
X77025350Y-90594033D02*
X77025350Y-90860700D01*
X77025350Y-90860700D02*
X77058683Y-90927366D01*
X77058683Y-90927366D02*
X77092017Y-90960700D01*
X77092017Y-90960700D02*
X77158683Y-90994033D01*
X77158683Y-90994033D02*
X77292017Y-90994033D01*
X77292017Y-90994033D02*
X77358683Y-90960700D01*
X77358683Y-90960700D02*
X77392017Y-90927366D01*
X77392017Y-90927366D02*
X77425350Y-90860700D01*
X77425350Y-90860700D02*
X77425350Y-90694033D01*
X77425350Y-90694033D02*
X77392017Y-90627366D01*
X77392017Y-90627366D02*
X77358683Y-90594033D01*
X77358683Y-90594033D02*
X77292017Y-90560700D01*
X77292017Y-90560700D02*
X77158683Y-90560700D01*
X77158683Y-90560700D02*
X77092017Y-90594033D01*
X77092017Y-90594033D02*
X77058683Y-90627366D01*
X77058683Y-90627366D02*
X77025350Y-90694033D01*
X73901541Y-67272819D02*
X74520588Y-67272819D01*
X74520588Y-67272819D02*
X74187255Y-67653771D01*
X74187255Y-67653771D02*
X74330112Y-67653771D01*
X74330112Y-67653771D02*
X74425350Y-67701390D01*
X74425350Y-67701390D02*
X74472969Y-67749009D01*
X74472969Y-67749009D02*
X74520588Y-67844247D01*
X74520588Y-67844247D02*
X74520588Y-68082342D01*
X74520588Y-68082342D02*
X74472969Y-68177580D01*
X74472969Y-68177580D02*
X74425350Y-68225200D01*
X74425350Y-68225200D02*
X74330112Y-68272819D01*
X74330112Y-68272819D02*
X74044398Y-68272819D01*
X74044398Y-68272819D02*
X73949160Y-68225200D01*
X73949160Y-68225200D02*
X73901541Y-68177580D01*
X74806303Y-67272819D02*
X75139636Y-68272819D01*
X75139636Y-68272819D02*
X75472969Y-67272819D01*
X75711065Y-67272819D02*
X76330112Y-67272819D01*
X76330112Y-67272819D02*
X75996779Y-67653771D01*
X75996779Y-67653771D02*
X76139636Y-67653771D01*
X76139636Y-67653771D02*
X76234874Y-67701390D01*
X76234874Y-67701390D02*
X76282493Y-67749009D01*
X76282493Y-67749009D02*
X76330112Y-67844247D01*
X76330112Y-67844247D02*
X76330112Y-68082342D01*
X76330112Y-68082342D02*
X76282493Y-68177580D01*
X76282493Y-68177580D02*
X76234874Y-68225200D01*
X76234874Y-68225200D02*
X76139636Y-68272819D01*
X76139636Y-68272819D02*
X75853922Y-68272819D01*
X75853922Y-68272819D02*
X75758684Y-68225200D01*
X75758684Y-68225200D02*
X75711065Y-68177580D01*
X93821316Y-97947366D02*
X93754649Y-97914033D01*
X93754649Y-97914033D02*
X93654649Y-97914033D01*
X93654649Y-97914033D02*
X93554649Y-97947366D01*
X93554649Y-97947366D02*
X93487983Y-98014033D01*
X93487983Y-98014033D02*
X93454649Y-98080700D01*
X93454649Y-98080700D02*
X93421316Y-98214033D01*
X93421316Y-98214033D02*
X93421316Y-98314033D01*
X93421316Y-98314033D02*
X93454649Y-98447366D01*
X93454649Y-98447366D02*
X93487983Y-98514033D01*
X93487983Y-98514033D02*
X93554649Y-98580700D01*
X93554649Y-98580700D02*
X93654649Y-98614033D01*
X93654649Y-98614033D02*
X93721316Y-98614033D01*
X93721316Y-98614033D02*
X93821316Y-98580700D01*
X93821316Y-98580700D02*
X93854649Y-98547366D01*
X93854649Y-98547366D02*
X93854649Y-98314033D01*
X93854649Y-98314033D02*
X93721316Y-98314033D01*
X94154649Y-98614033D02*
X94154649Y-97914033D01*
X94154649Y-97914033D02*
X94421316Y-97914033D01*
X94421316Y-97914033D02*
X94487983Y-97947366D01*
X94487983Y-97947366D02*
X94521316Y-97980700D01*
X94521316Y-97980700D02*
X94554649Y-98047366D01*
X94554649Y-98047366D02*
X94554649Y-98147366D01*
X94554649Y-98147366D02*
X94521316Y-98214033D01*
X94521316Y-98214033D02*
X94487983Y-98247366D01*
X94487983Y-98247366D02*
X94421316Y-98280700D01*
X94421316Y-98280700D02*
X94154649Y-98280700D01*
X94854649Y-98614033D02*
X94854649Y-97914033D01*
X95321316Y-97914033D02*
X95454649Y-97914033D01*
X95454649Y-97914033D02*
X95521316Y-97947366D01*
X95521316Y-97947366D02*
X95587982Y-98014033D01*
X95587982Y-98014033D02*
X95621316Y-98147366D01*
X95621316Y-98147366D02*
X95621316Y-98380700D01*
X95621316Y-98380700D02*
X95587982Y-98514033D01*
X95587982Y-98514033D02*
X95521316Y-98580700D01*
X95521316Y-98580700D02*
X95454649Y-98614033D01*
X95454649Y-98614033D02*
X95321316Y-98614033D01*
X95321316Y-98614033D02*
X95254649Y-98580700D01*
X95254649Y-98580700D02*
X95187982Y-98514033D01*
X95187982Y-98514033D02*
X95154649Y-98380700D01*
X95154649Y-98380700D02*
X95154649Y-98147366D01*
X95154649Y-98147366D02*
X95187982Y-98014033D01*
X95187982Y-98014033D02*
X95254649Y-97947366D01*
X95254649Y-97947366D02*
X95321316Y-97914033D01*
X96221315Y-98147366D02*
X96221315Y-98614033D01*
X96054649Y-97880700D02*
X95887982Y-98380700D01*
X95887982Y-98380700D02*
X96321315Y-98380700D01*
X74292017Y-85247366D02*
X74225350Y-85214033D01*
X74225350Y-85214033D02*
X74125350Y-85214033D01*
X74125350Y-85214033D02*
X74025350Y-85247366D01*
X74025350Y-85247366D02*
X73958684Y-85314033D01*
X73958684Y-85314033D02*
X73925350Y-85380700D01*
X73925350Y-85380700D02*
X73892017Y-85514033D01*
X73892017Y-85514033D02*
X73892017Y-85614033D01*
X73892017Y-85614033D02*
X73925350Y-85747366D01*
X73925350Y-85747366D02*
X73958684Y-85814033D01*
X73958684Y-85814033D02*
X74025350Y-85880700D01*
X74025350Y-85880700D02*
X74125350Y-85914033D01*
X74125350Y-85914033D02*
X74192017Y-85914033D01*
X74192017Y-85914033D02*
X74292017Y-85880700D01*
X74292017Y-85880700D02*
X74325350Y-85847366D01*
X74325350Y-85847366D02*
X74325350Y-85614033D01*
X74325350Y-85614033D02*
X74192017Y-85614033D01*
X74625350Y-85914033D02*
X74625350Y-85214033D01*
X74625350Y-85214033D02*
X74892017Y-85214033D01*
X74892017Y-85214033D02*
X74958684Y-85247366D01*
X74958684Y-85247366D02*
X74992017Y-85280700D01*
X74992017Y-85280700D02*
X75025350Y-85347366D01*
X75025350Y-85347366D02*
X75025350Y-85447366D01*
X75025350Y-85447366D02*
X74992017Y-85514033D01*
X74992017Y-85514033D02*
X74958684Y-85547366D01*
X74958684Y-85547366D02*
X74892017Y-85580700D01*
X74892017Y-85580700D02*
X74625350Y-85580700D01*
X75325350Y-85914033D02*
X75325350Y-85214033D01*
X75792017Y-85214033D02*
X75925350Y-85214033D01*
X75925350Y-85214033D02*
X75992017Y-85247366D01*
X75992017Y-85247366D02*
X76058683Y-85314033D01*
X76058683Y-85314033D02*
X76092017Y-85447366D01*
X76092017Y-85447366D02*
X76092017Y-85680700D01*
X76092017Y-85680700D02*
X76058683Y-85814033D01*
X76058683Y-85814033D02*
X75992017Y-85880700D01*
X75992017Y-85880700D02*
X75925350Y-85914033D01*
X75925350Y-85914033D02*
X75792017Y-85914033D01*
X75792017Y-85914033D02*
X75725350Y-85880700D01*
X75725350Y-85880700D02*
X75658683Y-85814033D01*
X75658683Y-85814033D02*
X75625350Y-85680700D01*
X75625350Y-85680700D02*
X75625350Y-85447366D01*
X75625350Y-85447366D02*
X75658683Y-85314033D01*
X75658683Y-85314033D02*
X75725350Y-85247366D01*
X75725350Y-85247366D02*
X75792017Y-85214033D01*
X76325350Y-85214033D02*
X76758683Y-85214033D01*
X76758683Y-85214033D02*
X76525350Y-85480700D01*
X76525350Y-85480700D02*
X76625350Y-85480700D01*
X76625350Y-85480700D02*
X76692016Y-85514033D01*
X76692016Y-85514033D02*
X76725350Y-85547366D01*
X76725350Y-85547366D02*
X76758683Y-85614033D01*
X76758683Y-85614033D02*
X76758683Y-85780700D01*
X76758683Y-85780700D02*
X76725350Y-85847366D01*
X76725350Y-85847366D02*
X76692016Y-85880700D01*
X76692016Y-85880700D02*
X76625350Y-85914033D01*
X76625350Y-85914033D02*
X76425350Y-85914033D01*
X76425350Y-85914033D02*
X76358683Y-85880700D01*
X76358683Y-85880700D02*
X76325350Y-85847366D01*
X76992017Y-85214033D02*
X77425350Y-85214033D01*
X77425350Y-85214033D02*
X77192017Y-85480700D01*
X77192017Y-85480700D02*
X77292017Y-85480700D01*
X77292017Y-85480700D02*
X77358683Y-85514033D01*
X77358683Y-85514033D02*
X77392017Y-85547366D01*
X77392017Y-85547366D02*
X77425350Y-85614033D01*
X77425350Y-85614033D02*
X77425350Y-85780700D01*
X77425350Y-85780700D02*
X77392017Y-85847366D01*
X77392017Y-85847366D02*
X77358683Y-85880700D01*
X77358683Y-85880700D02*
X77292017Y-85914033D01*
X77292017Y-85914033D02*
X77092017Y-85914033D01*
X77092017Y-85914033D02*
X77025350Y-85880700D01*
X77025350Y-85880700D02*
X76992017Y-85847366D01*
X93154649Y-72547366D02*
X93087982Y-72514033D01*
X93087982Y-72514033D02*
X92987982Y-72514033D01*
X92987982Y-72514033D02*
X92887982Y-72547366D01*
X92887982Y-72547366D02*
X92821316Y-72614033D01*
X92821316Y-72614033D02*
X92787982Y-72680700D01*
X92787982Y-72680700D02*
X92754649Y-72814033D01*
X92754649Y-72814033D02*
X92754649Y-72914033D01*
X92754649Y-72914033D02*
X92787982Y-73047366D01*
X92787982Y-73047366D02*
X92821316Y-73114033D01*
X92821316Y-73114033D02*
X92887982Y-73180700D01*
X92887982Y-73180700D02*
X92987982Y-73214033D01*
X92987982Y-73214033D02*
X93054649Y-73214033D01*
X93054649Y-73214033D02*
X93154649Y-73180700D01*
X93154649Y-73180700D02*
X93187982Y-73147366D01*
X93187982Y-73147366D02*
X93187982Y-72914033D01*
X93187982Y-72914033D02*
X93054649Y-72914033D01*
X93487982Y-73214033D02*
X93487982Y-72514033D01*
X93487982Y-72514033D02*
X93754649Y-72514033D01*
X93754649Y-72514033D02*
X93821316Y-72547366D01*
X93821316Y-72547366D02*
X93854649Y-72580700D01*
X93854649Y-72580700D02*
X93887982Y-72647366D01*
X93887982Y-72647366D02*
X93887982Y-72747366D01*
X93887982Y-72747366D02*
X93854649Y-72814033D01*
X93854649Y-72814033D02*
X93821316Y-72847366D01*
X93821316Y-72847366D02*
X93754649Y-72880700D01*
X93754649Y-72880700D02*
X93487982Y-72880700D01*
X94187982Y-73214033D02*
X94187982Y-72514033D01*
X94654649Y-72514033D02*
X94787982Y-72514033D01*
X94787982Y-72514033D02*
X94854649Y-72547366D01*
X94854649Y-72547366D02*
X94921315Y-72614033D01*
X94921315Y-72614033D02*
X94954649Y-72747366D01*
X94954649Y-72747366D02*
X94954649Y-72980700D01*
X94954649Y-72980700D02*
X94921315Y-73114033D01*
X94921315Y-73114033D02*
X94854649Y-73180700D01*
X94854649Y-73180700D02*
X94787982Y-73214033D01*
X94787982Y-73214033D02*
X94654649Y-73214033D01*
X94654649Y-73214033D02*
X94587982Y-73180700D01*
X94587982Y-73180700D02*
X94521315Y-73114033D01*
X94521315Y-73114033D02*
X94487982Y-72980700D01*
X94487982Y-72980700D02*
X94487982Y-72747366D01*
X94487982Y-72747366D02*
X94521315Y-72614033D01*
X94521315Y-72614033D02*
X94587982Y-72547366D01*
X94587982Y-72547366D02*
X94654649Y-72514033D01*
X95221315Y-72580700D02*
X95254648Y-72547366D01*
X95254648Y-72547366D02*
X95321315Y-72514033D01*
X95321315Y-72514033D02*
X95487982Y-72514033D01*
X95487982Y-72514033D02*
X95554648Y-72547366D01*
X95554648Y-72547366D02*
X95587982Y-72580700D01*
X95587982Y-72580700D02*
X95621315Y-72647366D01*
X95621315Y-72647366D02*
X95621315Y-72714033D01*
X95621315Y-72714033D02*
X95587982Y-72814033D01*
X95587982Y-72814033D02*
X95187982Y-73214033D01*
X95187982Y-73214033D02*
X95621315Y-73214033D01*
X95887982Y-72580700D02*
X95921315Y-72547366D01*
X95921315Y-72547366D02*
X95987982Y-72514033D01*
X95987982Y-72514033D02*
X96154649Y-72514033D01*
X96154649Y-72514033D02*
X96221315Y-72547366D01*
X96221315Y-72547366D02*
X96254649Y-72580700D01*
X96254649Y-72580700D02*
X96287982Y-72647366D01*
X96287982Y-72647366D02*
X96287982Y-72714033D01*
X96287982Y-72714033D02*
X96254649Y-72814033D01*
X96254649Y-72814033D02*
X95854649Y-73214033D01*
X95854649Y-73214033D02*
X96287982Y-73214033D01*
X73925350Y-108774033D02*
X73925350Y-108074033D01*
X73925350Y-108074033D02*
X74092017Y-108074033D01*
X74092017Y-108074033D02*
X74192017Y-108107366D01*
X74192017Y-108107366D02*
X74258684Y-108174033D01*
X74258684Y-108174033D02*
X74292017Y-108240700D01*
X74292017Y-108240700D02*
X74325350Y-108374033D01*
X74325350Y-108374033D02*
X74325350Y-108474033D01*
X74325350Y-108474033D02*
X74292017Y-108607366D01*
X74292017Y-108607366D02*
X74258684Y-108674033D01*
X74258684Y-108674033D02*
X74192017Y-108740700D01*
X74192017Y-108740700D02*
X74092017Y-108774033D01*
X74092017Y-108774033D02*
X73925350Y-108774033D01*
X74558684Y-108074033D02*
X74992017Y-108074033D01*
X74992017Y-108074033D02*
X74758684Y-108340700D01*
X74758684Y-108340700D02*
X74858684Y-108340700D01*
X74858684Y-108340700D02*
X74925350Y-108374033D01*
X74925350Y-108374033D02*
X74958684Y-108407366D01*
X74958684Y-108407366D02*
X74992017Y-108474033D01*
X74992017Y-108474033D02*
X74992017Y-108640700D01*
X74992017Y-108640700D02*
X74958684Y-108707366D01*
X74958684Y-108707366D02*
X74925350Y-108740700D01*
X74925350Y-108740700D02*
X74858684Y-108774033D01*
X74858684Y-108774033D02*
X74658684Y-108774033D01*
X74658684Y-108774033D02*
X74592017Y-108740700D01*
X74592017Y-108740700D02*
X74558684Y-108707366D01*
X93154649Y-92867366D02*
X93087982Y-92834033D01*
X93087982Y-92834033D02*
X92987982Y-92834033D01*
X92987982Y-92834033D02*
X92887982Y-92867366D01*
X92887982Y-92867366D02*
X92821316Y-92934033D01*
X92821316Y-92934033D02*
X92787982Y-93000700D01*
X92787982Y-93000700D02*
X92754649Y-93134033D01*
X92754649Y-93134033D02*
X92754649Y-93234033D01*
X92754649Y-93234033D02*
X92787982Y-93367366D01*
X92787982Y-93367366D02*
X92821316Y-93434033D01*
X92821316Y-93434033D02*
X92887982Y-93500700D01*
X92887982Y-93500700D02*
X92987982Y-93534033D01*
X92987982Y-93534033D02*
X93054649Y-93534033D01*
X93054649Y-93534033D02*
X93154649Y-93500700D01*
X93154649Y-93500700D02*
X93187982Y-93467366D01*
X93187982Y-93467366D02*
X93187982Y-93234033D01*
X93187982Y-93234033D02*
X93054649Y-93234033D01*
X93487982Y-93534033D02*
X93487982Y-92834033D01*
X93487982Y-92834033D02*
X93754649Y-92834033D01*
X93754649Y-92834033D02*
X93821316Y-92867366D01*
X93821316Y-92867366D02*
X93854649Y-92900700D01*
X93854649Y-92900700D02*
X93887982Y-92967366D01*
X93887982Y-92967366D02*
X93887982Y-93067366D01*
X93887982Y-93067366D02*
X93854649Y-93134033D01*
X93854649Y-93134033D02*
X93821316Y-93167366D01*
X93821316Y-93167366D02*
X93754649Y-93200700D01*
X93754649Y-93200700D02*
X93487982Y-93200700D01*
X94187982Y-93534033D02*
X94187982Y-92834033D01*
X94654649Y-92834033D02*
X94787982Y-92834033D01*
X94787982Y-92834033D02*
X94854649Y-92867366D01*
X94854649Y-92867366D02*
X94921315Y-92934033D01*
X94921315Y-92934033D02*
X94954649Y-93067366D01*
X94954649Y-93067366D02*
X94954649Y-93300700D01*
X94954649Y-93300700D02*
X94921315Y-93434033D01*
X94921315Y-93434033D02*
X94854649Y-93500700D01*
X94854649Y-93500700D02*
X94787982Y-93534033D01*
X94787982Y-93534033D02*
X94654649Y-93534033D01*
X94654649Y-93534033D02*
X94587982Y-93500700D01*
X94587982Y-93500700D02*
X94521315Y-93434033D01*
X94521315Y-93434033D02*
X94487982Y-93300700D01*
X94487982Y-93300700D02*
X94487982Y-93067366D01*
X94487982Y-93067366D02*
X94521315Y-92934033D01*
X94521315Y-92934033D02*
X94587982Y-92867366D01*
X94587982Y-92867366D02*
X94654649Y-92834033D01*
X95621315Y-93534033D02*
X95221315Y-93534033D01*
X95421315Y-93534033D02*
X95421315Y-92834033D01*
X95421315Y-92834033D02*
X95354648Y-92934033D01*
X95354648Y-92934033D02*
X95287982Y-93000700D01*
X95287982Y-93000700D02*
X95221315Y-93034033D01*
X95854649Y-92834033D02*
X96321315Y-92834033D01*
X96321315Y-92834033D02*
X96021315Y-93534033D01*
X73925350Y-106234033D02*
X73925350Y-105534033D01*
X73925350Y-105534033D02*
X74092017Y-105534033D01*
X74092017Y-105534033D02*
X74192017Y-105567366D01*
X74192017Y-105567366D02*
X74258684Y-105634033D01*
X74258684Y-105634033D02*
X74292017Y-105700700D01*
X74292017Y-105700700D02*
X74325350Y-105834033D01*
X74325350Y-105834033D02*
X74325350Y-105934033D01*
X74325350Y-105934033D02*
X74292017Y-106067366D01*
X74292017Y-106067366D02*
X74258684Y-106134033D01*
X74258684Y-106134033D02*
X74192017Y-106200700D01*
X74192017Y-106200700D02*
X74092017Y-106234033D01*
X74092017Y-106234033D02*
X73925350Y-106234033D01*
X74592017Y-105600700D02*
X74625350Y-105567366D01*
X74625350Y-105567366D02*
X74692017Y-105534033D01*
X74692017Y-105534033D02*
X74858684Y-105534033D01*
X74858684Y-105534033D02*
X74925350Y-105567366D01*
X74925350Y-105567366D02*
X74958684Y-105600700D01*
X74958684Y-105600700D02*
X74992017Y-105667366D01*
X74992017Y-105667366D02*
X74992017Y-105734033D01*
X74992017Y-105734033D02*
X74958684Y-105834033D01*
X74958684Y-105834033D02*
X74558684Y-106234033D01*
X74558684Y-106234033D02*
X74992017Y-106234033D01*
X73825350Y-75054033D02*
X74058684Y-75754033D01*
X74058684Y-75754033D02*
X74292017Y-75054033D01*
X74525350Y-75754033D02*
X74525350Y-75054033D01*
X74525350Y-75054033D02*
X74925350Y-75754033D01*
X74925350Y-75754033D02*
X74925350Y-75054033D01*
X75758683Y-75020700D02*
X75158683Y-75920700D01*
X76358683Y-75087366D02*
X76292016Y-75054033D01*
X76292016Y-75054033D02*
X76192016Y-75054033D01*
X76192016Y-75054033D02*
X76092016Y-75087366D01*
X76092016Y-75087366D02*
X76025350Y-75154033D01*
X76025350Y-75154033D02*
X75992016Y-75220700D01*
X75992016Y-75220700D02*
X75958683Y-75354033D01*
X75958683Y-75354033D02*
X75958683Y-75454033D01*
X75958683Y-75454033D02*
X75992016Y-75587366D01*
X75992016Y-75587366D02*
X76025350Y-75654033D01*
X76025350Y-75654033D02*
X76092016Y-75720700D01*
X76092016Y-75720700D02*
X76192016Y-75754033D01*
X76192016Y-75754033D02*
X76258683Y-75754033D01*
X76258683Y-75754033D02*
X76358683Y-75720700D01*
X76358683Y-75720700D02*
X76392016Y-75687366D01*
X76392016Y-75687366D02*
X76392016Y-75454033D01*
X76392016Y-75454033D02*
X76258683Y-75454033D01*
X76692016Y-75754033D02*
X76692016Y-75054033D01*
X76692016Y-75054033D02*
X76958683Y-75054033D01*
X76958683Y-75054033D02*
X77025350Y-75087366D01*
X77025350Y-75087366D02*
X77058683Y-75120700D01*
X77058683Y-75120700D02*
X77092016Y-75187366D01*
X77092016Y-75187366D02*
X77092016Y-75287366D01*
X77092016Y-75287366D02*
X77058683Y-75354033D01*
X77058683Y-75354033D02*
X77025350Y-75387366D01*
X77025350Y-75387366D02*
X76958683Y-75420700D01*
X76958683Y-75420700D02*
X76692016Y-75420700D01*
X77392016Y-75754033D02*
X77392016Y-75054033D01*
X77858683Y-75054033D02*
X77992016Y-75054033D01*
X77992016Y-75054033D02*
X78058683Y-75087366D01*
X78058683Y-75087366D02*
X78125349Y-75154033D01*
X78125349Y-75154033D02*
X78158683Y-75287366D01*
X78158683Y-75287366D02*
X78158683Y-75520700D01*
X78158683Y-75520700D02*
X78125349Y-75654033D01*
X78125349Y-75654033D02*
X78058683Y-75720700D01*
X78058683Y-75720700D02*
X77992016Y-75754033D01*
X77992016Y-75754033D02*
X77858683Y-75754033D01*
X77858683Y-75754033D02*
X77792016Y-75720700D01*
X77792016Y-75720700D02*
X77725349Y-75654033D01*
X77725349Y-75654033D02*
X77692016Y-75520700D01*
X77692016Y-75520700D02*
X77692016Y-75287366D01*
X77692016Y-75287366D02*
X77725349Y-75154033D01*
X77725349Y-75154033D02*
X77792016Y-75087366D01*
X77792016Y-75087366D02*
X77858683Y-75054033D01*
X78392016Y-75054033D02*
X78825349Y-75054033D01*
X78825349Y-75054033D02*
X78592016Y-75320700D01*
X78592016Y-75320700D02*
X78692016Y-75320700D01*
X78692016Y-75320700D02*
X78758682Y-75354033D01*
X78758682Y-75354033D02*
X78792016Y-75387366D01*
X78792016Y-75387366D02*
X78825349Y-75454033D01*
X78825349Y-75454033D02*
X78825349Y-75620700D01*
X78825349Y-75620700D02*
X78792016Y-75687366D01*
X78792016Y-75687366D02*
X78758682Y-75720700D01*
X78758682Y-75720700D02*
X78692016Y-75754033D01*
X78692016Y-75754033D02*
X78492016Y-75754033D01*
X78492016Y-75754033D02*
X78425349Y-75720700D01*
X78425349Y-75720700D02*
X78392016Y-75687366D01*
X79158683Y-75754033D02*
X79292016Y-75754033D01*
X79292016Y-75754033D02*
X79358683Y-75720700D01*
X79358683Y-75720700D02*
X79392016Y-75687366D01*
X79392016Y-75687366D02*
X79458683Y-75587366D01*
X79458683Y-75587366D02*
X79492016Y-75454033D01*
X79492016Y-75454033D02*
X79492016Y-75187366D01*
X79492016Y-75187366D02*
X79458683Y-75120700D01*
X79458683Y-75120700D02*
X79425349Y-75087366D01*
X79425349Y-75087366D02*
X79358683Y-75054033D01*
X79358683Y-75054033D02*
X79225349Y-75054033D01*
X79225349Y-75054033D02*
X79158683Y-75087366D01*
X79158683Y-75087366D02*
X79125349Y-75120700D01*
X79125349Y-75120700D02*
X79092016Y-75187366D01*
X79092016Y-75187366D02*
X79092016Y-75354033D01*
X79092016Y-75354033D02*
X79125349Y-75420700D01*
X79125349Y-75420700D02*
X79158683Y-75454033D01*
X79158683Y-75454033D02*
X79225349Y-75487366D01*
X79225349Y-75487366D02*
X79358683Y-75487366D01*
X79358683Y-75487366D02*
X79425349Y-75454033D01*
X79425349Y-75454033D02*
X79458683Y-75420700D01*
X79458683Y-75420700D02*
X79492016Y-75354033D01*
X74292017Y-87787366D02*
X74225350Y-87754033D01*
X74225350Y-87754033D02*
X74125350Y-87754033D01*
X74125350Y-87754033D02*
X74025350Y-87787366D01*
X74025350Y-87787366D02*
X73958684Y-87854033D01*
X73958684Y-87854033D02*
X73925350Y-87920700D01*
X73925350Y-87920700D02*
X73892017Y-88054033D01*
X73892017Y-88054033D02*
X73892017Y-88154033D01*
X73892017Y-88154033D02*
X73925350Y-88287366D01*
X73925350Y-88287366D02*
X73958684Y-88354033D01*
X73958684Y-88354033D02*
X74025350Y-88420700D01*
X74025350Y-88420700D02*
X74125350Y-88454033D01*
X74125350Y-88454033D02*
X74192017Y-88454033D01*
X74192017Y-88454033D02*
X74292017Y-88420700D01*
X74292017Y-88420700D02*
X74325350Y-88387366D01*
X74325350Y-88387366D02*
X74325350Y-88154033D01*
X74325350Y-88154033D02*
X74192017Y-88154033D01*
X74625350Y-88454033D02*
X74625350Y-87754033D01*
X74625350Y-87754033D02*
X74892017Y-87754033D01*
X74892017Y-87754033D02*
X74958684Y-87787366D01*
X74958684Y-87787366D02*
X74992017Y-87820700D01*
X74992017Y-87820700D02*
X75025350Y-87887366D01*
X75025350Y-87887366D02*
X75025350Y-87987366D01*
X75025350Y-87987366D02*
X74992017Y-88054033D01*
X74992017Y-88054033D02*
X74958684Y-88087366D01*
X74958684Y-88087366D02*
X74892017Y-88120700D01*
X74892017Y-88120700D02*
X74625350Y-88120700D01*
X75325350Y-88454033D02*
X75325350Y-87754033D01*
X75792017Y-87754033D02*
X75925350Y-87754033D01*
X75925350Y-87754033D02*
X75992017Y-87787366D01*
X75992017Y-87787366D02*
X76058683Y-87854033D01*
X76058683Y-87854033D02*
X76092017Y-87987366D01*
X76092017Y-87987366D02*
X76092017Y-88220700D01*
X76092017Y-88220700D02*
X76058683Y-88354033D01*
X76058683Y-88354033D02*
X75992017Y-88420700D01*
X75992017Y-88420700D02*
X75925350Y-88454033D01*
X75925350Y-88454033D02*
X75792017Y-88454033D01*
X75792017Y-88454033D02*
X75725350Y-88420700D01*
X75725350Y-88420700D02*
X75658683Y-88354033D01*
X75658683Y-88354033D02*
X75625350Y-88220700D01*
X75625350Y-88220700D02*
X75625350Y-87987366D01*
X75625350Y-87987366D02*
X75658683Y-87854033D01*
X75658683Y-87854033D02*
X75725350Y-87787366D01*
X75725350Y-87787366D02*
X75792017Y-87754033D01*
X76358683Y-87820700D02*
X76392016Y-87787366D01*
X76392016Y-87787366D02*
X76458683Y-87754033D01*
X76458683Y-87754033D02*
X76625350Y-87754033D01*
X76625350Y-87754033D02*
X76692016Y-87787366D01*
X76692016Y-87787366D02*
X76725350Y-87820700D01*
X76725350Y-87820700D02*
X76758683Y-87887366D01*
X76758683Y-87887366D02*
X76758683Y-87954033D01*
X76758683Y-87954033D02*
X76725350Y-88054033D01*
X76725350Y-88054033D02*
X76325350Y-88454033D01*
X76325350Y-88454033D02*
X76758683Y-88454033D01*
X77392017Y-87754033D02*
X77058683Y-87754033D01*
X77058683Y-87754033D02*
X77025350Y-88087366D01*
X77025350Y-88087366D02*
X77058683Y-88054033D01*
X77058683Y-88054033D02*
X77125350Y-88020700D01*
X77125350Y-88020700D02*
X77292017Y-88020700D01*
X77292017Y-88020700D02*
X77358683Y-88054033D01*
X77358683Y-88054033D02*
X77392017Y-88087366D01*
X77392017Y-88087366D02*
X77425350Y-88154033D01*
X77425350Y-88154033D02*
X77425350Y-88320700D01*
X77425350Y-88320700D02*
X77392017Y-88387366D01*
X77392017Y-88387366D02*
X77358683Y-88420700D01*
X77358683Y-88420700D02*
X77292017Y-88454033D01*
X77292017Y-88454033D02*
X77125350Y-88454033D01*
X77125350Y-88454033D02*
X77058683Y-88420700D01*
X77058683Y-88420700D02*
X77025350Y-88387366D01*
X89787983Y-75087366D02*
X89721316Y-75054033D01*
X89721316Y-75054033D02*
X89621316Y-75054033D01*
X89621316Y-75054033D02*
X89521316Y-75087366D01*
X89521316Y-75087366D02*
X89454650Y-75154033D01*
X89454650Y-75154033D02*
X89421316Y-75220700D01*
X89421316Y-75220700D02*
X89387983Y-75354033D01*
X89387983Y-75354033D02*
X89387983Y-75454033D01*
X89387983Y-75454033D02*
X89421316Y-75587366D01*
X89421316Y-75587366D02*
X89454650Y-75654033D01*
X89454650Y-75654033D02*
X89521316Y-75720700D01*
X89521316Y-75720700D02*
X89621316Y-75754033D01*
X89621316Y-75754033D02*
X89687983Y-75754033D01*
X89687983Y-75754033D02*
X89787983Y-75720700D01*
X89787983Y-75720700D02*
X89821316Y-75687366D01*
X89821316Y-75687366D02*
X89821316Y-75454033D01*
X89821316Y-75454033D02*
X89687983Y-75454033D01*
X90121316Y-75754033D02*
X90121316Y-75054033D01*
X90121316Y-75054033D02*
X90387983Y-75054033D01*
X90387983Y-75054033D02*
X90454650Y-75087366D01*
X90454650Y-75087366D02*
X90487983Y-75120700D01*
X90487983Y-75120700D02*
X90521316Y-75187366D01*
X90521316Y-75187366D02*
X90521316Y-75287366D01*
X90521316Y-75287366D02*
X90487983Y-75354033D01*
X90487983Y-75354033D02*
X90454650Y-75387366D01*
X90454650Y-75387366D02*
X90387983Y-75420700D01*
X90387983Y-75420700D02*
X90121316Y-75420700D01*
X90821316Y-75754033D02*
X90821316Y-75054033D01*
X91287983Y-75054033D02*
X91421316Y-75054033D01*
X91421316Y-75054033D02*
X91487983Y-75087366D01*
X91487983Y-75087366D02*
X91554649Y-75154033D01*
X91554649Y-75154033D02*
X91587983Y-75287366D01*
X91587983Y-75287366D02*
X91587983Y-75520700D01*
X91587983Y-75520700D02*
X91554649Y-75654033D01*
X91554649Y-75654033D02*
X91487983Y-75720700D01*
X91487983Y-75720700D02*
X91421316Y-75754033D01*
X91421316Y-75754033D02*
X91287983Y-75754033D01*
X91287983Y-75754033D02*
X91221316Y-75720700D01*
X91221316Y-75720700D02*
X91154649Y-75654033D01*
X91154649Y-75654033D02*
X91121316Y-75520700D01*
X91121316Y-75520700D02*
X91121316Y-75287366D01*
X91121316Y-75287366D02*
X91154649Y-75154033D01*
X91154649Y-75154033D02*
X91221316Y-75087366D01*
X91221316Y-75087366D02*
X91287983Y-75054033D01*
X92254649Y-75754033D02*
X91854649Y-75754033D01*
X92054649Y-75754033D02*
X92054649Y-75054033D01*
X92054649Y-75054033D02*
X91987982Y-75154033D01*
X91987982Y-75154033D02*
X91921316Y-75220700D01*
X91921316Y-75220700D02*
X91854649Y-75254033D01*
X93054649Y-75020700D02*
X92454649Y-75920700D01*
X93287982Y-75054033D02*
X93287982Y-75620700D01*
X93287982Y-75620700D02*
X93321316Y-75687366D01*
X93321316Y-75687366D02*
X93354649Y-75720700D01*
X93354649Y-75720700D02*
X93421316Y-75754033D01*
X93421316Y-75754033D02*
X93554649Y-75754033D01*
X93554649Y-75754033D02*
X93621316Y-75720700D01*
X93621316Y-75720700D02*
X93654649Y-75687366D01*
X93654649Y-75687366D02*
X93687982Y-75620700D01*
X93687982Y-75620700D02*
X93687982Y-75054033D01*
X94154649Y-75054033D02*
X94221315Y-75054033D01*
X94221315Y-75054033D02*
X94287982Y-75087366D01*
X94287982Y-75087366D02*
X94321315Y-75120700D01*
X94321315Y-75120700D02*
X94354649Y-75187366D01*
X94354649Y-75187366D02*
X94387982Y-75320700D01*
X94387982Y-75320700D02*
X94387982Y-75487366D01*
X94387982Y-75487366D02*
X94354649Y-75620700D01*
X94354649Y-75620700D02*
X94321315Y-75687366D01*
X94321315Y-75687366D02*
X94287982Y-75720700D01*
X94287982Y-75720700D02*
X94221315Y-75754033D01*
X94221315Y-75754033D02*
X94154649Y-75754033D01*
X94154649Y-75754033D02*
X94087982Y-75720700D01*
X94087982Y-75720700D02*
X94054649Y-75687366D01*
X94054649Y-75687366D02*
X94021315Y-75620700D01*
X94021315Y-75620700D02*
X93987982Y-75487366D01*
X93987982Y-75487366D02*
X93987982Y-75320700D01*
X93987982Y-75320700D02*
X94021315Y-75187366D01*
X94021315Y-75187366D02*
X94054649Y-75120700D01*
X94054649Y-75120700D02*
X94087982Y-75087366D01*
X94087982Y-75087366D02*
X94154649Y-75054033D01*
X94587982Y-75054033D02*
X94987982Y-75054033D01*
X94787982Y-75754033D02*
X94787982Y-75054033D01*
X95154649Y-75054033D02*
X95621315Y-75754033D01*
X95621315Y-75054033D02*
X95154649Y-75754033D01*
X95887982Y-75754033D02*
X95887982Y-75054033D01*
X95887982Y-75054033D02*
X96054649Y-75054033D01*
X96054649Y-75054033D02*
X96154649Y-75087366D01*
X96154649Y-75087366D02*
X96221316Y-75154033D01*
X96221316Y-75154033D02*
X96254649Y-75220700D01*
X96254649Y-75220700D02*
X96287982Y-75354033D01*
X96287982Y-75354033D02*
X96287982Y-75454033D01*
X96287982Y-75454033D02*
X96254649Y-75587366D01*
X96254649Y-75587366D02*
X96221316Y-75654033D01*
X96221316Y-75654033D02*
X96154649Y-75720700D01*
X96154649Y-75720700D02*
X96054649Y-75754033D01*
X96054649Y-75754033D02*
X95887982Y-75754033D01*
X93821316Y-90327366D02*
X93754649Y-90294033D01*
X93754649Y-90294033D02*
X93654649Y-90294033D01*
X93654649Y-90294033D02*
X93554649Y-90327366D01*
X93554649Y-90327366D02*
X93487983Y-90394033D01*
X93487983Y-90394033D02*
X93454649Y-90460700D01*
X93454649Y-90460700D02*
X93421316Y-90594033D01*
X93421316Y-90594033D02*
X93421316Y-90694033D01*
X93421316Y-90694033D02*
X93454649Y-90827366D01*
X93454649Y-90827366D02*
X93487983Y-90894033D01*
X93487983Y-90894033D02*
X93554649Y-90960700D01*
X93554649Y-90960700D02*
X93654649Y-90994033D01*
X93654649Y-90994033D02*
X93721316Y-90994033D01*
X93721316Y-90994033D02*
X93821316Y-90960700D01*
X93821316Y-90960700D02*
X93854649Y-90927366D01*
X93854649Y-90927366D02*
X93854649Y-90694033D01*
X93854649Y-90694033D02*
X93721316Y-90694033D01*
X94154649Y-90994033D02*
X94154649Y-90294033D01*
X94154649Y-90294033D02*
X94421316Y-90294033D01*
X94421316Y-90294033D02*
X94487983Y-90327366D01*
X94487983Y-90327366D02*
X94521316Y-90360700D01*
X94521316Y-90360700D02*
X94554649Y-90427366D01*
X94554649Y-90427366D02*
X94554649Y-90527366D01*
X94554649Y-90527366D02*
X94521316Y-90594033D01*
X94521316Y-90594033D02*
X94487983Y-90627366D01*
X94487983Y-90627366D02*
X94421316Y-90660700D01*
X94421316Y-90660700D02*
X94154649Y-90660700D01*
X94854649Y-90994033D02*
X94854649Y-90294033D01*
X95321316Y-90294033D02*
X95454649Y-90294033D01*
X95454649Y-90294033D02*
X95521316Y-90327366D01*
X95521316Y-90327366D02*
X95587982Y-90394033D01*
X95587982Y-90394033D02*
X95621316Y-90527366D01*
X95621316Y-90527366D02*
X95621316Y-90760700D01*
X95621316Y-90760700D02*
X95587982Y-90894033D01*
X95587982Y-90894033D02*
X95521316Y-90960700D01*
X95521316Y-90960700D02*
X95454649Y-90994033D01*
X95454649Y-90994033D02*
X95321316Y-90994033D01*
X95321316Y-90994033D02*
X95254649Y-90960700D01*
X95254649Y-90960700D02*
X95187982Y-90894033D01*
X95187982Y-90894033D02*
X95154649Y-90760700D01*
X95154649Y-90760700D02*
X95154649Y-90527366D01*
X95154649Y-90527366D02*
X95187982Y-90394033D01*
X95187982Y-90394033D02*
X95254649Y-90327366D01*
X95254649Y-90327366D02*
X95321316Y-90294033D01*
X96254649Y-90294033D02*
X95921315Y-90294033D01*
X95921315Y-90294033D02*
X95887982Y-90627366D01*
X95887982Y-90627366D02*
X95921315Y-90594033D01*
X95921315Y-90594033D02*
X95987982Y-90560700D01*
X95987982Y-90560700D02*
X96154649Y-90560700D01*
X96154649Y-90560700D02*
X96221315Y-90594033D01*
X96221315Y-90594033D02*
X96254649Y-90627366D01*
X96254649Y-90627366D02*
X96287982Y-90694033D01*
X96287982Y-90694033D02*
X96287982Y-90860700D01*
X96287982Y-90860700D02*
X96254649Y-90927366D01*
X96254649Y-90927366D02*
X96221315Y-90960700D01*
X96221315Y-90960700D02*
X96154649Y-90994033D01*
X96154649Y-90994033D02*
X95987982Y-90994033D01*
X95987982Y-90994033D02*
X95921315Y-90960700D01*
X95921315Y-90960700D02*
X95887982Y-90927366D01*
X94135601Y-67320438D02*
X94040363Y-67272819D01*
X94040363Y-67272819D02*
X93897506Y-67272819D01*
X93897506Y-67272819D02*
X93754649Y-67320438D01*
X93754649Y-67320438D02*
X93659411Y-67415676D01*
X93659411Y-67415676D02*
X93611792Y-67510914D01*
X93611792Y-67510914D02*
X93564173Y-67701390D01*
X93564173Y-67701390D02*
X93564173Y-67844247D01*
X93564173Y-67844247D02*
X93611792Y-68034723D01*
X93611792Y-68034723D02*
X93659411Y-68129961D01*
X93659411Y-68129961D02*
X93754649Y-68225200D01*
X93754649Y-68225200D02*
X93897506Y-68272819D01*
X93897506Y-68272819D02*
X93992744Y-68272819D01*
X93992744Y-68272819D02*
X94135601Y-68225200D01*
X94135601Y-68225200D02*
X94183220Y-68177580D01*
X94183220Y-68177580D02*
X94183220Y-67844247D01*
X94183220Y-67844247D02*
X93992744Y-67844247D01*
X94611792Y-68272819D02*
X94611792Y-67272819D01*
X94611792Y-67272819D02*
X95183220Y-68272819D01*
X95183220Y-68272819D02*
X95183220Y-67272819D01*
X95659411Y-68272819D02*
X95659411Y-67272819D01*
X95659411Y-67272819D02*
X95897506Y-67272819D01*
X95897506Y-67272819D02*
X96040363Y-67320438D01*
X96040363Y-67320438D02*
X96135601Y-67415676D01*
X96135601Y-67415676D02*
X96183220Y-67510914D01*
X96183220Y-67510914D02*
X96230839Y-67701390D01*
X96230839Y-67701390D02*
X96230839Y-67844247D01*
X96230839Y-67844247D02*
X96183220Y-68034723D01*
X96183220Y-68034723D02*
X96135601Y-68129961D01*
X96135601Y-68129961D02*
X96040363Y-68225200D01*
X96040363Y-68225200D02*
X95897506Y-68272819D01*
X95897506Y-68272819D02*
X95659411Y-68272819D01*
X94135601Y-82560438D02*
X94040363Y-82512819D01*
X94040363Y-82512819D02*
X93897506Y-82512819D01*
X93897506Y-82512819D02*
X93754649Y-82560438D01*
X93754649Y-82560438D02*
X93659411Y-82655676D01*
X93659411Y-82655676D02*
X93611792Y-82750914D01*
X93611792Y-82750914D02*
X93564173Y-82941390D01*
X93564173Y-82941390D02*
X93564173Y-83084247D01*
X93564173Y-83084247D02*
X93611792Y-83274723D01*
X93611792Y-83274723D02*
X93659411Y-83369961D01*
X93659411Y-83369961D02*
X93754649Y-83465200D01*
X93754649Y-83465200D02*
X93897506Y-83512819D01*
X93897506Y-83512819D02*
X93992744Y-83512819D01*
X93992744Y-83512819D02*
X94135601Y-83465200D01*
X94135601Y-83465200D02*
X94183220Y-83417580D01*
X94183220Y-83417580D02*
X94183220Y-83084247D01*
X94183220Y-83084247D02*
X93992744Y-83084247D01*
X94611792Y-83512819D02*
X94611792Y-82512819D01*
X94611792Y-82512819D02*
X95183220Y-83512819D01*
X95183220Y-83512819D02*
X95183220Y-82512819D01*
X95659411Y-83512819D02*
X95659411Y-82512819D01*
X95659411Y-82512819D02*
X95897506Y-82512819D01*
X95897506Y-82512819D02*
X96040363Y-82560438D01*
X96040363Y-82560438D02*
X96135601Y-82655676D01*
X96135601Y-82655676D02*
X96183220Y-82750914D01*
X96183220Y-82750914D02*
X96230839Y-82941390D01*
X96230839Y-82941390D02*
X96230839Y-83084247D01*
X96230839Y-83084247D02*
X96183220Y-83274723D01*
X96183220Y-83274723D02*
X96135601Y-83369961D01*
X96135601Y-83369961D02*
X96040363Y-83465200D01*
X96040363Y-83465200D02*
X95897506Y-83512819D01*
X95897506Y-83512819D02*
X95659411Y-83512819D01*
X74325350Y-111247366D02*
X74292017Y-111280700D01*
X74292017Y-111280700D02*
X74192017Y-111314033D01*
X74192017Y-111314033D02*
X74125350Y-111314033D01*
X74125350Y-111314033D02*
X74025350Y-111280700D01*
X74025350Y-111280700D02*
X73958684Y-111214033D01*
X73958684Y-111214033D02*
X73925350Y-111147366D01*
X73925350Y-111147366D02*
X73892017Y-111014033D01*
X73892017Y-111014033D02*
X73892017Y-110914033D01*
X73892017Y-110914033D02*
X73925350Y-110780700D01*
X73925350Y-110780700D02*
X73958684Y-110714033D01*
X73958684Y-110714033D02*
X74025350Y-110647366D01*
X74025350Y-110647366D02*
X74125350Y-110614033D01*
X74125350Y-110614033D02*
X74192017Y-110614033D01*
X74192017Y-110614033D02*
X74292017Y-110647366D01*
X74292017Y-110647366D02*
X74325350Y-110680700D01*
X74625350Y-111314033D02*
X74625350Y-110614033D01*
X74625350Y-110614033D02*
X74858684Y-111114033D01*
X74858684Y-111114033D02*
X75092017Y-110614033D01*
X75092017Y-110614033D02*
X75092017Y-111314033D01*
X75425350Y-111314033D02*
X75425350Y-110614033D01*
X75425350Y-110614033D02*
X75592017Y-110614033D01*
X75592017Y-110614033D02*
X75692017Y-110647366D01*
X75692017Y-110647366D02*
X75758684Y-110714033D01*
X75758684Y-110714033D02*
X75792017Y-110780700D01*
X75792017Y-110780700D02*
X75825350Y-110914033D01*
X75825350Y-110914033D02*
X75825350Y-111014033D01*
X75825350Y-111014033D02*
X75792017Y-111147366D01*
X75792017Y-111147366D02*
X75758684Y-111214033D01*
X75758684Y-111214033D02*
X75692017Y-111280700D01*
X75692017Y-111280700D02*
X75592017Y-111314033D01*
X75592017Y-111314033D02*
X75425350Y-111314033D01*
X73891921Y-70286289D02*
X74225254Y-70286289D01*
X74368111Y-70810099D02*
X73891921Y-70810099D01*
X73891921Y-70810099D02*
X73891921Y-69810099D01*
X73891921Y-69810099D02*
X74368111Y-69810099D01*
X74796683Y-70810099D02*
X74796683Y-69810099D01*
X74796683Y-69810099D02*
X75368111Y-70810099D01*
X75368111Y-70810099D02*
X75368111Y-69810099D01*
X76558587Y-69762480D02*
X75701445Y-71048194D01*
X77463349Y-70810099D02*
X77130016Y-70333908D01*
X76891921Y-70810099D02*
X76891921Y-69810099D01*
X76891921Y-69810099D02*
X77272873Y-69810099D01*
X77272873Y-69810099D02*
X77368111Y-69857718D01*
X77368111Y-69857718D02*
X77415730Y-69905337D01*
X77415730Y-69905337D02*
X77463349Y-70000575D01*
X77463349Y-70000575D02*
X77463349Y-70143432D01*
X77463349Y-70143432D02*
X77415730Y-70238670D01*
X77415730Y-70238670D02*
X77368111Y-70286289D01*
X77368111Y-70286289D02*
X77272873Y-70333908D01*
X77272873Y-70333908D02*
X76891921Y-70333908D01*
X77891921Y-70286289D02*
X78225254Y-70286289D01*
X78368111Y-70810099D02*
X77891921Y-70810099D01*
X77891921Y-70810099D02*
X77891921Y-69810099D01*
X77891921Y-69810099D02*
X78368111Y-69810099D01*
X78749064Y-70762480D02*
X78891921Y-70810099D01*
X78891921Y-70810099D02*
X79130016Y-70810099D01*
X79130016Y-70810099D02*
X79225254Y-70762480D01*
X79225254Y-70762480D02*
X79272873Y-70714860D01*
X79272873Y-70714860D02*
X79320492Y-70619622D01*
X79320492Y-70619622D02*
X79320492Y-70524384D01*
X79320492Y-70524384D02*
X79272873Y-70429146D01*
X79272873Y-70429146D02*
X79225254Y-70381527D01*
X79225254Y-70381527D02*
X79130016Y-70333908D01*
X79130016Y-70333908D02*
X78939540Y-70286289D01*
X78939540Y-70286289D02*
X78844302Y-70238670D01*
X78844302Y-70238670D02*
X78796683Y-70191051D01*
X78796683Y-70191051D02*
X78749064Y-70095813D01*
X78749064Y-70095813D02*
X78749064Y-70000575D01*
X78749064Y-70000575D02*
X78796683Y-69905337D01*
X78796683Y-69905337D02*
X78844302Y-69857718D01*
X78844302Y-69857718D02*
X78939540Y-69810099D01*
X78939540Y-69810099D02*
X79177635Y-69810099D01*
X79177635Y-69810099D02*
X79320492Y-69857718D01*
X79749064Y-70286289D02*
X80082397Y-70286289D01*
X80225254Y-70810099D02*
X79749064Y-70810099D01*
X79749064Y-70810099D02*
X79749064Y-69810099D01*
X79749064Y-69810099D02*
X80225254Y-69810099D01*
X80510969Y-69810099D02*
X81082397Y-69810099D01*
X80796683Y-70810099D02*
X80796683Y-69810099D01*
X74292017Y-77627366D02*
X74225350Y-77594033D01*
X74225350Y-77594033D02*
X74125350Y-77594033D01*
X74125350Y-77594033D02*
X74025350Y-77627366D01*
X74025350Y-77627366D02*
X73958684Y-77694033D01*
X73958684Y-77694033D02*
X73925350Y-77760700D01*
X73925350Y-77760700D02*
X73892017Y-77894033D01*
X73892017Y-77894033D02*
X73892017Y-77994033D01*
X73892017Y-77994033D02*
X73925350Y-78127366D01*
X73925350Y-78127366D02*
X73958684Y-78194033D01*
X73958684Y-78194033D02*
X74025350Y-78260700D01*
X74025350Y-78260700D02*
X74125350Y-78294033D01*
X74125350Y-78294033D02*
X74192017Y-78294033D01*
X74192017Y-78294033D02*
X74292017Y-78260700D01*
X74292017Y-78260700D02*
X74325350Y-78227366D01*
X74325350Y-78227366D02*
X74325350Y-77994033D01*
X74325350Y-77994033D02*
X74192017Y-77994033D01*
X74625350Y-78294033D02*
X74625350Y-77594033D01*
X74625350Y-77594033D02*
X74892017Y-77594033D01*
X74892017Y-77594033D02*
X74958684Y-77627366D01*
X74958684Y-77627366D02*
X74992017Y-77660700D01*
X74992017Y-77660700D02*
X75025350Y-77727366D01*
X75025350Y-77727366D02*
X75025350Y-77827366D01*
X75025350Y-77827366D02*
X74992017Y-77894033D01*
X74992017Y-77894033D02*
X74958684Y-77927366D01*
X74958684Y-77927366D02*
X74892017Y-77960700D01*
X74892017Y-77960700D02*
X74625350Y-77960700D01*
X75325350Y-78294033D02*
X75325350Y-77594033D01*
X75792017Y-77594033D02*
X75925350Y-77594033D01*
X75925350Y-77594033D02*
X75992017Y-77627366D01*
X75992017Y-77627366D02*
X76058683Y-77694033D01*
X76058683Y-77694033D02*
X76092017Y-77827366D01*
X76092017Y-77827366D02*
X76092017Y-78060700D01*
X76092017Y-78060700D02*
X76058683Y-78194033D01*
X76058683Y-78194033D02*
X75992017Y-78260700D01*
X75992017Y-78260700D02*
X75925350Y-78294033D01*
X75925350Y-78294033D02*
X75792017Y-78294033D01*
X75792017Y-78294033D02*
X75725350Y-78260700D01*
X75725350Y-78260700D02*
X75658683Y-78194033D01*
X75658683Y-78194033D02*
X75625350Y-78060700D01*
X75625350Y-78060700D02*
X75625350Y-77827366D01*
X75625350Y-77827366D02*
X75658683Y-77694033D01*
X75658683Y-77694033D02*
X75725350Y-77627366D01*
X75725350Y-77627366D02*
X75792017Y-77594033D01*
X76325350Y-77594033D02*
X76758683Y-77594033D01*
X76758683Y-77594033D02*
X76525350Y-77860700D01*
X76525350Y-77860700D02*
X76625350Y-77860700D01*
X76625350Y-77860700D02*
X76692016Y-77894033D01*
X76692016Y-77894033D02*
X76725350Y-77927366D01*
X76725350Y-77927366D02*
X76758683Y-77994033D01*
X76758683Y-77994033D02*
X76758683Y-78160700D01*
X76758683Y-78160700D02*
X76725350Y-78227366D01*
X76725350Y-78227366D02*
X76692016Y-78260700D01*
X76692016Y-78260700D02*
X76625350Y-78294033D01*
X76625350Y-78294033D02*
X76425350Y-78294033D01*
X76425350Y-78294033D02*
X76358683Y-78260700D01*
X76358683Y-78260700D02*
X76325350Y-78227366D01*
X77358683Y-77827366D02*
X77358683Y-78294033D01*
X77192017Y-77560700D02*
X77025350Y-78060700D01*
X77025350Y-78060700D02*
X77458683Y-78060700D01*
X73825350Y-72514033D02*
X74058684Y-73214033D01*
X74058684Y-73214033D02*
X74292017Y-72514033D01*
X74525350Y-73214033D02*
X74525350Y-72514033D01*
X74525350Y-72514033D02*
X74792017Y-72514033D01*
X74792017Y-72514033D02*
X74858684Y-72547366D01*
X74858684Y-72547366D02*
X74892017Y-72580700D01*
X74892017Y-72580700D02*
X74925350Y-72647366D01*
X74925350Y-72647366D02*
X74925350Y-72747366D01*
X74925350Y-72747366D02*
X74892017Y-72814033D01*
X74892017Y-72814033D02*
X74858684Y-72847366D01*
X74858684Y-72847366D02*
X74792017Y-72880700D01*
X74792017Y-72880700D02*
X74525350Y-72880700D01*
X75725350Y-72480700D02*
X75125350Y-73380700D01*
X76325350Y-72547366D02*
X76258683Y-72514033D01*
X76258683Y-72514033D02*
X76158683Y-72514033D01*
X76158683Y-72514033D02*
X76058683Y-72547366D01*
X76058683Y-72547366D02*
X75992017Y-72614033D01*
X75992017Y-72614033D02*
X75958683Y-72680700D01*
X75958683Y-72680700D02*
X75925350Y-72814033D01*
X75925350Y-72814033D02*
X75925350Y-72914033D01*
X75925350Y-72914033D02*
X75958683Y-73047366D01*
X75958683Y-73047366D02*
X75992017Y-73114033D01*
X75992017Y-73114033D02*
X76058683Y-73180700D01*
X76058683Y-73180700D02*
X76158683Y-73214033D01*
X76158683Y-73214033D02*
X76225350Y-73214033D01*
X76225350Y-73214033D02*
X76325350Y-73180700D01*
X76325350Y-73180700D02*
X76358683Y-73147366D01*
X76358683Y-73147366D02*
X76358683Y-72914033D01*
X76358683Y-72914033D02*
X76225350Y-72914033D01*
X76658683Y-73214033D02*
X76658683Y-72514033D01*
X76658683Y-72514033D02*
X76925350Y-72514033D01*
X76925350Y-72514033D02*
X76992017Y-72547366D01*
X76992017Y-72547366D02*
X77025350Y-72580700D01*
X77025350Y-72580700D02*
X77058683Y-72647366D01*
X77058683Y-72647366D02*
X77058683Y-72747366D01*
X77058683Y-72747366D02*
X77025350Y-72814033D01*
X77025350Y-72814033D02*
X76992017Y-72847366D01*
X76992017Y-72847366D02*
X76925350Y-72880700D01*
X76925350Y-72880700D02*
X76658683Y-72880700D01*
X77358683Y-73214033D02*
X77358683Y-72514033D01*
X77825350Y-72514033D02*
X77958683Y-72514033D01*
X77958683Y-72514033D02*
X78025350Y-72547366D01*
X78025350Y-72547366D02*
X78092016Y-72614033D01*
X78092016Y-72614033D02*
X78125350Y-72747366D01*
X78125350Y-72747366D02*
X78125350Y-72980700D01*
X78125350Y-72980700D02*
X78092016Y-73114033D01*
X78092016Y-73114033D02*
X78025350Y-73180700D01*
X78025350Y-73180700D02*
X77958683Y-73214033D01*
X77958683Y-73214033D02*
X77825350Y-73214033D01*
X77825350Y-73214033D02*
X77758683Y-73180700D01*
X77758683Y-73180700D02*
X77692016Y-73114033D01*
X77692016Y-73114033D02*
X77658683Y-72980700D01*
X77658683Y-72980700D02*
X77658683Y-72747366D01*
X77658683Y-72747366D02*
X77692016Y-72614033D01*
X77692016Y-72614033D02*
X77758683Y-72547366D01*
X77758683Y-72547366D02*
X77825350Y-72514033D01*
X78358683Y-72514033D02*
X78792016Y-72514033D01*
X78792016Y-72514033D02*
X78558683Y-72780700D01*
X78558683Y-72780700D02*
X78658683Y-72780700D01*
X78658683Y-72780700D02*
X78725349Y-72814033D01*
X78725349Y-72814033D02*
X78758683Y-72847366D01*
X78758683Y-72847366D02*
X78792016Y-72914033D01*
X78792016Y-72914033D02*
X78792016Y-73080700D01*
X78792016Y-73080700D02*
X78758683Y-73147366D01*
X78758683Y-73147366D02*
X78725349Y-73180700D01*
X78725349Y-73180700D02*
X78658683Y-73214033D01*
X78658683Y-73214033D02*
X78458683Y-73214033D01*
X78458683Y-73214033D02*
X78392016Y-73180700D01*
X78392016Y-73180700D02*
X78358683Y-73147366D01*
X79392016Y-72514033D02*
X79258683Y-72514033D01*
X79258683Y-72514033D02*
X79192016Y-72547366D01*
X79192016Y-72547366D02*
X79158683Y-72580700D01*
X79158683Y-72580700D02*
X79092016Y-72680700D01*
X79092016Y-72680700D02*
X79058683Y-72814033D01*
X79058683Y-72814033D02*
X79058683Y-73080700D01*
X79058683Y-73080700D02*
X79092016Y-73147366D01*
X79092016Y-73147366D02*
X79125350Y-73180700D01*
X79125350Y-73180700D02*
X79192016Y-73214033D01*
X79192016Y-73214033D02*
X79325350Y-73214033D01*
X79325350Y-73214033D02*
X79392016Y-73180700D01*
X79392016Y-73180700D02*
X79425350Y-73147366D01*
X79425350Y-73147366D02*
X79458683Y-73080700D01*
X79458683Y-73080700D02*
X79458683Y-72914033D01*
X79458683Y-72914033D02*
X79425350Y-72847366D01*
X79425350Y-72847366D02*
X79392016Y-72814033D01*
X79392016Y-72814033D02*
X79325350Y-72780700D01*
X79325350Y-72780700D02*
X79192016Y-72780700D01*
X79192016Y-72780700D02*
X79125350Y-72814033D01*
X79125350Y-72814033D02*
X79092016Y-72847366D01*
X79092016Y-72847366D02*
X79058683Y-72914033D01*
X95221315Y-111314033D02*
X95221315Y-110614033D01*
X95221315Y-110614033D02*
X95387982Y-110614033D01*
X95387982Y-110614033D02*
X95487982Y-110647366D01*
X95487982Y-110647366D02*
X95554649Y-110714033D01*
X95554649Y-110714033D02*
X95587982Y-110780700D01*
X95587982Y-110780700D02*
X95621315Y-110914033D01*
X95621315Y-110914033D02*
X95621315Y-111014033D01*
X95621315Y-111014033D02*
X95587982Y-111147366D01*
X95587982Y-111147366D02*
X95554649Y-111214033D01*
X95554649Y-111214033D02*
X95487982Y-111280700D01*
X95487982Y-111280700D02*
X95387982Y-111314033D01*
X95387982Y-111314033D02*
X95221315Y-111314033D01*
X96054649Y-110614033D02*
X96121315Y-110614033D01*
X96121315Y-110614033D02*
X96187982Y-110647366D01*
X96187982Y-110647366D02*
X96221315Y-110680700D01*
X96221315Y-110680700D02*
X96254649Y-110747366D01*
X96254649Y-110747366D02*
X96287982Y-110880700D01*
X96287982Y-110880700D02*
X96287982Y-111047366D01*
X96287982Y-111047366D02*
X96254649Y-111180700D01*
X96254649Y-111180700D02*
X96221315Y-111247366D01*
X96221315Y-111247366D02*
X96187982Y-111280700D01*
X96187982Y-111280700D02*
X96121315Y-111314033D01*
X96121315Y-111314033D02*
X96054649Y-111314033D01*
X96054649Y-111314033D02*
X95987982Y-111280700D01*
X95987982Y-111280700D02*
X95954649Y-111247366D01*
X95954649Y-111247366D02*
X95921315Y-111180700D01*
X95921315Y-111180700D02*
X95887982Y-111047366D01*
X95887982Y-111047366D02*
X95887982Y-110880700D01*
X95887982Y-110880700D02*
X95921315Y-110747366D01*
X95921315Y-110747366D02*
X95954649Y-110680700D01*
X95954649Y-110680700D02*
X95987982Y-110647366D01*
X95987982Y-110647366D02*
X96054649Y-110614033D01*
X74292017Y-82707366D02*
X74225350Y-82674033D01*
X74225350Y-82674033D02*
X74125350Y-82674033D01*
X74125350Y-82674033D02*
X74025350Y-82707366D01*
X74025350Y-82707366D02*
X73958684Y-82774033D01*
X73958684Y-82774033D02*
X73925350Y-82840700D01*
X73925350Y-82840700D02*
X73892017Y-82974033D01*
X73892017Y-82974033D02*
X73892017Y-83074033D01*
X73892017Y-83074033D02*
X73925350Y-83207366D01*
X73925350Y-83207366D02*
X73958684Y-83274033D01*
X73958684Y-83274033D02*
X74025350Y-83340700D01*
X74025350Y-83340700D02*
X74125350Y-83374033D01*
X74125350Y-83374033D02*
X74192017Y-83374033D01*
X74192017Y-83374033D02*
X74292017Y-83340700D01*
X74292017Y-83340700D02*
X74325350Y-83307366D01*
X74325350Y-83307366D02*
X74325350Y-83074033D01*
X74325350Y-83074033D02*
X74192017Y-83074033D01*
X74625350Y-83374033D02*
X74625350Y-82674033D01*
X74625350Y-82674033D02*
X74892017Y-82674033D01*
X74892017Y-82674033D02*
X74958684Y-82707366D01*
X74958684Y-82707366D02*
X74992017Y-82740700D01*
X74992017Y-82740700D02*
X75025350Y-82807366D01*
X75025350Y-82807366D02*
X75025350Y-82907366D01*
X75025350Y-82907366D02*
X74992017Y-82974033D01*
X74992017Y-82974033D02*
X74958684Y-83007366D01*
X74958684Y-83007366D02*
X74892017Y-83040700D01*
X74892017Y-83040700D02*
X74625350Y-83040700D01*
X75325350Y-83374033D02*
X75325350Y-82674033D01*
X75792017Y-82674033D02*
X75925350Y-82674033D01*
X75925350Y-82674033D02*
X75992017Y-82707366D01*
X75992017Y-82707366D02*
X76058683Y-82774033D01*
X76058683Y-82774033D02*
X76092017Y-82907366D01*
X76092017Y-82907366D02*
X76092017Y-83140700D01*
X76092017Y-83140700D02*
X76058683Y-83274033D01*
X76058683Y-83274033D02*
X75992017Y-83340700D01*
X75992017Y-83340700D02*
X75925350Y-83374033D01*
X75925350Y-83374033D02*
X75792017Y-83374033D01*
X75792017Y-83374033D02*
X75725350Y-83340700D01*
X75725350Y-83340700D02*
X75658683Y-83274033D01*
X75658683Y-83274033D02*
X75625350Y-83140700D01*
X75625350Y-83140700D02*
X75625350Y-82907366D01*
X75625350Y-82907366D02*
X75658683Y-82774033D01*
X75658683Y-82774033D02*
X75725350Y-82707366D01*
X75725350Y-82707366D02*
X75792017Y-82674033D01*
X76325350Y-82674033D02*
X76758683Y-82674033D01*
X76758683Y-82674033D02*
X76525350Y-82940700D01*
X76525350Y-82940700D02*
X76625350Y-82940700D01*
X76625350Y-82940700D02*
X76692016Y-82974033D01*
X76692016Y-82974033D02*
X76725350Y-83007366D01*
X76725350Y-83007366D02*
X76758683Y-83074033D01*
X76758683Y-83074033D02*
X76758683Y-83240700D01*
X76758683Y-83240700D02*
X76725350Y-83307366D01*
X76725350Y-83307366D02*
X76692016Y-83340700D01*
X76692016Y-83340700D02*
X76625350Y-83374033D01*
X76625350Y-83374033D02*
X76425350Y-83374033D01*
X76425350Y-83374033D02*
X76358683Y-83340700D01*
X76358683Y-83340700D02*
X76325350Y-83307366D01*
X77025350Y-82740700D02*
X77058683Y-82707366D01*
X77058683Y-82707366D02*
X77125350Y-82674033D01*
X77125350Y-82674033D02*
X77292017Y-82674033D01*
X77292017Y-82674033D02*
X77358683Y-82707366D01*
X77358683Y-82707366D02*
X77392017Y-82740700D01*
X77392017Y-82740700D02*
X77425350Y-82807366D01*
X77425350Y-82807366D02*
X77425350Y-82874033D01*
X77425350Y-82874033D02*
X77392017Y-82974033D01*
X77392017Y-82974033D02*
X76992017Y-83374033D01*
X76992017Y-83374033D02*
X77425350Y-83374033D01*
X74292017Y-80167366D02*
X74225350Y-80134033D01*
X74225350Y-80134033D02*
X74125350Y-80134033D01*
X74125350Y-80134033D02*
X74025350Y-80167366D01*
X74025350Y-80167366D02*
X73958684Y-80234033D01*
X73958684Y-80234033D02*
X73925350Y-80300700D01*
X73925350Y-80300700D02*
X73892017Y-80434033D01*
X73892017Y-80434033D02*
X73892017Y-80534033D01*
X73892017Y-80534033D02*
X73925350Y-80667366D01*
X73925350Y-80667366D02*
X73958684Y-80734033D01*
X73958684Y-80734033D02*
X74025350Y-80800700D01*
X74025350Y-80800700D02*
X74125350Y-80834033D01*
X74125350Y-80834033D02*
X74192017Y-80834033D01*
X74192017Y-80834033D02*
X74292017Y-80800700D01*
X74292017Y-80800700D02*
X74325350Y-80767366D01*
X74325350Y-80767366D02*
X74325350Y-80534033D01*
X74325350Y-80534033D02*
X74192017Y-80534033D01*
X74625350Y-80834033D02*
X74625350Y-80134033D01*
X74625350Y-80134033D02*
X74892017Y-80134033D01*
X74892017Y-80134033D02*
X74958684Y-80167366D01*
X74958684Y-80167366D02*
X74992017Y-80200700D01*
X74992017Y-80200700D02*
X75025350Y-80267366D01*
X75025350Y-80267366D02*
X75025350Y-80367366D01*
X75025350Y-80367366D02*
X74992017Y-80434033D01*
X74992017Y-80434033D02*
X74958684Y-80467366D01*
X74958684Y-80467366D02*
X74892017Y-80500700D01*
X74892017Y-80500700D02*
X74625350Y-80500700D01*
X75325350Y-80834033D02*
X75325350Y-80134033D01*
X75792017Y-80134033D02*
X75925350Y-80134033D01*
X75925350Y-80134033D02*
X75992017Y-80167366D01*
X75992017Y-80167366D02*
X76058683Y-80234033D01*
X76058683Y-80234033D02*
X76092017Y-80367366D01*
X76092017Y-80367366D02*
X76092017Y-80600700D01*
X76092017Y-80600700D02*
X76058683Y-80734033D01*
X76058683Y-80734033D02*
X75992017Y-80800700D01*
X75992017Y-80800700D02*
X75925350Y-80834033D01*
X75925350Y-80834033D02*
X75792017Y-80834033D01*
X75792017Y-80834033D02*
X75725350Y-80800700D01*
X75725350Y-80800700D02*
X75658683Y-80734033D01*
X75658683Y-80734033D02*
X75625350Y-80600700D01*
X75625350Y-80600700D02*
X75625350Y-80367366D01*
X75625350Y-80367366D02*
X75658683Y-80234033D01*
X75658683Y-80234033D02*
X75725350Y-80167366D01*
X75725350Y-80167366D02*
X75792017Y-80134033D01*
X76325350Y-80134033D02*
X76758683Y-80134033D01*
X76758683Y-80134033D02*
X76525350Y-80400700D01*
X76525350Y-80400700D02*
X76625350Y-80400700D01*
X76625350Y-80400700D02*
X76692016Y-80434033D01*
X76692016Y-80434033D02*
X76725350Y-80467366D01*
X76725350Y-80467366D02*
X76758683Y-80534033D01*
X76758683Y-80534033D02*
X76758683Y-80700700D01*
X76758683Y-80700700D02*
X76725350Y-80767366D01*
X76725350Y-80767366D02*
X76692016Y-80800700D01*
X76692016Y-80800700D02*
X76625350Y-80834033D01*
X76625350Y-80834033D02*
X76425350Y-80834033D01*
X76425350Y-80834033D02*
X76358683Y-80800700D01*
X76358683Y-80800700D02*
X76325350Y-80767366D01*
X77392017Y-80134033D02*
X77058683Y-80134033D01*
X77058683Y-80134033D02*
X77025350Y-80467366D01*
X77025350Y-80467366D02*
X77058683Y-80434033D01*
X77058683Y-80434033D02*
X77125350Y-80400700D01*
X77125350Y-80400700D02*
X77292017Y-80400700D01*
X77292017Y-80400700D02*
X77358683Y-80434033D01*
X77358683Y-80434033D02*
X77392017Y-80467366D01*
X77392017Y-80467366D02*
X77425350Y-80534033D01*
X77425350Y-80534033D02*
X77425350Y-80700700D01*
X77425350Y-80700700D02*
X77392017Y-80767366D01*
X77392017Y-80767366D02*
X77358683Y-80800700D01*
X77358683Y-80800700D02*
X77292017Y-80834033D01*
X77292017Y-80834033D02*
X77125350Y-80834033D01*
X77125350Y-80834033D02*
X77058683Y-80800700D01*
X77058683Y-80800700D02*
X77025350Y-80767366D01*
X89621316Y-77627366D02*
X89554649Y-77594033D01*
X89554649Y-77594033D02*
X89454649Y-77594033D01*
X89454649Y-77594033D02*
X89354649Y-77627366D01*
X89354649Y-77627366D02*
X89287983Y-77694033D01*
X89287983Y-77694033D02*
X89254649Y-77760700D01*
X89254649Y-77760700D02*
X89221316Y-77894033D01*
X89221316Y-77894033D02*
X89221316Y-77994033D01*
X89221316Y-77994033D02*
X89254649Y-78127366D01*
X89254649Y-78127366D02*
X89287983Y-78194033D01*
X89287983Y-78194033D02*
X89354649Y-78260700D01*
X89354649Y-78260700D02*
X89454649Y-78294033D01*
X89454649Y-78294033D02*
X89521316Y-78294033D01*
X89521316Y-78294033D02*
X89621316Y-78260700D01*
X89621316Y-78260700D02*
X89654649Y-78227366D01*
X89654649Y-78227366D02*
X89654649Y-77994033D01*
X89654649Y-77994033D02*
X89521316Y-77994033D01*
X89954649Y-78294033D02*
X89954649Y-77594033D01*
X89954649Y-77594033D02*
X90221316Y-77594033D01*
X90221316Y-77594033D02*
X90287983Y-77627366D01*
X90287983Y-77627366D02*
X90321316Y-77660700D01*
X90321316Y-77660700D02*
X90354649Y-77727366D01*
X90354649Y-77727366D02*
X90354649Y-77827366D01*
X90354649Y-77827366D02*
X90321316Y-77894033D01*
X90321316Y-77894033D02*
X90287983Y-77927366D01*
X90287983Y-77927366D02*
X90221316Y-77960700D01*
X90221316Y-77960700D02*
X89954649Y-77960700D01*
X90654649Y-78294033D02*
X90654649Y-77594033D01*
X91121316Y-77594033D02*
X91254649Y-77594033D01*
X91254649Y-77594033D02*
X91321316Y-77627366D01*
X91321316Y-77627366D02*
X91387982Y-77694033D01*
X91387982Y-77694033D02*
X91421316Y-77827366D01*
X91421316Y-77827366D02*
X91421316Y-78060700D01*
X91421316Y-78060700D02*
X91387982Y-78194033D01*
X91387982Y-78194033D02*
X91321316Y-78260700D01*
X91321316Y-78260700D02*
X91254649Y-78294033D01*
X91254649Y-78294033D02*
X91121316Y-78294033D01*
X91121316Y-78294033D02*
X91054649Y-78260700D01*
X91054649Y-78260700D02*
X90987982Y-78194033D01*
X90987982Y-78194033D02*
X90954649Y-78060700D01*
X90954649Y-78060700D02*
X90954649Y-77827366D01*
X90954649Y-77827366D02*
X90987982Y-77694033D01*
X90987982Y-77694033D02*
X91054649Y-77627366D01*
X91054649Y-77627366D02*
X91121316Y-77594033D01*
X91654649Y-77594033D02*
X92087982Y-77594033D01*
X92087982Y-77594033D02*
X91854649Y-77860700D01*
X91854649Y-77860700D02*
X91954649Y-77860700D01*
X91954649Y-77860700D02*
X92021315Y-77894033D01*
X92021315Y-77894033D02*
X92054649Y-77927366D01*
X92054649Y-77927366D02*
X92087982Y-77994033D01*
X92087982Y-77994033D02*
X92087982Y-78160700D01*
X92087982Y-78160700D02*
X92054649Y-78227366D01*
X92054649Y-78227366D02*
X92021315Y-78260700D01*
X92021315Y-78260700D02*
X91954649Y-78294033D01*
X91954649Y-78294033D02*
X91754649Y-78294033D01*
X91754649Y-78294033D02*
X91687982Y-78260700D01*
X91687982Y-78260700D02*
X91654649Y-78227366D01*
X92887982Y-77560700D02*
X92287982Y-78460700D01*
X93121315Y-77594033D02*
X93121315Y-78160700D01*
X93121315Y-78160700D02*
X93154649Y-78227366D01*
X93154649Y-78227366D02*
X93187982Y-78260700D01*
X93187982Y-78260700D02*
X93254649Y-78294033D01*
X93254649Y-78294033D02*
X93387982Y-78294033D01*
X93387982Y-78294033D02*
X93454649Y-78260700D01*
X93454649Y-78260700D02*
X93487982Y-78227366D01*
X93487982Y-78227366D02*
X93521315Y-78160700D01*
X93521315Y-78160700D02*
X93521315Y-77594033D01*
X93987982Y-77594033D02*
X94054648Y-77594033D01*
X94054648Y-77594033D02*
X94121315Y-77627366D01*
X94121315Y-77627366D02*
X94154648Y-77660700D01*
X94154648Y-77660700D02*
X94187982Y-77727366D01*
X94187982Y-77727366D02*
X94221315Y-77860700D01*
X94221315Y-77860700D02*
X94221315Y-78027366D01*
X94221315Y-78027366D02*
X94187982Y-78160700D01*
X94187982Y-78160700D02*
X94154648Y-78227366D01*
X94154648Y-78227366D02*
X94121315Y-78260700D01*
X94121315Y-78260700D02*
X94054648Y-78294033D01*
X94054648Y-78294033D02*
X93987982Y-78294033D01*
X93987982Y-78294033D02*
X93921315Y-78260700D01*
X93921315Y-78260700D02*
X93887982Y-78227366D01*
X93887982Y-78227366D02*
X93854648Y-78160700D01*
X93854648Y-78160700D02*
X93821315Y-78027366D01*
X93821315Y-78027366D02*
X93821315Y-77860700D01*
X93821315Y-77860700D02*
X93854648Y-77727366D01*
X93854648Y-77727366D02*
X93887982Y-77660700D01*
X93887982Y-77660700D02*
X93921315Y-77627366D01*
X93921315Y-77627366D02*
X93987982Y-77594033D01*
X94921315Y-78294033D02*
X94687982Y-77960700D01*
X94521315Y-78294033D02*
X94521315Y-77594033D01*
X94521315Y-77594033D02*
X94787982Y-77594033D01*
X94787982Y-77594033D02*
X94854649Y-77627366D01*
X94854649Y-77627366D02*
X94887982Y-77660700D01*
X94887982Y-77660700D02*
X94921315Y-77727366D01*
X94921315Y-77727366D02*
X94921315Y-77827366D01*
X94921315Y-77827366D02*
X94887982Y-77894033D01*
X94887982Y-77894033D02*
X94854649Y-77927366D01*
X94854649Y-77927366D02*
X94787982Y-77960700D01*
X94787982Y-77960700D02*
X94521315Y-77960700D01*
X95154649Y-77594033D02*
X95621315Y-78294033D01*
X95621315Y-77594033D02*
X95154649Y-78294033D01*
X95887982Y-78294033D02*
X95887982Y-77594033D01*
X95887982Y-77594033D02*
X96054649Y-77594033D01*
X96054649Y-77594033D02*
X96154649Y-77627366D01*
X96154649Y-77627366D02*
X96221316Y-77694033D01*
X96221316Y-77694033D02*
X96254649Y-77760700D01*
X96254649Y-77760700D02*
X96287982Y-77894033D01*
X96287982Y-77894033D02*
X96287982Y-77994033D01*
X96287982Y-77994033D02*
X96254649Y-78127366D01*
X96254649Y-78127366D02*
X96221316Y-78194033D01*
X96221316Y-78194033D02*
X96154649Y-78260700D01*
X96154649Y-78260700D02*
X96054649Y-78294033D01*
X96054649Y-78294033D02*
X95887982Y-78294033D01*
X74292017Y-92867366D02*
X74225350Y-92834033D01*
X74225350Y-92834033D02*
X74125350Y-92834033D01*
X74125350Y-92834033D02*
X74025350Y-92867366D01*
X74025350Y-92867366D02*
X73958684Y-92934033D01*
X73958684Y-92934033D02*
X73925350Y-93000700D01*
X73925350Y-93000700D02*
X73892017Y-93134033D01*
X73892017Y-93134033D02*
X73892017Y-93234033D01*
X73892017Y-93234033D02*
X73925350Y-93367366D01*
X73925350Y-93367366D02*
X73958684Y-93434033D01*
X73958684Y-93434033D02*
X74025350Y-93500700D01*
X74025350Y-93500700D02*
X74125350Y-93534033D01*
X74125350Y-93534033D02*
X74192017Y-93534033D01*
X74192017Y-93534033D02*
X74292017Y-93500700D01*
X74292017Y-93500700D02*
X74325350Y-93467366D01*
X74325350Y-93467366D02*
X74325350Y-93234033D01*
X74325350Y-93234033D02*
X74192017Y-93234033D01*
X74625350Y-93534033D02*
X74625350Y-92834033D01*
X74625350Y-92834033D02*
X74892017Y-92834033D01*
X74892017Y-92834033D02*
X74958684Y-92867366D01*
X74958684Y-92867366D02*
X74992017Y-92900700D01*
X74992017Y-92900700D02*
X75025350Y-92967366D01*
X75025350Y-92967366D02*
X75025350Y-93067366D01*
X75025350Y-93067366D02*
X74992017Y-93134033D01*
X74992017Y-93134033D02*
X74958684Y-93167366D01*
X74958684Y-93167366D02*
X74892017Y-93200700D01*
X74892017Y-93200700D02*
X74625350Y-93200700D01*
X75325350Y-93534033D02*
X75325350Y-92834033D01*
X75792017Y-92834033D02*
X75925350Y-92834033D01*
X75925350Y-92834033D02*
X75992017Y-92867366D01*
X75992017Y-92867366D02*
X76058683Y-92934033D01*
X76058683Y-92934033D02*
X76092017Y-93067366D01*
X76092017Y-93067366D02*
X76092017Y-93300700D01*
X76092017Y-93300700D02*
X76058683Y-93434033D01*
X76058683Y-93434033D02*
X75992017Y-93500700D01*
X75992017Y-93500700D02*
X75925350Y-93534033D01*
X75925350Y-93534033D02*
X75792017Y-93534033D01*
X75792017Y-93534033D02*
X75725350Y-93500700D01*
X75725350Y-93500700D02*
X75658683Y-93434033D01*
X75658683Y-93434033D02*
X75625350Y-93300700D01*
X75625350Y-93300700D02*
X75625350Y-93067366D01*
X75625350Y-93067366D02*
X75658683Y-92934033D01*
X75658683Y-92934033D02*
X75725350Y-92867366D01*
X75725350Y-92867366D02*
X75792017Y-92834033D01*
X76358683Y-92900700D02*
X76392016Y-92867366D01*
X76392016Y-92867366D02*
X76458683Y-92834033D01*
X76458683Y-92834033D02*
X76625350Y-92834033D01*
X76625350Y-92834033D02*
X76692016Y-92867366D01*
X76692016Y-92867366D02*
X76725350Y-92900700D01*
X76725350Y-92900700D02*
X76758683Y-92967366D01*
X76758683Y-92967366D02*
X76758683Y-93034033D01*
X76758683Y-93034033D02*
X76725350Y-93134033D01*
X76725350Y-93134033D02*
X76325350Y-93534033D01*
X76325350Y-93534033D02*
X76758683Y-93534033D01*
X76992017Y-92834033D02*
X77458683Y-92834033D01*
X77458683Y-92834033D02*
X77158683Y-93534033D01*
X74520588Y-100340438D02*
X74425350Y-100292819D01*
X74425350Y-100292819D02*
X74282493Y-100292819D01*
X74282493Y-100292819D02*
X74139636Y-100340438D01*
X74139636Y-100340438D02*
X74044398Y-100435676D01*
X74044398Y-100435676D02*
X73996779Y-100530914D01*
X73996779Y-100530914D02*
X73949160Y-100721390D01*
X73949160Y-100721390D02*
X73949160Y-100864247D01*
X73949160Y-100864247D02*
X73996779Y-101054723D01*
X73996779Y-101054723D02*
X74044398Y-101149961D01*
X74044398Y-101149961D02*
X74139636Y-101245200D01*
X74139636Y-101245200D02*
X74282493Y-101292819D01*
X74282493Y-101292819D02*
X74377731Y-101292819D01*
X74377731Y-101292819D02*
X74520588Y-101245200D01*
X74520588Y-101245200D02*
X74568207Y-101197580D01*
X74568207Y-101197580D02*
X74568207Y-100864247D01*
X74568207Y-100864247D02*
X74377731Y-100864247D01*
X74996779Y-101292819D02*
X74996779Y-100292819D01*
X74996779Y-100292819D02*
X75568207Y-101292819D01*
X75568207Y-101292819D02*
X75568207Y-100292819D01*
X76044398Y-101292819D02*
X76044398Y-100292819D01*
X76044398Y-100292819D02*
X76282493Y-100292819D01*
X76282493Y-100292819D02*
X76425350Y-100340438D01*
X76425350Y-100340438D02*
X76520588Y-100435676D01*
X76520588Y-100435676D02*
X76568207Y-100530914D01*
X76568207Y-100530914D02*
X76615826Y-100721390D01*
X76615826Y-100721390D02*
X76615826Y-100864247D01*
X76615826Y-100864247D02*
X76568207Y-101054723D01*
X76568207Y-101054723D02*
X76520588Y-101149961D01*
X76520588Y-101149961D02*
X76425350Y-101245200D01*
X76425350Y-101245200D02*
X76282493Y-101292819D01*
X76282493Y-101292819D02*
X76044398Y-101292819D01*
X74292017Y-97947366D02*
X74225350Y-97914033D01*
X74225350Y-97914033D02*
X74125350Y-97914033D01*
X74125350Y-97914033D02*
X74025350Y-97947366D01*
X74025350Y-97947366D02*
X73958684Y-98014033D01*
X73958684Y-98014033D02*
X73925350Y-98080700D01*
X73925350Y-98080700D02*
X73892017Y-98214033D01*
X73892017Y-98214033D02*
X73892017Y-98314033D01*
X73892017Y-98314033D02*
X73925350Y-98447366D01*
X73925350Y-98447366D02*
X73958684Y-98514033D01*
X73958684Y-98514033D02*
X74025350Y-98580700D01*
X74025350Y-98580700D02*
X74125350Y-98614033D01*
X74125350Y-98614033D02*
X74192017Y-98614033D01*
X74192017Y-98614033D02*
X74292017Y-98580700D01*
X74292017Y-98580700D02*
X74325350Y-98547366D01*
X74325350Y-98547366D02*
X74325350Y-98314033D01*
X74325350Y-98314033D02*
X74192017Y-98314033D01*
X74625350Y-98614033D02*
X74625350Y-97914033D01*
X74625350Y-97914033D02*
X74892017Y-97914033D01*
X74892017Y-97914033D02*
X74958684Y-97947366D01*
X74958684Y-97947366D02*
X74992017Y-97980700D01*
X74992017Y-97980700D02*
X75025350Y-98047366D01*
X75025350Y-98047366D02*
X75025350Y-98147366D01*
X75025350Y-98147366D02*
X74992017Y-98214033D01*
X74992017Y-98214033D02*
X74958684Y-98247366D01*
X74958684Y-98247366D02*
X74892017Y-98280700D01*
X74892017Y-98280700D02*
X74625350Y-98280700D01*
X75325350Y-98614033D02*
X75325350Y-97914033D01*
X75792017Y-97914033D02*
X75925350Y-97914033D01*
X75925350Y-97914033D02*
X75992017Y-97947366D01*
X75992017Y-97947366D02*
X76058683Y-98014033D01*
X76058683Y-98014033D02*
X76092017Y-98147366D01*
X76092017Y-98147366D02*
X76092017Y-98380700D01*
X76092017Y-98380700D02*
X76058683Y-98514033D01*
X76058683Y-98514033D02*
X75992017Y-98580700D01*
X75992017Y-98580700D02*
X75925350Y-98614033D01*
X75925350Y-98614033D02*
X75792017Y-98614033D01*
X75792017Y-98614033D02*
X75725350Y-98580700D01*
X75725350Y-98580700D02*
X75658683Y-98514033D01*
X75658683Y-98514033D02*
X75625350Y-98380700D01*
X75625350Y-98380700D02*
X75625350Y-98147366D01*
X75625350Y-98147366D02*
X75658683Y-98014033D01*
X75658683Y-98014033D02*
X75725350Y-97947366D01*
X75725350Y-97947366D02*
X75792017Y-97914033D01*
X76758683Y-98614033D02*
X76358683Y-98614033D01*
X76558683Y-98614033D02*
X76558683Y-97914033D01*
X76558683Y-97914033D02*
X76492016Y-98014033D01*
X76492016Y-98014033D02*
X76425350Y-98080700D01*
X76425350Y-98080700D02*
X76358683Y-98114033D01*
X77025350Y-97980700D02*
X77058683Y-97947366D01*
X77058683Y-97947366D02*
X77125350Y-97914033D01*
X77125350Y-97914033D02*
X77292017Y-97914033D01*
X77292017Y-97914033D02*
X77358683Y-97947366D01*
X77358683Y-97947366D02*
X77392017Y-97980700D01*
X77392017Y-97980700D02*
X77425350Y-98047366D01*
X77425350Y-98047366D02*
X77425350Y-98114033D01*
X77425350Y-98114033D02*
X77392017Y-98214033D01*
X77392017Y-98214033D02*
X76992017Y-98614033D01*
X76992017Y-98614033D02*
X77425350Y-98614033D01*
X78225350Y-97880700D02*
X77625350Y-98780700D01*
X78458683Y-98614033D02*
X78458683Y-97914033D01*
X78458683Y-97914033D02*
X78692017Y-98414033D01*
X78692017Y-98414033D02*
X78925350Y-97914033D01*
X78925350Y-97914033D02*
X78925350Y-98614033D01*
X79158683Y-97914033D02*
X79558683Y-97914033D01*
X79358683Y-98614033D02*
X79358683Y-97914033D01*
X79792016Y-98614033D02*
X79792016Y-97914033D01*
X79792016Y-97914033D02*
X79958683Y-97914033D01*
X79958683Y-97914033D02*
X80058683Y-97947366D01*
X80058683Y-97947366D02*
X80125350Y-98014033D01*
X80125350Y-98014033D02*
X80158683Y-98080700D01*
X80158683Y-98080700D02*
X80192016Y-98214033D01*
X80192016Y-98214033D02*
X80192016Y-98314033D01*
X80192016Y-98314033D02*
X80158683Y-98447366D01*
X80158683Y-98447366D02*
X80125350Y-98514033D01*
X80125350Y-98514033D02*
X80058683Y-98580700D01*
X80058683Y-98580700D02*
X79958683Y-98614033D01*
X79958683Y-98614033D02*
X79792016Y-98614033D01*
X80492016Y-98614033D02*
X80492016Y-97914033D01*
X89654650Y-105567366D02*
X89587983Y-105534033D01*
X89587983Y-105534033D02*
X89487983Y-105534033D01*
X89487983Y-105534033D02*
X89387983Y-105567366D01*
X89387983Y-105567366D02*
X89321317Y-105634033D01*
X89321317Y-105634033D02*
X89287983Y-105700700D01*
X89287983Y-105700700D02*
X89254650Y-105834033D01*
X89254650Y-105834033D02*
X89254650Y-105934033D01*
X89254650Y-105934033D02*
X89287983Y-106067366D01*
X89287983Y-106067366D02*
X89321317Y-106134033D01*
X89321317Y-106134033D02*
X89387983Y-106200700D01*
X89387983Y-106200700D02*
X89487983Y-106234033D01*
X89487983Y-106234033D02*
X89554650Y-106234033D01*
X89554650Y-106234033D02*
X89654650Y-106200700D01*
X89654650Y-106200700D02*
X89687983Y-106167366D01*
X89687983Y-106167366D02*
X89687983Y-105934033D01*
X89687983Y-105934033D02*
X89554650Y-105934033D01*
X89987983Y-106234033D02*
X89987983Y-105534033D01*
X89987983Y-105534033D02*
X90254650Y-105534033D01*
X90254650Y-105534033D02*
X90321317Y-105567366D01*
X90321317Y-105567366D02*
X90354650Y-105600700D01*
X90354650Y-105600700D02*
X90387983Y-105667366D01*
X90387983Y-105667366D02*
X90387983Y-105767366D01*
X90387983Y-105767366D02*
X90354650Y-105834033D01*
X90354650Y-105834033D02*
X90321317Y-105867366D01*
X90321317Y-105867366D02*
X90254650Y-105900700D01*
X90254650Y-105900700D02*
X89987983Y-105900700D01*
X90687983Y-106234033D02*
X90687983Y-105534033D01*
X91154650Y-105534033D02*
X91287983Y-105534033D01*
X91287983Y-105534033D02*
X91354650Y-105567366D01*
X91354650Y-105567366D02*
X91421316Y-105634033D01*
X91421316Y-105634033D02*
X91454650Y-105767366D01*
X91454650Y-105767366D02*
X91454650Y-106000700D01*
X91454650Y-106000700D02*
X91421316Y-106134033D01*
X91421316Y-106134033D02*
X91354650Y-106200700D01*
X91354650Y-106200700D02*
X91287983Y-106234033D01*
X91287983Y-106234033D02*
X91154650Y-106234033D01*
X91154650Y-106234033D02*
X91087983Y-106200700D01*
X91087983Y-106200700D02*
X91021316Y-106134033D01*
X91021316Y-106134033D02*
X90987983Y-106000700D01*
X90987983Y-106000700D02*
X90987983Y-105767366D01*
X90987983Y-105767366D02*
X91021316Y-105634033D01*
X91021316Y-105634033D02*
X91087983Y-105567366D01*
X91087983Y-105567366D02*
X91154650Y-105534033D01*
X92121316Y-106234033D02*
X91721316Y-106234033D01*
X91921316Y-106234033D02*
X91921316Y-105534033D01*
X91921316Y-105534033D02*
X91854649Y-105634033D01*
X91854649Y-105634033D02*
X91787983Y-105700700D01*
X91787983Y-105700700D02*
X91721316Y-105734033D01*
X92754650Y-105534033D02*
X92421316Y-105534033D01*
X92421316Y-105534033D02*
X92387983Y-105867366D01*
X92387983Y-105867366D02*
X92421316Y-105834033D01*
X92421316Y-105834033D02*
X92487983Y-105800700D01*
X92487983Y-105800700D02*
X92654650Y-105800700D01*
X92654650Y-105800700D02*
X92721316Y-105834033D01*
X92721316Y-105834033D02*
X92754650Y-105867366D01*
X92754650Y-105867366D02*
X92787983Y-105934033D01*
X92787983Y-105934033D02*
X92787983Y-106100700D01*
X92787983Y-106100700D02*
X92754650Y-106167366D01*
X92754650Y-106167366D02*
X92721316Y-106200700D01*
X92721316Y-106200700D02*
X92654650Y-106234033D01*
X92654650Y-106234033D02*
X92487983Y-106234033D01*
X92487983Y-106234033D02*
X92421316Y-106200700D01*
X92421316Y-106200700D02*
X92387983Y-106167366D01*
X93587983Y-105500700D02*
X92987983Y-106400700D01*
X93821316Y-106234033D02*
X93821316Y-105534033D01*
X93821316Y-105534033D02*
X94054650Y-106034033D01*
X94054650Y-106034033D02*
X94287983Y-105534033D01*
X94287983Y-105534033D02*
X94287983Y-106234033D01*
X94521316Y-105534033D02*
X94921316Y-105534033D01*
X94721316Y-106234033D02*
X94721316Y-105534033D01*
X95154649Y-106234033D02*
X95154649Y-105534033D01*
X95154649Y-105534033D02*
X95321316Y-105534033D01*
X95321316Y-105534033D02*
X95421316Y-105567366D01*
X95421316Y-105567366D02*
X95487983Y-105634033D01*
X95487983Y-105634033D02*
X95521316Y-105700700D01*
X95521316Y-105700700D02*
X95554649Y-105834033D01*
X95554649Y-105834033D02*
X95554649Y-105934033D01*
X95554649Y-105934033D02*
X95521316Y-106067366D01*
X95521316Y-106067366D02*
X95487983Y-106134033D01*
X95487983Y-106134033D02*
X95421316Y-106200700D01*
X95421316Y-106200700D02*
X95321316Y-106234033D01*
X95321316Y-106234033D02*
X95154649Y-106234033D01*
X95987983Y-105534033D02*
X96121316Y-105534033D01*
X96121316Y-105534033D02*
X96187983Y-105567366D01*
X96187983Y-105567366D02*
X96254649Y-105634033D01*
X96254649Y-105634033D02*
X96287983Y-105767366D01*
X96287983Y-105767366D02*
X96287983Y-106000700D01*
X96287983Y-106000700D02*
X96254649Y-106134033D01*
X96254649Y-106134033D02*
X96187983Y-106200700D01*
X96187983Y-106200700D02*
X96121316Y-106234033D01*
X96121316Y-106234033D02*
X95987983Y-106234033D01*
X95987983Y-106234033D02*
X95921316Y-106200700D01*
X95921316Y-106200700D02*
X95854649Y-106134033D01*
X95854649Y-106134033D02*
X95821316Y-106000700D01*
X95821316Y-106000700D02*
X95821316Y-105767366D01*
X95821316Y-105767366D02*
X95854649Y-105634033D01*
X95854649Y-105634033D02*
X95921316Y-105567366D01*
X95921316Y-105567366D02*
X95987983Y-105534033D01*
X93154649Y-85247366D02*
X93087982Y-85214033D01*
X93087982Y-85214033D02*
X92987982Y-85214033D01*
X92987982Y-85214033D02*
X92887982Y-85247366D01*
X92887982Y-85247366D02*
X92821316Y-85314033D01*
X92821316Y-85314033D02*
X92787982Y-85380700D01*
X92787982Y-85380700D02*
X92754649Y-85514033D01*
X92754649Y-85514033D02*
X92754649Y-85614033D01*
X92754649Y-85614033D02*
X92787982Y-85747366D01*
X92787982Y-85747366D02*
X92821316Y-85814033D01*
X92821316Y-85814033D02*
X92887982Y-85880700D01*
X92887982Y-85880700D02*
X92987982Y-85914033D01*
X92987982Y-85914033D02*
X93054649Y-85914033D01*
X93054649Y-85914033D02*
X93154649Y-85880700D01*
X93154649Y-85880700D02*
X93187982Y-85847366D01*
X93187982Y-85847366D02*
X93187982Y-85614033D01*
X93187982Y-85614033D02*
X93054649Y-85614033D01*
X93487982Y-85914033D02*
X93487982Y-85214033D01*
X93487982Y-85214033D02*
X93754649Y-85214033D01*
X93754649Y-85214033D02*
X93821316Y-85247366D01*
X93821316Y-85247366D02*
X93854649Y-85280700D01*
X93854649Y-85280700D02*
X93887982Y-85347366D01*
X93887982Y-85347366D02*
X93887982Y-85447366D01*
X93887982Y-85447366D02*
X93854649Y-85514033D01*
X93854649Y-85514033D02*
X93821316Y-85547366D01*
X93821316Y-85547366D02*
X93754649Y-85580700D01*
X93754649Y-85580700D02*
X93487982Y-85580700D01*
X94187982Y-85914033D02*
X94187982Y-85214033D01*
X94654649Y-85214033D02*
X94787982Y-85214033D01*
X94787982Y-85214033D02*
X94854649Y-85247366D01*
X94854649Y-85247366D02*
X94921315Y-85314033D01*
X94921315Y-85314033D02*
X94954649Y-85447366D01*
X94954649Y-85447366D02*
X94954649Y-85680700D01*
X94954649Y-85680700D02*
X94921315Y-85814033D01*
X94921315Y-85814033D02*
X94854649Y-85880700D01*
X94854649Y-85880700D02*
X94787982Y-85914033D01*
X94787982Y-85914033D02*
X94654649Y-85914033D01*
X94654649Y-85914033D02*
X94587982Y-85880700D01*
X94587982Y-85880700D02*
X94521315Y-85814033D01*
X94521315Y-85814033D02*
X94487982Y-85680700D01*
X94487982Y-85680700D02*
X94487982Y-85447366D01*
X94487982Y-85447366D02*
X94521315Y-85314033D01*
X94521315Y-85314033D02*
X94587982Y-85247366D01*
X94587982Y-85247366D02*
X94654649Y-85214033D01*
X95621315Y-85914033D02*
X95221315Y-85914033D01*
X95421315Y-85914033D02*
X95421315Y-85214033D01*
X95421315Y-85214033D02*
X95354648Y-85314033D01*
X95354648Y-85314033D02*
X95287982Y-85380700D01*
X95287982Y-85380700D02*
X95221315Y-85414033D01*
X95954649Y-85914033D02*
X96087982Y-85914033D01*
X96087982Y-85914033D02*
X96154649Y-85880700D01*
X96154649Y-85880700D02*
X96187982Y-85847366D01*
X96187982Y-85847366D02*
X96254649Y-85747366D01*
X96254649Y-85747366D02*
X96287982Y-85614033D01*
X96287982Y-85614033D02*
X96287982Y-85347366D01*
X96287982Y-85347366D02*
X96254649Y-85280700D01*
X96254649Y-85280700D02*
X96221315Y-85247366D01*
X96221315Y-85247366D02*
X96154649Y-85214033D01*
X96154649Y-85214033D02*
X96021315Y-85214033D01*
X96021315Y-85214033D02*
X95954649Y-85247366D01*
X95954649Y-85247366D02*
X95921315Y-85280700D01*
X95921315Y-85280700D02*
X95887982Y-85347366D01*
X95887982Y-85347366D02*
X95887982Y-85514033D01*
X95887982Y-85514033D02*
X95921315Y-85580700D01*
X95921315Y-85580700D02*
X95954649Y-85614033D01*
X95954649Y-85614033D02*
X96021315Y-85647366D01*
X96021315Y-85647366D02*
X96154649Y-85647366D01*
X96154649Y-85647366D02*
X96221315Y-85614033D01*
X96221315Y-85614033D02*
X96254649Y-85580700D01*
X96254649Y-85580700D02*
X96287982Y-85514033D01*
X93154649Y-70007366D02*
X93087982Y-69974033D01*
X93087982Y-69974033D02*
X92987982Y-69974033D01*
X92987982Y-69974033D02*
X92887982Y-70007366D01*
X92887982Y-70007366D02*
X92821316Y-70074033D01*
X92821316Y-70074033D02*
X92787982Y-70140700D01*
X92787982Y-70140700D02*
X92754649Y-70274033D01*
X92754649Y-70274033D02*
X92754649Y-70374033D01*
X92754649Y-70374033D02*
X92787982Y-70507366D01*
X92787982Y-70507366D02*
X92821316Y-70574033D01*
X92821316Y-70574033D02*
X92887982Y-70640700D01*
X92887982Y-70640700D02*
X92987982Y-70674033D01*
X92987982Y-70674033D02*
X93054649Y-70674033D01*
X93054649Y-70674033D02*
X93154649Y-70640700D01*
X93154649Y-70640700D02*
X93187982Y-70607366D01*
X93187982Y-70607366D02*
X93187982Y-70374033D01*
X93187982Y-70374033D02*
X93054649Y-70374033D01*
X93487982Y-70674033D02*
X93487982Y-69974033D01*
X93487982Y-69974033D02*
X93754649Y-69974033D01*
X93754649Y-69974033D02*
X93821316Y-70007366D01*
X93821316Y-70007366D02*
X93854649Y-70040700D01*
X93854649Y-70040700D02*
X93887982Y-70107366D01*
X93887982Y-70107366D02*
X93887982Y-70207366D01*
X93887982Y-70207366D02*
X93854649Y-70274033D01*
X93854649Y-70274033D02*
X93821316Y-70307366D01*
X93821316Y-70307366D02*
X93754649Y-70340700D01*
X93754649Y-70340700D02*
X93487982Y-70340700D01*
X94187982Y-70674033D02*
X94187982Y-69974033D01*
X94654649Y-69974033D02*
X94787982Y-69974033D01*
X94787982Y-69974033D02*
X94854649Y-70007366D01*
X94854649Y-70007366D02*
X94921315Y-70074033D01*
X94921315Y-70074033D02*
X94954649Y-70207366D01*
X94954649Y-70207366D02*
X94954649Y-70440700D01*
X94954649Y-70440700D02*
X94921315Y-70574033D01*
X94921315Y-70574033D02*
X94854649Y-70640700D01*
X94854649Y-70640700D02*
X94787982Y-70674033D01*
X94787982Y-70674033D02*
X94654649Y-70674033D01*
X94654649Y-70674033D02*
X94587982Y-70640700D01*
X94587982Y-70640700D02*
X94521315Y-70574033D01*
X94521315Y-70574033D02*
X94487982Y-70440700D01*
X94487982Y-70440700D02*
X94487982Y-70207366D01*
X94487982Y-70207366D02*
X94521315Y-70074033D01*
X94521315Y-70074033D02*
X94587982Y-70007366D01*
X94587982Y-70007366D02*
X94654649Y-69974033D01*
X95221315Y-70040700D02*
X95254648Y-70007366D01*
X95254648Y-70007366D02*
X95321315Y-69974033D01*
X95321315Y-69974033D02*
X95487982Y-69974033D01*
X95487982Y-69974033D02*
X95554648Y-70007366D01*
X95554648Y-70007366D02*
X95587982Y-70040700D01*
X95587982Y-70040700D02*
X95621315Y-70107366D01*
X95621315Y-70107366D02*
X95621315Y-70174033D01*
X95621315Y-70174033D02*
X95587982Y-70274033D01*
X95587982Y-70274033D02*
X95187982Y-70674033D01*
X95187982Y-70674033D02*
X95621315Y-70674033D01*
X95854649Y-69974033D02*
X96287982Y-69974033D01*
X96287982Y-69974033D02*
X96054649Y-70240700D01*
X96054649Y-70240700D02*
X96154649Y-70240700D01*
X96154649Y-70240700D02*
X96221315Y-70274033D01*
X96221315Y-70274033D02*
X96254649Y-70307366D01*
X96254649Y-70307366D02*
X96287982Y-70374033D01*
X96287982Y-70374033D02*
X96287982Y-70540700D01*
X96287982Y-70540700D02*
X96254649Y-70607366D01*
X96254649Y-70607366D02*
X96221315Y-70640700D01*
X96221315Y-70640700D02*
X96154649Y-70674033D01*
X96154649Y-70674033D02*
X95954649Y-70674033D01*
X95954649Y-70674033D02*
X95887982Y-70640700D01*
X95887982Y-70640700D02*
X95854649Y-70607366D01*
X93154649Y-95407366D02*
X93087982Y-95374033D01*
X93087982Y-95374033D02*
X92987982Y-95374033D01*
X92987982Y-95374033D02*
X92887982Y-95407366D01*
X92887982Y-95407366D02*
X92821316Y-95474033D01*
X92821316Y-95474033D02*
X92787982Y-95540700D01*
X92787982Y-95540700D02*
X92754649Y-95674033D01*
X92754649Y-95674033D02*
X92754649Y-95774033D01*
X92754649Y-95774033D02*
X92787982Y-95907366D01*
X92787982Y-95907366D02*
X92821316Y-95974033D01*
X92821316Y-95974033D02*
X92887982Y-96040700D01*
X92887982Y-96040700D02*
X92987982Y-96074033D01*
X92987982Y-96074033D02*
X93054649Y-96074033D01*
X93054649Y-96074033D02*
X93154649Y-96040700D01*
X93154649Y-96040700D02*
X93187982Y-96007366D01*
X93187982Y-96007366D02*
X93187982Y-95774033D01*
X93187982Y-95774033D02*
X93054649Y-95774033D01*
X93487982Y-96074033D02*
X93487982Y-95374033D01*
X93487982Y-95374033D02*
X93754649Y-95374033D01*
X93754649Y-95374033D02*
X93821316Y-95407366D01*
X93821316Y-95407366D02*
X93854649Y-95440700D01*
X93854649Y-95440700D02*
X93887982Y-95507366D01*
X93887982Y-95507366D02*
X93887982Y-95607366D01*
X93887982Y-95607366D02*
X93854649Y-95674033D01*
X93854649Y-95674033D02*
X93821316Y-95707366D01*
X93821316Y-95707366D02*
X93754649Y-95740700D01*
X93754649Y-95740700D02*
X93487982Y-95740700D01*
X94187982Y-96074033D02*
X94187982Y-95374033D01*
X94654649Y-95374033D02*
X94787982Y-95374033D01*
X94787982Y-95374033D02*
X94854649Y-95407366D01*
X94854649Y-95407366D02*
X94921315Y-95474033D01*
X94921315Y-95474033D02*
X94954649Y-95607366D01*
X94954649Y-95607366D02*
X94954649Y-95840700D01*
X94954649Y-95840700D02*
X94921315Y-95974033D01*
X94921315Y-95974033D02*
X94854649Y-96040700D01*
X94854649Y-96040700D02*
X94787982Y-96074033D01*
X94787982Y-96074033D02*
X94654649Y-96074033D01*
X94654649Y-96074033D02*
X94587982Y-96040700D01*
X94587982Y-96040700D02*
X94521315Y-95974033D01*
X94521315Y-95974033D02*
X94487982Y-95840700D01*
X94487982Y-95840700D02*
X94487982Y-95607366D01*
X94487982Y-95607366D02*
X94521315Y-95474033D01*
X94521315Y-95474033D02*
X94587982Y-95407366D01*
X94587982Y-95407366D02*
X94654649Y-95374033D01*
X95621315Y-96074033D02*
X95221315Y-96074033D01*
X95421315Y-96074033D02*
X95421315Y-95374033D01*
X95421315Y-95374033D02*
X95354648Y-95474033D01*
X95354648Y-95474033D02*
X95287982Y-95540700D01*
X95287982Y-95540700D02*
X95221315Y-95574033D01*
X96221315Y-95374033D02*
X96087982Y-95374033D01*
X96087982Y-95374033D02*
X96021315Y-95407366D01*
X96021315Y-95407366D02*
X95987982Y-95440700D01*
X95987982Y-95440700D02*
X95921315Y-95540700D01*
X95921315Y-95540700D02*
X95887982Y-95674033D01*
X95887982Y-95674033D02*
X95887982Y-95940700D01*
X95887982Y-95940700D02*
X95921315Y-96007366D01*
X95921315Y-96007366D02*
X95954649Y-96040700D01*
X95954649Y-96040700D02*
X96021315Y-96074033D01*
X96021315Y-96074033D02*
X96154649Y-96074033D01*
X96154649Y-96074033D02*
X96221315Y-96040700D01*
X96221315Y-96040700D02*
X96254649Y-96007366D01*
X96254649Y-96007366D02*
X96287982Y-95940700D01*
X96287982Y-95940700D02*
X96287982Y-95774033D01*
X96287982Y-95774033D02*
X96254649Y-95707366D01*
X96254649Y-95707366D02*
X96221315Y-95674033D01*
X96221315Y-95674033D02*
X96154649Y-95640700D01*
X96154649Y-95640700D02*
X96021315Y-95640700D01*
X96021315Y-95640700D02*
X95954649Y-95674033D01*
X95954649Y-95674033D02*
X95921315Y-95707366D01*
X95921315Y-95707366D02*
X95887982Y-95774033D01*
X74469289Y-113244099D02*
X73993099Y-113244099D01*
X73993099Y-113244099D02*
X73945480Y-113720289D01*
X73945480Y-113720289D02*
X73993099Y-113672670D01*
X73993099Y-113672670D02*
X74088337Y-113625051D01*
X74088337Y-113625051D02*
X74326432Y-113625051D01*
X74326432Y-113625051D02*
X74421670Y-113672670D01*
X74421670Y-113672670D02*
X74469289Y-113720289D01*
X74469289Y-113720289D02*
X74516908Y-113815527D01*
X74516908Y-113815527D02*
X74516908Y-114053622D01*
X74516908Y-114053622D02*
X74469289Y-114148860D01*
X74469289Y-114148860D02*
X74421670Y-114196480D01*
X74421670Y-114196480D02*
X74326432Y-114244099D01*
X74326432Y-114244099D02*
X74088337Y-114244099D01*
X74088337Y-114244099D02*
X73993099Y-114196480D01*
X73993099Y-114196480D02*
X73945480Y-114148860D01*
X74802623Y-113244099D02*
X75135956Y-114244099D01*
X75135956Y-114244099D02*
X75469289Y-113244099D01*
X102957333Y-97895580D02*
X102909714Y-97943200D01*
X102909714Y-97943200D02*
X102766857Y-97990819D01*
X102766857Y-97990819D02*
X102671619Y-97990819D01*
X102671619Y-97990819D02*
X102528762Y-97943200D01*
X102528762Y-97943200D02*
X102433524Y-97847961D01*
X102433524Y-97847961D02*
X102385905Y-97752723D01*
X102385905Y-97752723D02*
X102338286Y-97562247D01*
X102338286Y-97562247D02*
X102338286Y-97419390D01*
X102338286Y-97419390D02*
X102385905Y-97228914D01*
X102385905Y-97228914D02*
X102433524Y-97133676D01*
X102433524Y-97133676D02*
X102528762Y-97038438D01*
X102528762Y-97038438D02*
X102671619Y-96990819D01*
X102671619Y-96990819D02*
X102766857Y-96990819D01*
X102766857Y-96990819D02*
X102909714Y-97038438D01*
X102909714Y-97038438D02*
X102957333Y-97086057D01*
X103338286Y-97086057D02*
X103385905Y-97038438D01*
X103385905Y-97038438D02*
X103481143Y-96990819D01*
X103481143Y-96990819D02*
X103719238Y-96990819D01*
X103719238Y-96990819D02*
X103814476Y-97038438D01*
X103814476Y-97038438D02*
X103862095Y-97086057D01*
X103862095Y-97086057D02*
X103909714Y-97181295D01*
X103909714Y-97181295D02*
X103909714Y-97276533D01*
X103909714Y-97276533D02*
X103862095Y-97419390D01*
X103862095Y-97419390D02*
X103290667Y-97990819D01*
X103290667Y-97990819D02*
X103909714Y-97990819D01*
X102957333Y-107039580D02*
X102909714Y-107087200D01*
X102909714Y-107087200D02*
X102766857Y-107134819D01*
X102766857Y-107134819D02*
X102671619Y-107134819D01*
X102671619Y-107134819D02*
X102528762Y-107087200D01*
X102528762Y-107087200D02*
X102433524Y-106991961D01*
X102433524Y-106991961D02*
X102385905Y-106896723D01*
X102385905Y-106896723D02*
X102338286Y-106706247D01*
X102338286Y-106706247D02*
X102338286Y-106563390D01*
X102338286Y-106563390D02*
X102385905Y-106372914D01*
X102385905Y-106372914D02*
X102433524Y-106277676D01*
X102433524Y-106277676D02*
X102528762Y-106182438D01*
X102528762Y-106182438D02*
X102671619Y-106134819D01*
X102671619Y-106134819D02*
X102766857Y-106134819D01*
X102766857Y-106134819D02*
X102909714Y-106182438D01*
X102909714Y-106182438D02*
X102957333Y-106230057D01*
X103290667Y-106134819D02*
X103909714Y-106134819D01*
X103909714Y-106134819D02*
X103576381Y-106515771D01*
X103576381Y-106515771D02*
X103719238Y-106515771D01*
X103719238Y-106515771D02*
X103814476Y-106563390D01*
X103814476Y-106563390D02*
X103862095Y-106611009D01*
X103862095Y-106611009D02*
X103909714Y-106706247D01*
X103909714Y-106706247D02*
X103909714Y-106944342D01*
X103909714Y-106944342D02*
X103862095Y-107039580D01*
X103862095Y-107039580D02*
X103814476Y-107087200D01*
X103814476Y-107087200D02*
X103719238Y-107134819D01*
X103719238Y-107134819D02*
X103433524Y-107134819D01*
X103433524Y-107134819D02*
X103338286Y-107087200D01*
X103338286Y-107087200D02*
X103290667Y-107039580D01*
X133820819Y-82883333D02*
X134535104Y-82883333D01*
X134535104Y-82883333D02*
X134677961Y-82930952D01*
X134677961Y-82930952D02*
X134773200Y-83026190D01*
X134773200Y-83026190D02*
X134820819Y-83169047D01*
X134820819Y-83169047D02*
X134820819Y-83264285D01*
X133916057Y-82454761D02*
X133868438Y-82407142D01*
X133868438Y-82407142D02*
X133820819Y-82311904D01*
X133820819Y-82311904D02*
X133820819Y-82073809D01*
X133820819Y-82073809D02*
X133868438Y-81978571D01*
X133868438Y-81978571D02*
X133916057Y-81930952D01*
X133916057Y-81930952D02*
X134011295Y-81883333D01*
X134011295Y-81883333D02*
X134106533Y-81883333D01*
X134106533Y-81883333D02*
X134249390Y-81930952D01*
X134249390Y-81930952D02*
X134820819Y-82502380D01*
X134820819Y-82502380D02*
X134820819Y-81883333D01*
X114093714Y-87799104D02*
X114569904Y-87799104D01*
X113998476Y-88084819D02*
X114331809Y-87084819D01*
X114331809Y-87084819D02*
X114665142Y-88084819D01*
X115522285Y-88084819D02*
X114950857Y-88084819D01*
X115236571Y-88084819D02*
X115236571Y-87084819D01*
X115236571Y-87084819D02*
X115141333Y-87227676D01*
X115141333Y-87227676D02*
X115046095Y-87322914D01*
X115046095Y-87322914D02*
X114950857Y-87370533D01*
X102989333Y-88751580D02*
X102941714Y-88799200D01*
X102941714Y-88799200D02*
X102798857Y-88846819D01*
X102798857Y-88846819D02*
X102703619Y-88846819D01*
X102703619Y-88846819D02*
X102560762Y-88799200D01*
X102560762Y-88799200D02*
X102465524Y-88703961D01*
X102465524Y-88703961D02*
X102417905Y-88608723D01*
X102417905Y-88608723D02*
X102370286Y-88418247D01*
X102370286Y-88418247D02*
X102370286Y-88275390D01*
X102370286Y-88275390D02*
X102417905Y-88084914D01*
X102417905Y-88084914D02*
X102465524Y-87989676D01*
X102465524Y-87989676D02*
X102560762Y-87894438D01*
X102560762Y-87894438D02*
X102703619Y-87846819D01*
X102703619Y-87846819D02*
X102798857Y-87846819D01*
X102798857Y-87846819D02*
X102941714Y-87894438D01*
X102941714Y-87894438D02*
X102989333Y-87942057D01*
X103941714Y-88846819D02*
X103370286Y-88846819D01*
X103656000Y-88846819D02*
X103656000Y-87846819D01*
X103656000Y-87846819D02*
X103560762Y-87989676D01*
X103560762Y-87989676D02*
X103465524Y-88084914D01*
X103465524Y-88084914D02*
X103370286Y-88132533D01*
X133820819Y-67389333D02*
X134535104Y-67389333D01*
X134535104Y-67389333D02*
X134677961Y-67436952D01*
X134677961Y-67436952D02*
X134773200Y-67532190D01*
X134773200Y-67532190D02*
X134820819Y-67675047D01*
X134820819Y-67675047D02*
X134820819Y-67770285D01*
X134820819Y-66389333D02*
X134820819Y-66960761D01*
X134820819Y-66675047D02*
X133820819Y-66675047D01*
X133820819Y-66675047D02*
X133963676Y-66770285D01*
X133963676Y-66770285D02*
X134058914Y-66865523D01*
X134058914Y-66865523D02*
X134106533Y-66960761D01*
X124439819Y-97401333D02*
X125154104Y-97401333D01*
X125154104Y-97401333D02*
X125296961Y-97448952D01*
X125296961Y-97448952D02*
X125392200Y-97544190D01*
X125392200Y-97544190D02*
X125439819Y-97687047D01*
X125439819Y-97687047D02*
X125439819Y-97782285D01*
X124439819Y-97020380D02*
X124439819Y-96401333D01*
X124439819Y-96401333D02*
X124820771Y-96734666D01*
X124820771Y-96734666D02*
X124820771Y-96591809D01*
X124820771Y-96591809D02*
X124868390Y-96496571D01*
X124868390Y-96496571D02*
X124916009Y-96448952D01*
X124916009Y-96448952D02*
X125011247Y-96401333D01*
X125011247Y-96401333D02*
X125249342Y-96401333D01*
X125249342Y-96401333D02*
X125344580Y-96448952D01*
X125344580Y-96448952D02*
X125392200Y-96496571D01*
X125392200Y-96496571D02*
X125439819Y-96591809D01*
X125439819Y-96591809D02*
X125439819Y-96877523D01*
X125439819Y-96877523D02*
X125392200Y-96972761D01*
X125392200Y-96972761D02*
X125344580Y-97020380D01*
D11*
X127730952Y-92611800D02*
X127826190Y-92659419D01*
X127826190Y-92659419D02*
X128016666Y-92659419D01*
X128016666Y-92659419D02*
X128111904Y-92611800D01*
X128111904Y-92611800D02*
X128159523Y-92516561D01*
X128159523Y-92516561D02*
X128159523Y-92468942D01*
X128159523Y-92468942D02*
X128111904Y-92373704D01*
X128111904Y-92373704D02*
X128016666Y-92326085D01*
X128016666Y-92326085D02*
X127873809Y-92326085D01*
X127873809Y-92326085D02*
X127778571Y-92278466D01*
X127778571Y-92278466D02*
X127730952Y-92183228D01*
X127730952Y-92183228D02*
X127730952Y-92135609D01*
X127730952Y-92135609D02*
X127778571Y-92040371D01*
X127778571Y-92040371D02*
X127873809Y-91992752D01*
X127873809Y-91992752D02*
X128016666Y-91992752D01*
X128016666Y-91992752D02*
X128111904Y-92040371D01*
X128492857Y-91992752D02*
X128683333Y-92659419D01*
X128683333Y-92659419D02*
X128873809Y-92183228D01*
X128873809Y-92183228D02*
X129064285Y-92659419D01*
X129064285Y-92659419D02*
X129254761Y-91992752D01*
X129635714Y-92659419D02*
X129635714Y-91992752D01*
X129635714Y-91659419D02*
X129588095Y-91707038D01*
X129588095Y-91707038D02*
X129635714Y-91754657D01*
X129635714Y-91754657D02*
X129683333Y-91707038D01*
X129683333Y-91707038D02*
X129635714Y-91659419D01*
X129635714Y-91659419D02*
X129635714Y-91754657D01*
X129969047Y-91992752D02*
X130349999Y-91992752D01*
X130111904Y-91659419D02*
X130111904Y-92516561D01*
X130111904Y-92516561D02*
X130159523Y-92611800D01*
X130159523Y-92611800D02*
X130254761Y-92659419D01*
X130254761Y-92659419D02*
X130349999Y-92659419D01*
X131111904Y-92611800D02*
X131016666Y-92659419D01*
X131016666Y-92659419D02*
X130826190Y-92659419D01*
X130826190Y-92659419D02*
X130730952Y-92611800D01*
X130730952Y-92611800D02*
X130683333Y-92564180D01*
X130683333Y-92564180D02*
X130635714Y-92468942D01*
X130635714Y-92468942D02*
X130635714Y-92183228D01*
X130635714Y-92183228D02*
X130683333Y-92087990D01*
X130683333Y-92087990D02*
X130730952Y-92040371D01*
X130730952Y-92040371D02*
X130826190Y-91992752D01*
X130826190Y-91992752D02*
X131016666Y-91992752D01*
X131016666Y-91992752D02*
X131111904Y-92040371D01*
X131540476Y-92659419D02*
X131540476Y-91659419D01*
X131969047Y-92659419D02*
X131969047Y-92135609D01*
X131969047Y-92135609D02*
X131921428Y-92040371D01*
X131921428Y-92040371D02*
X131826190Y-91992752D01*
X131826190Y-91992752D02*
X131683333Y-91992752D01*
X131683333Y-91992752D02*
X131588095Y-92040371D01*
X131588095Y-92040371D02*
X131540476Y-92087990D01*
X132969047Y-92659419D02*
X132397619Y-92659419D01*
X132683333Y-92659419D02*
X132683333Y-91659419D01*
X132683333Y-91659419D02*
X132588095Y-91802276D01*
X132588095Y-91802276D02*
X132492857Y-91897514D01*
X132492857Y-91897514D02*
X132397619Y-91945133D01*
D10*
X110896095Y-91206819D02*
X110896095Y-92016342D01*
X110896095Y-92016342D02*
X110943714Y-92111580D01*
X110943714Y-92111580D02*
X110991333Y-92159200D01*
X110991333Y-92159200D02*
X111086571Y-92206819D01*
X111086571Y-92206819D02*
X111277047Y-92206819D01*
X111277047Y-92206819D02*
X111372285Y-92159200D01*
X111372285Y-92159200D02*
X111419904Y-92111580D01*
X111419904Y-92111580D02*
X111467523Y-92016342D01*
X111467523Y-92016342D02*
X111467523Y-91206819D01*
X111896095Y-91302057D02*
X111943714Y-91254438D01*
X111943714Y-91254438D02*
X112038952Y-91206819D01*
X112038952Y-91206819D02*
X112277047Y-91206819D01*
X112277047Y-91206819D02*
X112372285Y-91254438D01*
X112372285Y-91254438D02*
X112419904Y-91302057D01*
X112419904Y-91302057D02*
X112467523Y-91397295D01*
X112467523Y-91397295D02*
X112467523Y-91492533D01*
X112467523Y-91492533D02*
X112419904Y-91635390D01*
X112419904Y-91635390D02*
X111848476Y-92206819D01*
X111848476Y-92206819D02*
X112467523Y-92206819D01*
X124439819Y-108577333D02*
X125154104Y-108577333D01*
X125154104Y-108577333D02*
X125296961Y-108624952D01*
X125296961Y-108624952D02*
X125392200Y-108720190D01*
X125392200Y-108720190D02*
X125439819Y-108863047D01*
X125439819Y-108863047D02*
X125439819Y-108958285D01*
X124773152Y-107672571D02*
X125439819Y-107672571D01*
X124392200Y-107910666D02*
X125106485Y-108148761D01*
X125106485Y-108148761D02*
X125106485Y-107529714D01*
X110642095Y-102396819D02*
X110642095Y-103206342D01*
X110642095Y-103206342D02*
X110689714Y-103301580D01*
X110689714Y-103301580D02*
X110737333Y-103349200D01*
X110737333Y-103349200D02*
X110832571Y-103396819D01*
X110832571Y-103396819D02*
X111023047Y-103396819D01*
X111023047Y-103396819D02*
X111118285Y-103349200D01*
X111118285Y-103349200D02*
X111165904Y-103301580D01*
X111165904Y-103301580D02*
X111213523Y-103206342D01*
X111213523Y-103206342D02*
X111213523Y-102396819D01*
X111594476Y-102396819D02*
X112213523Y-102396819D01*
X112213523Y-102396819D02*
X111880190Y-102777771D01*
X111880190Y-102777771D02*
X112023047Y-102777771D01*
X112023047Y-102777771D02*
X112118285Y-102825390D01*
X112118285Y-102825390D02*
X112165904Y-102873009D01*
X112165904Y-102873009D02*
X112213523Y-102968247D01*
X112213523Y-102968247D02*
X112213523Y-103206342D01*
X112213523Y-103206342D02*
X112165904Y-103301580D01*
X112165904Y-103301580D02*
X112118285Y-103349200D01*
X112118285Y-103349200D02*
X112023047Y-103396819D01*
X112023047Y-103396819D02*
X111737333Y-103396819D01*
X111737333Y-103396819D02*
X111642095Y-103349200D01*
X111642095Y-103349200D02*
X111594476Y-103301580D01*
D12*
%TO.C,U1*%
X70890000Y-114638000D02*
X99289999Y-114638000D01*
X70890001Y-66718000D02*
X70890000Y-114638000D01*
X76120120Y-60804880D02*
X94103320Y-60804880D01*
X76120120Y-66697680D02*
X76120120Y-60804880D01*
X94103320Y-60804880D02*
X94103320Y-66697680D01*
X99289999Y-114638000D02*
X99290000Y-66718000D01*
X99290000Y-66718000D02*
X70890001Y-66718000D01*
%TO.C,C2*%
X100589225Y-99617000D02*
X101089225Y-99617000D01*
X100839225Y-99367000D02*
X100839225Y-99867000D01*
X103394000Y-98512000D02*
X103394000Y-100052000D01*
X103394000Y-102132000D02*
X103394000Y-103672000D01*
X103434000Y-98512000D02*
X103434000Y-100052000D01*
X103434000Y-102132000D02*
X103434000Y-103672000D01*
X103474000Y-98513000D02*
X103474000Y-100052000D01*
X103474000Y-102132000D02*
X103474000Y-103671000D01*
X103514000Y-98514000D02*
X103514000Y-100052000D01*
X103514000Y-102132000D02*
X103514000Y-103670000D01*
X103554000Y-98516000D02*
X103554000Y-100052000D01*
X103554000Y-102132000D02*
X103554000Y-103668000D01*
X103594000Y-98519000D02*
X103594000Y-100052000D01*
X103594000Y-102132000D02*
X103594000Y-103665000D01*
X103634000Y-98523000D02*
X103634000Y-100052000D01*
X103634000Y-102132000D02*
X103634000Y-103661000D01*
X103674000Y-98527000D02*
X103674000Y-100052000D01*
X103674000Y-102132000D02*
X103674000Y-103657000D01*
X103714000Y-98531000D02*
X103714000Y-100052000D01*
X103714000Y-102132000D02*
X103714000Y-103653000D01*
X103754000Y-98536000D02*
X103754000Y-100052000D01*
X103754000Y-102132000D02*
X103754000Y-103648000D01*
X103794000Y-98542000D02*
X103794000Y-100052000D01*
X103794000Y-102132000D02*
X103794000Y-103642000D01*
X103834000Y-98549000D02*
X103834000Y-100052000D01*
X103834000Y-102132000D02*
X103834000Y-103635000D01*
X103874000Y-98556000D02*
X103874000Y-100052000D01*
X103874000Y-102132000D02*
X103874000Y-103628000D01*
X103914000Y-98564000D02*
X103914000Y-100052000D01*
X103914000Y-102132000D02*
X103914000Y-103620000D01*
X103954000Y-98572000D02*
X103954000Y-100052000D01*
X103954000Y-102132000D02*
X103954000Y-103612000D01*
X103994000Y-98581000D02*
X103994000Y-100052000D01*
X103994000Y-102132000D02*
X103994000Y-103603000D01*
X104034000Y-98591000D02*
X104034000Y-100052000D01*
X104034000Y-102132000D02*
X104034000Y-103593000D01*
X104074000Y-98601000D02*
X104074000Y-100052000D01*
X104074000Y-102132000D02*
X104074000Y-103583000D01*
X104115000Y-98612000D02*
X104115000Y-100052000D01*
X104115000Y-102132000D02*
X104115000Y-103572000D01*
X104155000Y-98624000D02*
X104155000Y-100052000D01*
X104155000Y-102132000D02*
X104155000Y-103560000D01*
X104195000Y-98637000D02*
X104195000Y-100052000D01*
X104195000Y-102132000D02*
X104195000Y-103547000D01*
X104235000Y-98650000D02*
X104235000Y-100052000D01*
X104235000Y-102132000D02*
X104235000Y-103534000D01*
X104275000Y-98664000D02*
X104275000Y-100052000D01*
X104275000Y-102132000D02*
X104275000Y-103520000D01*
X104315000Y-98678000D02*
X104315000Y-100052000D01*
X104315000Y-102132000D02*
X104315000Y-103506000D01*
X104355000Y-98694000D02*
X104355000Y-100052000D01*
X104355000Y-102132000D02*
X104355000Y-103490000D01*
X104395000Y-98710000D02*
X104395000Y-100052000D01*
X104395000Y-102132000D02*
X104395000Y-103474000D01*
X104435000Y-98727000D02*
X104435000Y-100052000D01*
X104435000Y-102132000D02*
X104435000Y-103457000D01*
X104475000Y-98744000D02*
X104475000Y-100052000D01*
X104475000Y-102132000D02*
X104475000Y-103440000D01*
X104515000Y-98763000D02*
X104515000Y-100052000D01*
X104515000Y-102132000D02*
X104515000Y-103421000D01*
X104555000Y-98782000D02*
X104555000Y-100052000D01*
X104555000Y-102132000D02*
X104555000Y-103402000D01*
X104595000Y-98802000D02*
X104595000Y-100052000D01*
X104595000Y-102132000D02*
X104595000Y-103382000D01*
X104635000Y-98824000D02*
X104635000Y-100052000D01*
X104635000Y-102132000D02*
X104635000Y-103360000D01*
X104675000Y-98845000D02*
X104675000Y-100052000D01*
X104675000Y-102132000D02*
X104675000Y-103339000D01*
X104715000Y-98868000D02*
X104715000Y-100052000D01*
X104715000Y-102132000D02*
X104715000Y-103316000D01*
X104755000Y-98892000D02*
X104755000Y-100052000D01*
X104755000Y-102132000D02*
X104755000Y-103292000D01*
X104795000Y-98917000D02*
X104795000Y-100052000D01*
X104795000Y-102132000D02*
X104795000Y-103267000D01*
X104835000Y-98943000D02*
X104835000Y-100052000D01*
X104835000Y-102132000D02*
X104835000Y-103241000D01*
X104875000Y-98970000D02*
X104875000Y-100052000D01*
X104875000Y-102132000D02*
X104875000Y-103214000D01*
X104915000Y-98997000D02*
X104915000Y-100052000D01*
X104915000Y-102132000D02*
X104915000Y-103187000D01*
X104955000Y-99027000D02*
X104955000Y-100052000D01*
X104955000Y-102132000D02*
X104955000Y-103157000D01*
X104995000Y-99057000D02*
X104995000Y-100052000D01*
X104995000Y-102132000D02*
X104995000Y-103127000D01*
X105035000Y-99088000D02*
X105035000Y-100052000D01*
X105035000Y-102132000D02*
X105035000Y-103096000D01*
X105075000Y-99121000D02*
X105075000Y-100052000D01*
X105075000Y-102132000D02*
X105075000Y-103063000D01*
X105115000Y-99155000D02*
X105115000Y-100052000D01*
X105115000Y-102132000D02*
X105115000Y-103029000D01*
X105155000Y-99191000D02*
X105155000Y-100052000D01*
X105155000Y-102132000D02*
X105155000Y-102993000D01*
X105195000Y-99228000D02*
X105195000Y-100052000D01*
X105195000Y-102132000D02*
X105195000Y-102956000D01*
X105235000Y-99266000D02*
X105235000Y-100052000D01*
X105235000Y-102132000D02*
X105235000Y-102918000D01*
X105275000Y-99307000D02*
X105275000Y-100052000D01*
X105275000Y-102132000D02*
X105275000Y-102877000D01*
X105315000Y-99349000D02*
X105315000Y-100052000D01*
X105315000Y-102132000D02*
X105315000Y-102835000D01*
X105355000Y-99393000D02*
X105355000Y-100052000D01*
X105355000Y-102132000D02*
X105355000Y-102791000D01*
X105395000Y-99439000D02*
X105395000Y-100052000D01*
X105395000Y-102132000D02*
X105395000Y-102745000D01*
X105435000Y-99487000D02*
X105435000Y-102697000D01*
X105475000Y-99538000D02*
X105475000Y-102646000D01*
X105515000Y-99592000D02*
X105515000Y-102592000D01*
X105555000Y-99649000D02*
X105555000Y-102535000D01*
X105595000Y-99709000D02*
X105595000Y-102475000D01*
X105635000Y-99773000D02*
X105635000Y-102411000D01*
X105675000Y-99841000D02*
X105675000Y-102343000D01*
X105715000Y-99914000D02*
X105715000Y-102270000D01*
X105755000Y-99994000D02*
X105755000Y-102190000D01*
X105795000Y-100081000D02*
X105795000Y-102103000D01*
X105835000Y-100177000D02*
X105835000Y-102007000D01*
X105875000Y-100287000D02*
X105875000Y-101897000D01*
X105915000Y-100415000D02*
X105915000Y-101769000D01*
X105955000Y-100574000D02*
X105955000Y-101610000D01*
X105995000Y-100808000D02*
X105995000Y-101376000D01*
X106014000Y-101092000D02*
G75*
G03*
X100774000Y-101092000I-2620000J0D01*
G01*
X100774000Y-101092000D02*
G75*
G03*
X106014000Y-101092000I2620000J0D01*
G01*
%TO.C,C3*%
X100335225Y-108761000D02*
X100835225Y-108761000D01*
X100585225Y-108511000D02*
X100585225Y-109011000D01*
X103140000Y-107656000D02*
X103140000Y-109196000D01*
X103140000Y-111276000D02*
X103140000Y-112816000D01*
X103180000Y-107656000D02*
X103180000Y-109196000D01*
X103180000Y-111276000D02*
X103180000Y-112816000D01*
X103220000Y-107657000D02*
X103220000Y-109196000D01*
X103220000Y-111276000D02*
X103220000Y-112815000D01*
X103260000Y-107658000D02*
X103260000Y-109196000D01*
X103260000Y-111276000D02*
X103260000Y-112814000D01*
X103300000Y-107660000D02*
X103300000Y-109196000D01*
X103300000Y-111276000D02*
X103300000Y-112812000D01*
X103340000Y-107663000D02*
X103340000Y-109196000D01*
X103340000Y-111276000D02*
X103340000Y-112809000D01*
X103380000Y-107667000D02*
X103380000Y-109196000D01*
X103380000Y-111276000D02*
X103380000Y-112805000D01*
X103420000Y-107671000D02*
X103420000Y-109196000D01*
X103420000Y-111276000D02*
X103420000Y-112801000D01*
X103460000Y-107675000D02*
X103460000Y-109196000D01*
X103460000Y-111276000D02*
X103460000Y-112797000D01*
X103500000Y-107680000D02*
X103500000Y-109196000D01*
X103500000Y-111276000D02*
X103500000Y-112792000D01*
X103540000Y-107686000D02*
X103540000Y-109196000D01*
X103540000Y-111276000D02*
X103540000Y-112786000D01*
X103580000Y-107693000D02*
X103580000Y-109196000D01*
X103580000Y-111276000D02*
X103580000Y-112779000D01*
X103620000Y-107700000D02*
X103620000Y-109196000D01*
X103620000Y-111276000D02*
X103620000Y-112772000D01*
X103660000Y-107708000D02*
X103660000Y-109196000D01*
X103660000Y-111276000D02*
X103660000Y-112764000D01*
X103700000Y-107716000D02*
X103700000Y-109196000D01*
X103700000Y-111276000D02*
X103700000Y-112756000D01*
X103740000Y-107725000D02*
X103740000Y-109196000D01*
X103740000Y-111276000D02*
X103740000Y-112747000D01*
X103780000Y-107735000D02*
X103780000Y-109196000D01*
X103780000Y-111276000D02*
X103780000Y-112737000D01*
X103820000Y-107745000D02*
X103820000Y-109196000D01*
X103820000Y-111276000D02*
X103820000Y-112727000D01*
X103861000Y-107756000D02*
X103861000Y-109196000D01*
X103861000Y-111276000D02*
X103861000Y-112716000D01*
X103901000Y-107768000D02*
X103901000Y-109196000D01*
X103901000Y-111276000D02*
X103901000Y-112704000D01*
X103941000Y-107781000D02*
X103941000Y-109196000D01*
X103941000Y-111276000D02*
X103941000Y-112691000D01*
X103981000Y-107794000D02*
X103981000Y-109196000D01*
X103981000Y-111276000D02*
X103981000Y-112678000D01*
X104021000Y-107808000D02*
X104021000Y-109196000D01*
X104021000Y-111276000D02*
X104021000Y-112664000D01*
X104061000Y-107822000D02*
X104061000Y-109196000D01*
X104061000Y-111276000D02*
X104061000Y-112650000D01*
X104101000Y-107838000D02*
X104101000Y-109196000D01*
X104101000Y-111276000D02*
X104101000Y-112634000D01*
X104141000Y-107854000D02*
X104141000Y-109196000D01*
X104141000Y-111276000D02*
X104141000Y-112618000D01*
X104181000Y-107871000D02*
X104181000Y-109196000D01*
X104181000Y-111276000D02*
X104181000Y-112601000D01*
X104221000Y-107888000D02*
X104221000Y-109196000D01*
X104221000Y-111276000D02*
X104221000Y-112584000D01*
X104261000Y-107907000D02*
X104261000Y-109196000D01*
X104261000Y-111276000D02*
X104261000Y-112565000D01*
X104301000Y-107926000D02*
X104301000Y-109196000D01*
X104301000Y-111276000D02*
X104301000Y-112546000D01*
X104341000Y-107946000D02*
X104341000Y-109196000D01*
X104341000Y-111276000D02*
X104341000Y-112526000D01*
X104381000Y-107968000D02*
X104381000Y-109196000D01*
X104381000Y-111276000D02*
X104381000Y-112504000D01*
X104421000Y-107989000D02*
X104421000Y-109196000D01*
X104421000Y-111276000D02*
X104421000Y-112483000D01*
X104461000Y-108012000D02*
X104461000Y-109196000D01*
X104461000Y-111276000D02*
X104461000Y-112460000D01*
X104501000Y-108036000D02*
X104501000Y-109196000D01*
X104501000Y-111276000D02*
X104501000Y-112436000D01*
X104541000Y-108061000D02*
X104541000Y-109196000D01*
X104541000Y-111276000D02*
X104541000Y-112411000D01*
X104581000Y-108087000D02*
X104581000Y-109196000D01*
X104581000Y-111276000D02*
X104581000Y-112385000D01*
X104621000Y-108114000D02*
X104621000Y-109196000D01*
X104621000Y-111276000D02*
X104621000Y-112358000D01*
X104661000Y-108141000D02*
X104661000Y-109196000D01*
X104661000Y-111276000D02*
X104661000Y-112331000D01*
X104701000Y-108171000D02*
X104701000Y-109196000D01*
X104701000Y-111276000D02*
X104701000Y-112301000D01*
X104741000Y-108201000D02*
X104741000Y-109196000D01*
X104741000Y-111276000D02*
X104741000Y-112271000D01*
X104781000Y-108232000D02*
X104781000Y-109196000D01*
X104781000Y-111276000D02*
X104781000Y-112240000D01*
X104821000Y-108265000D02*
X104821000Y-109196000D01*
X104821000Y-111276000D02*
X104821000Y-112207000D01*
X104861000Y-108299000D02*
X104861000Y-109196000D01*
X104861000Y-111276000D02*
X104861000Y-112173000D01*
X104901000Y-108335000D02*
X104901000Y-109196000D01*
X104901000Y-111276000D02*
X104901000Y-112137000D01*
X104941000Y-108372000D02*
X104941000Y-109196000D01*
X104941000Y-111276000D02*
X104941000Y-112100000D01*
X104981000Y-108410000D02*
X104981000Y-109196000D01*
X104981000Y-111276000D02*
X104981000Y-112062000D01*
X105021000Y-108451000D02*
X105021000Y-109196000D01*
X105021000Y-111276000D02*
X105021000Y-112021000D01*
X105061000Y-108493000D02*
X105061000Y-109196000D01*
X105061000Y-111276000D02*
X105061000Y-111979000D01*
X105101000Y-108537000D02*
X105101000Y-109196000D01*
X105101000Y-111276000D02*
X105101000Y-111935000D01*
X105141000Y-108583000D02*
X105141000Y-109196000D01*
X105141000Y-111276000D02*
X105141000Y-111889000D01*
X105181000Y-108631000D02*
X105181000Y-111841000D01*
X105221000Y-108682000D02*
X105221000Y-111790000D01*
X105261000Y-108736000D02*
X105261000Y-111736000D01*
X105301000Y-108793000D02*
X105301000Y-111679000D01*
X105341000Y-108853000D02*
X105341000Y-111619000D01*
X105381000Y-108917000D02*
X105381000Y-111555000D01*
X105421000Y-108985000D02*
X105421000Y-111487000D01*
X105461000Y-109058000D02*
X105461000Y-111414000D01*
X105501000Y-109138000D02*
X105501000Y-111334000D01*
X105541000Y-109225000D02*
X105541000Y-111247000D01*
X105581000Y-109321000D02*
X105581000Y-111151000D01*
X105621000Y-109431000D02*
X105621000Y-111041000D01*
X105661000Y-109559000D02*
X105661000Y-110913000D01*
X105701000Y-109718000D02*
X105701000Y-110754000D01*
X105741000Y-109952000D02*
X105741000Y-110520000D01*
X105760000Y-110236000D02*
G75*
G03*
X100520000Y-110236000I-2620000J0D01*
G01*
X100520000Y-110236000D02*
G75*
G03*
X105760000Y-110236000I2620000J0D01*
G01*
%TO.C,J2*%
X126822000Y-90404000D02*
X128072000Y-90404000D01*
X127112000Y-90114000D02*
X133082000Y-90114000D01*
X133082000Y-90114000D02*
X133082000Y-74994000D01*
X127122000Y-90104000D02*
X127872000Y-90104000D01*
X127872000Y-90104000D02*
X127872000Y-88304000D01*
X129372000Y-90104000D02*
X129372000Y-89354000D01*
X129372000Y-89354000D02*
X130712000Y-89354000D01*
X126822000Y-89154000D02*
X126822000Y-90404000D01*
X127122000Y-88304000D02*
X127122000Y-90104000D01*
X127872000Y-88304000D02*
X127122000Y-88304000D01*
X127122000Y-86804000D02*
X127872000Y-86804000D01*
X127872000Y-86804000D02*
X127872000Y-78304000D01*
X132322000Y-82554000D02*
X132322000Y-88294000D01*
X127122000Y-78304000D02*
X127122000Y-86804000D01*
X127872000Y-78304000D02*
X127122000Y-78304000D01*
X127122000Y-76804000D02*
X127872000Y-76804000D01*
X127872000Y-76804000D02*
X127872000Y-75004000D01*
X129372000Y-75754000D02*
X132322000Y-75754000D01*
X132322000Y-75754000D02*
X132322000Y-82554000D01*
X127122000Y-75004000D02*
X127122000Y-76804000D01*
X127872000Y-75004000D02*
X127122000Y-75004000D01*
X129372000Y-75004000D02*
X129372000Y-75754000D01*
X127112000Y-74994000D02*
X127112000Y-90114000D01*
X133082000Y-74994000D02*
X127112000Y-74994000D01*
%TO.C,A1*%
X122558000Y-86490000D02*
X122558000Y-85090000D01*
X122558000Y-83820000D02*
X122558000Y-65910000D01*
X122558000Y-65910000D02*
X107058000Y-65910000D01*
X121158000Y-86490000D02*
X122558000Y-86490000D01*
X119888000Y-86490000D02*
X119888000Y-83820000D01*
X119888000Y-83820000D02*
X122558000Y-83820000D01*
X119888000Y-83820000D02*
X119888000Y-65910000D01*
X109728000Y-86490000D02*
X109728000Y-65910000D01*
X107058000Y-86490000D02*
X119888000Y-86490000D01*
X107058000Y-65910000D02*
X107058000Y-86490000D01*
%TO.C,C1*%
X100589225Y-90727000D02*
X101089225Y-90727000D01*
X100839225Y-90477000D02*
X100839225Y-90977000D01*
X103394000Y-89622000D02*
X103394000Y-91162000D01*
X103394000Y-93242000D02*
X103394000Y-94782000D01*
X103434000Y-89622000D02*
X103434000Y-91162000D01*
X103434000Y-93242000D02*
X103434000Y-94782000D01*
X103474000Y-89623000D02*
X103474000Y-91162000D01*
X103474000Y-93242000D02*
X103474000Y-94781000D01*
X103514000Y-89624000D02*
X103514000Y-91162000D01*
X103514000Y-93242000D02*
X103514000Y-94780000D01*
X103554000Y-89626000D02*
X103554000Y-91162000D01*
X103554000Y-93242000D02*
X103554000Y-94778000D01*
X103594000Y-89629000D02*
X103594000Y-91162000D01*
X103594000Y-93242000D02*
X103594000Y-94775000D01*
X103634000Y-89633000D02*
X103634000Y-91162000D01*
X103634000Y-93242000D02*
X103634000Y-94771000D01*
X103674000Y-89637000D02*
X103674000Y-91162000D01*
X103674000Y-93242000D02*
X103674000Y-94767000D01*
X103714000Y-89641000D02*
X103714000Y-91162000D01*
X103714000Y-93242000D02*
X103714000Y-94763000D01*
X103754000Y-89646000D02*
X103754000Y-91162000D01*
X103754000Y-93242000D02*
X103754000Y-94758000D01*
X103794000Y-89652000D02*
X103794000Y-91162000D01*
X103794000Y-93242000D02*
X103794000Y-94752000D01*
X103834000Y-89659000D02*
X103834000Y-91162000D01*
X103834000Y-93242000D02*
X103834000Y-94745000D01*
X103874000Y-89666000D02*
X103874000Y-91162000D01*
X103874000Y-93242000D02*
X103874000Y-94738000D01*
X103914000Y-89674000D02*
X103914000Y-91162000D01*
X103914000Y-93242000D02*
X103914000Y-94730000D01*
X103954000Y-89682000D02*
X103954000Y-91162000D01*
X103954000Y-93242000D02*
X103954000Y-94722000D01*
X103994000Y-89691000D02*
X103994000Y-91162000D01*
X103994000Y-93242000D02*
X103994000Y-94713000D01*
X104034000Y-89701000D02*
X104034000Y-91162000D01*
X104034000Y-93242000D02*
X104034000Y-94703000D01*
X104074000Y-89711000D02*
X104074000Y-91162000D01*
X104074000Y-93242000D02*
X104074000Y-94693000D01*
X104115000Y-89722000D02*
X104115000Y-91162000D01*
X104115000Y-93242000D02*
X104115000Y-94682000D01*
X104155000Y-89734000D02*
X104155000Y-91162000D01*
X104155000Y-93242000D02*
X104155000Y-94670000D01*
X104195000Y-89747000D02*
X104195000Y-91162000D01*
X104195000Y-93242000D02*
X104195000Y-94657000D01*
X104235000Y-89760000D02*
X104235000Y-91162000D01*
X104235000Y-93242000D02*
X104235000Y-94644000D01*
X104275000Y-89774000D02*
X104275000Y-91162000D01*
X104275000Y-93242000D02*
X104275000Y-94630000D01*
X104315000Y-89788000D02*
X104315000Y-91162000D01*
X104315000Y-93242000D02*
X104315000Y-94616000D01*
X104355000Y-89804000D02*
X104355000Y-91162000D01*
X104355000Y-93242000D02*
X104355000Y-94600000D01*
X104395000Y-89820000D02*
X104395000Y-91162000D01*
X104395000Y-93242000D02*
X104395000Y-94584000D01*
X104435000Y-89837000D02*
X104435000Y-91162000D01*
X104435000Y-93242000D02*
X104435000Y-94567000D01*
X104475000Y-89854000D02*
X104475000Y-91162000D01*
X104475000Y-93242000D02*
X104475000Y-94550000D01*
X104515000Y-89873000D02*
X104515000Y-91162000D01*
X104515000Y-93242000D02*
X104515000Y-94531000D01*
X104555000Y-89892000D02*
X104555000Y-91162000D01*
X104555000Y-93242000D02*
X104555000Y-94512000D01*
X104595000Y-89912000D02*
X104595000Y-91162000D01*
X104595000Y-93242000D02*
X104595000Y-94492000D01*
X104635000Y-89934000D02*
X104635000Y-91162000D01*
X104635000Y-93242000D02*
X104635000Y-94470000D01*
X104675000Y-89955000D02*
X104675000Y-91162000D01*
X104675000Y-93242000D02*
X104675000Y-94449000D01*
X104715000Y-89978000D02*
X104715000Y-91162000D01*
X104715000Y-93242000D02*
X104715000Y-94426000D01*
X104755000Y-90002000D02*
X104755000Y-91162000D01*
X104755000Y-93242000D02*
X104755000Y-94402000D01*
X104795000Y-90027000D02*
X104795000Y-91162000D01*
X104795000Y-93242000D02*
X104795000Y-94377000D01*
X104835000Y-90053000D02*
X104835000Y-91162000D01*
X104835000Y-93242000D02*
X104835000Y-94351000D01*
X104875000Y-90080000D02*
X104875000Y-91162000D01*
X104875000Y-93242000D02*
X104875000Y-94324000D01*
X104915000Y-90107000D02*
X104915000Y-91162000D01*
X104915000Y-93242000D02*
X104915000Y-94297000D01*
X104955000Y-90137000D02*
X104955000Y-91162000D01*
X104955000Y-93242000D02*
X104955000Y-94267000D01*
X104995000Y-90167000D02*
X104995000Y-91162000D01*
X104995000Y-93242000D02*
X104995000Y-94237000D01*
X105035000Y-90198000D02*
X105035000Y-91162000D01*
X105035000Y-93242000D02*
X105035000Y-94206000D01*
X105075000Y-90231000D02*
X105075000Y-91162000D01*
X105075000Y-93242000D02*
X105075000Y-94173000D01*
X105115000Y-90265000D02*
X105115000Y-91162000D01*
X105115000Y-93242000D02*
X105115000Y-94139000D01*
X105155000Y-90301000D02*
X105155000Y-91162000D01*
X105155000Y-93242000D02*
X105155000Y-94103000D01*
X105195000Y-90338000D02*
X105195000Y-91162000D01*
X105195000Y-93242000D02*
X105195000Y-94066000D01*
X105235000Y-90376000D02*
X105235000Y-91162000D01*
X105235000Y-93242000D02*
X105235000Y-94028000D01*
X105275000Y-90417000D02*
X105275000Y-91162000D01*
X105275000Y-93242000D02*
X105275000Y-93987000D01*
X105315000Y-90459000D02*
X105315000Y-91162000D01*
X105315000Y-93242000D02*
X105315000Y-93945000D01*
X105355000Y-90503000D02*
X105355000Y-91162000D01*
X105355000Y-93242000D02*
X105355000Y-93901000D01*
X105395000Y-90549000D02*
X105395000Y-91162000D01*
X105395000Y-93242000D02*
X105395000Y-93855000D01*
X105435000Y-90597000D02*
X105435000Y-93807000D01*
X105475000Y-90648000D02*
X105475000Y-93756000D01*
X105515000Y-90702000D02*
X105515000Y-93702000D01*
X105555000Y-90759000D02*
X105555000Y-93645000D01*
X105595000Y-90819000D02*
X105595000Y-93585000D01*
X105635000Y-90883000D02*
X105635000Y-93521000D01*
X105675000Y-90951000D02*
X105675000Y-93453000D01*
X105715000Y-91024000D02*
X105715000Y-93380000D01*
X105755000Y-91104000D02*
X105755000Y-93300000D01*
X105795000Y-91191000D02*
X105795000Y-93213000D01*
X105835000Y-91287000D02*
X105835000Y-93117000D01*
X105875000Y-91397000D02*
X105875000Y-93007000D01*
X105915000Y-91525000D02*
X105915000Y-92879000D01*
X105955000Y-91684000D02*
X105955000Y-92720000D01*
X105995000Y-91918000D02*
X105995000Y-92486000D01*
X106014000Y-92202000D02*
G75*
G03*
X100774000Y-92202000I-2620000J0D01*
G01*
X100774000Y-92202000D02*
G75*
G03*
X106014000Y-92202000I2620000J0D01*
G01*
%TO.C,J1*%
X127027000Y-73910000D02*
X128277000Y-73910000D01*
X127317000Y-73620000D02*
X133287000Y-73620000D01*
X133287000Y-73620000D02*
X133287000Y-61000000D01*
X127327000Y-73610000D02*
X128077000Y-73610000D01*
X128077000Y-73610000D02*
X128077000Y-71810000D01*
X129577000Y-73610000D02*
X129577000Y-72860000D01*
X129577000Y-72860000D02*
X130917000Y-72860000D01*
X127027000Y-72660000D02*
X127027000Y-73910000D01*
X127327000Y-71810000D02*
X127327000Y-73610000D01*
X128077000Y-71810000D02*
X127327000Y-71810000D01*
X127327000Y-70310000D02*
X128077000Y-70310000D01*
X128077000Y-70310000D02*
X128077000Y-64310000D01*
X132527000Y-67310000D02*
X132527000Y-71800000D01*
X127327000Y-64310000D02*
X127327000Y-70310000D01*
X128077000Y-64310000D02*
X127327000Y-64310000D01*
X127327000Y-62810000D02*
X128077000Y-62810000D01*
X128077000Y-62810000D02*
X128077000Y-61010000D01*
X129577000Y-61760000D02*
X132527000Y-61760000D01*
X132527000Y-61760000D02*
X132527000Y-67310000D01*
X127327000Y-61010000D02*
X127327000Y-62810000D01*
X128077000Y-61010000D02*
X127327000Y-61010000D01*
X129577000Y-61010000D02*
X129577000Y-61760000D01*
X127317000Y-61000000D02*
X127317000Y-73620000D01*
X133287000Y-61000000D02*
X127317000Y-61000000D01*
%TO.C,J3*%
X117392000Y-102418000D02*
X118642000Y-102418000D01*
X117682000Y-102128000D02*
X123652000Y-102128000D01*
X123652000Y-102128000D02*
X123652000Y-92008000D01*
X117692000Y-102118000D02*
X118442000Y-102118000D01*
X118442000Y-102118000D02*
X118442000Y-100318000D01*
X119942000Y-102118000D02*
X119942000Y-101368000D01*
X119942000Y-101368000D02*
X121282000Y-101368000D01*
X117392000Y-101168000D02*
X117392000Y-102418000D01*
X117692000Y-100318000D02*
X117692000Y-102118000D01*
X118442000Y-100318000D02*
X117692000Y-100318000D01*
X117692000Y-98818000D02*
X118442000Y-98818000D01*
X118442000Y-98818000D02*
X118442000Y-95318000D01*
X122892000Y-97068000D02*
X122892000Y-100308000D01*
X117692000Y-95318000D02*
X117692000Y-98818000D01*
X118442000Y-95318000D02*
X117692000Y-95318000D01*
X117692000Y-93818000D02*
X118442000Y-93818000D01*
X118442000Y-93818000D02*
X118442000Y-92018000D01*
X119942000Y-92768000D02*
X122892000Y-92768000D01*
X122892000Y-92768000D02*
X122892000Y-97068000D01*
X117692000Y-92018000D02*
X117692000Y-93818000D01*
X118442000Y-92018000D02*
X117692000Y-92018000D01*
X119942000Y-92018000D02*
X119942000Y-92768000D01*
X117682000Y-92008000D02*
X117682000Y-102128000D01*
X123652000Y-92008000D02*
X117682000Y-92008000D01*
%TO.C,U2*%
X107558000Y-92842000D02*
X113568000Y-92842000D01*
X109808000Y-99662000D02*
X113568000Y-99662000D01*
X113568000Y-92842000D02*
X113568000Y-94102000D01*
X113568000Y-99662000D02*
X113568000Y-98402000D01*
%TO.C,J4*%
X117392000Y-113594000D02*
X118642000Y-113594000D01*
X117682000Y-113304000D02*
X123652000Y-113304000D01*
X123652000Y-113304000D02*
X123652000Y-103184000D01*
X117692000Y-113294000D02*
X118442000Y-113294000D01*
X118442000Y-113294000D02*
X118442000Y-111494000D01*
X119942000Y-113294000D02*
X119942000Y-112544000D01*
X119942000Y-112544000D02*
X121282000Y-112544000D01*
X117392000Y-112344000D02*
X117392000Y-113594000D01*
X117692000Y-111494000D02*
X117692000Y-113294000D01*
X118442000Y-111494000D02*
X117692000Y-111494000D01*
X117692000Y-109994000D02*
X118442000Y-109994000D01*
X118442000Y-109994000D02*
X118442000Y-106494000D01*
X122892000Y-108244000D02*
X122892000Y-111484000D01*
X117692000Y-106494000D02*
X117692000Y-109994000D01*
X118442000Y-106494000D02*
X117692000Y-106494000D01*
X117692000Y-104994000D02*
X118442000Y-104994000D01*
X118442000Y-104994000D02*
X118442000Y-103194000D01*
X119942000Y-103944000D02*
X122892000Y-103944000D01*
X122892000Y-103944000D02*
X122892000Y-108244000D01*
X117692000Y-103194000D02*
X117692000Y-104994000D01*
X118442000Y-103194000D02*
X117692000Y-103194000D01*
X119942000Y-103194000D02*
X119942000Y-103944000D01*
X117682000Y-103184000D02*
X117682000Y-113304000D01*
X123652000Y-103184000D02*
X117682000Y-103184000D01*
%TO.C,U3*%
X107304000Y-104032000D02*
X113314000Y-104032000D01*
X109554000Y-110852000D02*
X113314000Y-110852000D01*
X113314000Y-104032000D02*
X113314000Y-105292000D01*
X113314000Y-110852000D02*
X113314000Y-109592000D01*
%TD*%
M02*
