%TF.GenerationSoftware,KiCad,Pcbnew,7.0.10*%
%TF.CreationDate,2024-01-30T21:32:49-08:00*%
%TF.ProjectId,pcb,7063622e-6b69-4636-9164-5f7063625858,rev?*%
%TF.SameCoordinates,Original*%
%TF.FileFunction,Copper,L2,Bot*%
%TF.FilePolarity,Positive*%
%FSLAX46Y46*%
G04 Gerber Fmt 4.6, Leading zero omitted, Abs format (unit mm)*
G04 Created by KiCad (PCBNEW 7.0.10) date 2024-01-30 21:32:49*
%MOMM*%
%LPD*%
G01*
G04 APERTURE LIST*
G04 Aperture macros list*
%AMRoundRect*
0 Rectangle with rounded corners*
0 $1 Rounding radius*
0 $2 $3 $4 $5 $6 $7 $8 $9 X,Y pos of 4 corners*
0 Add a 4 corners polygon primitive as box body*
4,1,4,$2,$3,$4,$5,$6,$7,$8,$9,$2,$3,0*
0 Add four circle primitives for the rounded corners*
1,1,$1+$1,$2,$3*
1,1,$1+$1,$4,$5*
1,1,$1+$1,$6,$7*
1,1,$1+$1,$8,$9*
0 Add four rect primitives between the rounded corners*
20,1,$1+$1,$2,$3,$4,$5,0*
20,1,$1+$1,$4,$5,$6,$7,0*
20,1,$1+$1,$6,$7,$8,$9,0*
20,1,$1+$1,$8,$9,$2,$3,0*%
G04 Aperture macros list end*
%TA.AperFunction,ComponentPad*%
%ADD10R,2.000000X1.200000*%
%TD*%
%TA.AperFunction,ComponentPad*%
%ADD11O,2.000000X1.200000*%
%TD*%
%TA.AperFunction,ComponentPad*%
%ADD12R,1.600000X1.600000*%
%TD*%
%TA.AperFunction,ComponentPad*%
%ADD13C,1.600000*%
%TD*%
%TA.AperFunction,ComponentPad*%
%ADD14RoundRect,0.250000X0.725000X-0.600000X0.725000X0.600000X-0.725000X0.600000X-0.725000X-0.600000X0*%
%TD*%
%TA.AperFunction,ComponentPad*%
%ADD15O,1.950000X1.700000*%
%TD*%
%TA.AperFunction,ComponentPad*%
%ADD16O,1.600000X1.600000*%
%TD*%
%TA.AperFunction,ViaPad*%
%ADD17C,0.800000*%
%TD*%
%TA.AperFunction,Conductor*%
%ADD18C,1.000000*%
%TD*%
%TA.AperFunction,Conductor*%
%ADD19C,0.250000*%
%TD*%
G04 APERTURE END LIST*
D10*
%TO.P,U1,1,3V3*%
%TO.N,Net-(A1-VDD)*%
X72390000Y-67818000D03*
D11*
%TO.P,U1,2,CHIP_PU*%
%TO.N,unconnected-(U1-CHIP_PU-Pad2)*%
X72390000Y-70358000D03*
%TO.P,U1,3,SENSOR_VP/GPIO36/ADC1_CH0*%
%TO.N,unconnected-(U1-SENSOR_VP{slash}GPIO36{slash}ADC1_CH0-Pad3)*%
X72390000Y-72898000D03*
%TO.P,U1,4,SENSOR_VN/GPIO39/ADC1_CH3*%
%TO.N,unconnected-(U1-SENSOR_VN{slash}GPIO39{slash}ADC1_CH3-Pad4)*%
X72390000Y-75438000D03*
%TO.P,U1,5,VDET_1/GPIO34/ADC1_CH6*%
%TO.N,unconnected-(U1-VDET_1{slash}GPIO34{slash}ADC1_CH6-Pad5)*%
X72390000Y-77978000D03*
%TO.P,U1,6,VDET_2/GPIO35/ADC1_CH7*%
%TO.N,unconnected-(U1-VDET_2{slash}GPIO35{slash}ADC1_CH7-Pad6)*%
X72390000Y-80518000D03*
%TO.P,U1,7,32K_XP/GPIO32/ADC1_CH4*%
%TO.N,unconnected-(U1-32K_XP{slash}GPIO32{slash}ADC1_CH4-Pad7)*%
X72390000Y-83058000D03*
%TO.P,U1,8,32K_XN/GPIO33/ADC1_CH5*%
%TO.N,unconnected-(U1-32K_XN{slash}GPIO33{slash}ADC1_CH5-Pad8)*%
X72390000Y-85598000D03*
%TO.P,U1,9,DAC_1/ADC2_CH8/GPIO25*%
%TO.N,unconnected-(U1-DAC_1{slash}ADC2_CH8{slash}GPIO25-Pad9)*%
X72390000Y-88138000D03*
%TO.P,U1,10,DAC_2/ADC2_CH9/GPIO26*%
%TO.N,unconnected-(U1-DAC_2{slash}ADC2_CH9{slash}GPIO26-Pad10)*%
X72390000Y-90678000D03*
%TO.P,U1,11,ADC2_CH7/GPIO27*%
%TO.N,unconnected-(U1-ADC2_CH7{slash}GPIO27-Pad11)*%
X72390000Y-93218000D03*
%TO.P,U1,12,MTMS/GPIO14/ADC2_CH6*%
%TO.N,Net-(A1-STEP)*%
X72390000Y-95758000D03*
%TO.P,U1,13,MTDI/GPIO12/ADC2_CH5*%
%TO.N,Net-(A1-DIR)*%
X72390000Y-98298000D03*
%TO.P,U1,14,GND*%
%TO.N,GND*%
X72390000Y-100838000D03*
%TO.P,U1,15,MTCK/GPIO13/ADC2_CH4*%
%TO.N,unconnected-(U1-MTCK{slash}GPIO13{slash}ADC2_CH4-Pad15)*%
X72390000Y-103378000D03*
%TO.P,U1,16,SD_DATA2/GPIO9*%
%TO.N,unconnected-(U1-SD_DATA2{slash}GPIO9-Pad16)*%
X72390000Y-105918000D03*
%TO.P,U1,17,SD_DATA3/GPIO10*%
%TO.N,unconnected-(U1-SD_DATA3{slash}GPIO10-Pad17)*%
X72390000Y-108458000D03*
%TO.P,U1,18,CMD*%
%TO.N,unconnected-(U1-CMD-Pad18)*%
X72390000Y-110998000D03*
%TO.P,U1,19,5V*%
%TO.N,Net-(U1-5V)*%
X72390000Y-113538000D03*
%TO.P,U1,20,SD_CLK/GPIO6*%
%TO.N,unconnected-(U1-SD_CLK{slash}GPIO6-Pad20)*%
X97786320Y-113535280D03*
%TO.P,U1,21,SD_DATA0/GPIO7*%
%TO.N,unconnected-(U1-SD_DATA0{slash}GPIO7-Pad21)*%
X97786320Y-110995280D03*
%TO.P,U1,22,SD_DATA1/GPIO8*%
%TO.N,unconnected-(U1-SD_DATA1{slash}GPIO8-Pad22)*%
X97790000Y-108458000D03*
%TO.P,U1,23,MTDO/GPIO15/ADC2_CH3*%
%TO.N,Net-(J2-Pin_3)*%
X97790000Y-105918000D03*
%TO.P,U1,24,ADC2_CH2/GPIO2*%
%TO.N,unconnected-(U1-ADC2_CH2{slash}GPIO2-Pad24)*%
X97790000Y-103378000D03*
%TO.P,U1,25,GPIO0/BOOT/ADC2_CH1*%
%TO.N,unconnected-(U1-GPIO0{slash}BOOT{slash}ADC2_CH1-Pad25)*%
X97790000Y-100838000D03*
%TO.P,U1,26,ADC2_CH0/GPIO4*%
%TO.N,Net-(J2-Pin_5)*%
X97790000Y-98298000D03*
%TO.P,U1,27,GPIO16*%
%TO.N,Net-(J2-Pin_4)*%
X97790000Y-95758000D03*
%TO.P,U1,28,GPIO17*%
%TO.N,unconnected-(U1-GPIO17-Pad28)*%
X97790000Y-93218000D03*
%TO.P,U1,29,GPIO5*%
%TO.N,unconnected-(U1-GPIO5-Pad29)*%
X97790000Y-90678000D03*
%TO.P,U1,30,GPIO18*%
%TO.N,unconnected-(U1-GPIO18-Pad30)*%
X97790000Y-88138000D03*
%TO.P,U1,31,GPIO19*%
%TO.N,unconnected-(U1-GPIO19-Pad31)*%
X97790000Y-85598000D03*
%TO.P,U1,32,GND*%
%TO.N,GND*%
X97790000Y-83058000D03*
%TO.P,U1,33,GPIO21*%
%TO.N,unconnected-(U1-GPIO21-Pad33)*%
X97790000Y-80518000D03*
%TO.P,U1,34,U0RXD/GPIO3*%
%TO.N,unconnected-(U1-U0RXD{slash}GPIO3-Pad34)*%
X97790000Y-77978000D03*
%TO.P,U1,35,U0TXD/GPIO1*%
%TO.N,unconnected-(U1-U0TXD{slash}GPIO1-Pad35)*%
X97790000Y-75438000D03*
%TO.P,U1,36,GPIO22*%
%TO.N,unconnected-(U1-GPIO22-Pad36)*%
X97790000Y-72898000D03*
%TO.P,U1,37,GPIO23*%
%TO.N,unconnected-(U1-GPIO23-Pad37)*%
X97790000Y-70358000D03*
%TO.P,U1,38,GND*%
%TO.N,GND*%
X97790000Y-67818000D03*
%TD*%
D12*
%TO.P,C2,1*%
%TO.N,Net-(U1-5V)*%
X102394000Y-101092000D03*
D13*
%TO.P,C2,2*%
%TO.N,GND*%
X104394000Y-101092000D03*
%TD*%
D12*
%TO.P,C3,1*%
%TO.N,Net-(J2-Pin_1)*%
X102140000Y-110236000D03*
D13*
%TO.P,C3,2*%
%TO.N,GND*%
X104140000Y-110236000D03*
%TD*%
D14*
%TO.P,J2,1,Pin_1*%
%TO.N,Net-(J2-Pin_1)*%
X129572000Y-87554000D03*
D15*
%TO.P,J2,2,Pin_2*%
%TO.N,GND*%
X129572000Y-85054000D03*
%TO.P,J2,3,Pin_3*%
%TO.N,Net-(J2-Pin_3)*%
X129572000Y-82554000D03*
%TO.P,J2,4,Pin_4*%
%TO.N,Net-(J2-Pin_4)*%
X129572000Y-80054000D03*
%TO.P,J2,5,Pin_5*%
%TO.N,Net-(J2-Pin_5)*%
X129572000Y-77554000D03*
%TD*%
D12*
%TO.P,A1,1,GND*%
%TO.N,GND*%
X121158000Y-85090000D03*
D16*
%TO.P,A1,2,VDD*%
%TO.N,Net-(A1-VDD)*%
X121158000Y-82550000D03*
%TO.P,A1,3,1B*%
%TO.N,Net-(A1-1B)*%
X121158000Y-80010000D03*
%TO.P,A1,4,1A*%
%TO.N,Net-(A1-1A)*%
X121158000Y-77470000D03*
%TO.P,A1,5,2A*%
%TO.N,Net-(A1-2A)*%
X121158000Y-74930000D03*
%TO.P,A1,6,2B*%
%TO.N,Net-(A1-2B)*%
X121158000Y-72390000D03*
%TO.P,A1,7,GND*%
%TO.N,GND*%
X121158000Y-69850000D03*
%TO.P,A1,8,VMOT*%
%TO.N,Net-(A1-VMOT)*%
X121158000Y-67310000D03*
%TO.P,A1,9,~{ENABLE}*%
%TO.N,unconnected-(A1-~{ENABLE}-Pad9)*%
X108458000Y-67310000D03*
%TO.P,A1,10,MS1*%
%TO.N,unconnected-(A1-MS1-Pad10)*%
X108458000Y-69850000D03*
%TO.P,A1,11,MS2*%
%TO.N,unconnected-(A1-MS2-Pad11)*%
X108458000Y-72390000D03*
%TO.P,A1,12,MS3*%
%TO.N,unconnected-(A1-MS3-Pad12)*%
X108458000Y-74930000D03*
%TO.P,A1,13,~{RESET}*%
%TO.N,Net-(A1-~{RESET})*%
X108458000Y-77470000D03*
%TO.P,A1,14,~{SLEEP}*%
X108458000Y-80010000D03*
%TO.P,A1,15,STEP*%
%TO.N,Net-(A1-STEP)*%
X108458000Y-82550000D03*
%TO.P,A1,16,DIR*%
%TO.N,Net-(A1-DIR)*%
X108458000Y-85090000D03*
%TD*%
D12*
%TO.P,C1,1*%
%TO.N,Net-(A1-VMOT)*%
X102394000Y-92202000D03*
D13*
%TO.P,C1,2*%
%TO.N,GND*%
X104394000Y-92202000D03*
%TD*%
D14*
%TO.P,J1,1,Pin_1*%
%TO.N,Net-(A1-2B)*%
X129777000Y-71060000D03*
D15*
%TO.P,J1,2,Pin_2*%
%TO.N,Net-(A1-2A)*%
X129777000Y-68560000D03*
%TO.P,J1,3,Pin_3*%
%TO.N,Net-(A1-1A)*%
X129777000Y-66060000D03*
%TO.P,J1,4,Pin_4*%
%TO.N,Net-(A1-1B)*%
X129777000Y-63560000D03*
%TD*%
D14*
%TO.P,J3,1,Pin_1*%
%TO.N,+7.5V*%
X120142000Y-99568000D03*
D15*
%TO.P,J3,2,Pin_2*%
%TO.N,unconnected-(J3-Pin_2-Pad2)*%
X120142000Y-97068000D03*
%TO.P,J3,3,Pin_3*%
%TO.N,GND*%
X120142000Y-94568000D03*
%TD*%
D14*
%TO.P,J4,1,Pin_1*%
%TO.N,+7.5V*%
X120142000Y-110744000D03*
D15*
%TO.P,J4,2,Pin_2*%
%TO.N,unconnected-(J4-Pin_2-Pad2)*%
X120142000Y-108244000D03*
%TO.P,J4,3,Pin_3*%
%TO.N,GND*%
X120142000Y-105744000D03*
%TD*%
D17*
%TO.N,GND*%
X105918000Y-106172000D03*
X114046000Y-90678000D03*
%TO.N,Net-(A1-VMOT)*%
X106172000Y-98552000D03*
X104648000Y-96012000D03*
X100076000Y-86868000D03*
X102616000Y-85090000D03*
%TD*%
D18*
%TO.N,GND*%
X119634000Y-85090000D02*
X121158000Y-85090000D01*
D19*
X97790000Y-83058000D02*
X104394000Y-89662000D01*
X104140000Y-93001999D02*
X104140000Y-92456000D01*
X80010000Y-100838000D02*
X97790000Y-83058000D01*
X105918000Y-106172000D02*
X105410000Y-105664000D01*
X105410000Y-105664000D02*
X105410000Y-102108000D01*
X104394000Y-99960630D02*
X103594001Y-99160631D01*
D18*
X120142000Y-94568000D02*
X124634000Y-94568000D01*
D19*
X72390000Y-100838000D02*
X80010000Y-100838000D01*
X105410000Y-108966000D02*
X104140000Y-110236000D01*
D18*
X124714000Y-94648000D02*
X124714000Y-105410000D01*
D19*
X121158000Y-85090000D02*
X129536000Y-85090000D01*
D18*
X124888000Y-105744000D02*
X120142000Y-105744000D01*
D19*
X103594001Y-93547998D02*
X104140000Y-93001999D01*
D18*
X124634000Y-94568000D02*
X124714000Y-94648000D01*
X117094000Y-82550000D02*
X117094000Y-70866000D01*
X121158000Y-93552000D02*
X120142000Y-94568000D01*
X118110000Y-69850000D02*
X121158000Y-69850000D01*
D19*
X92456000Y-73152000D02*
X97790000Y-67818000D01*
X104394000Y-92202000D02*
X107188000Y-92202000D01*
X104394000Y-89662000D02*
X104394000Y-92202000D01*
X92456000Y-83058000D02*
X92456000Y-73152000D01*
X124968000Y-105664000D02*
X124888000Y-105744000D01*
D18*
X119634000Y-85090000D02*
X117094000Y-82550000D01*
D19*
X114300000Y-85090000D02*
X121158000Y-85090000D01*
X104140000Y-92456000D02*
X104394000Y-92202000D01*
X105918000Y-106172000D02*
X105410000Y-106680000D01*
X104394000Y-101092000D02*
X104394000Y-99960630D01*
D18*
X121158000Y-85090000D02*
X121158000Y-93552000D01*
D19*
X124714000Y-105410000D02*
X124968000Y-105664000D01*
D18*
X117094000Y-70866000D02*
X118110000Y-69850000D01*
D19*
X129536000Y-85090000D02*
X129572000Y-85054000D01*
X105410000Y-102108000D02*
X104394000Y-101092000D01*
X97790000Y-83058000D02*
X92456000Y-83058000D01*
X103594001Y-99160631D02*
X103594001Y-93547998D01*
X107188000Y-92202000D02*
X114300000Y-85090000D01*
X105410000Y-106680000D02*
X105410000Y-108966000D01*
D18*
X114046000Y-90678000D02*
X119634000Y-85090000D01*
%TO.N,Net-(A1-VMOT)*%
X106172000Y-97536000D02*
X104648000Y-96012000D01*
X119126000Y-65278000D02*
X121158000Y-67310000D01*
X102616000Y-85090000D02*
X102616000Y-73914000D01*
X102616000Y-73914000D02*
X105918000Y-70612000D01*
X102394000Y-92202000D02*
X102394000Y-89186000D01*
X106172000Y-98552000D02*
X106172000Y-97536000D01*
X105918000Y-70612000D02*
X105918000Y-65278000D01*
X102394000Y-89186000D02*
X100076000Y-86868000D01*
X105918000Y-65278000D02*
X119126000Y-65278000D01*
%TD*%
M02*
